<svg xmlns="http://www.w3.org/2000/svg" width="29" height="19" fill="none"><path fill="teal" d="M9.115.94q.128-.064.512-.064t1.536.384 1.408.64Q9.563 5.356 7.323 8.556q1.792.32 3.008 1.792 1.216 1.408 1.216 3.456 0 1.984-1.536 3.52-1.472 1.536-3.712 1.536t-3.904-1.408q-1.6-1.408-1.6-4.16 0-2.816 2.816-6.464Q6.427 3.116 9.115.94m15.625 0q.128-.064.512-.064t1.536.384 1.408.64q-3.008 3.456-5.248 6.656 1.792.32 3.008 1.792 1.216 1.408 1.216 3.456 0 1.984-1.536 3.52-1.472 1.536-3.712 1.536t-3.904-1.408q-1.6-1.408-1.6-4.16 0-2.816 2.816-6.464Q22.052 3.116 24.74.94"/></svg>