<svg xmlns="http://www.w3.org/2000/svg" width="29" height="19" fill="none"><path fill="teal" d="M1.507 5.996q0-2.048 1.472-3.584Q4.514.876 6.755.876t3.84 1.408q1.663 1.409 1.663 4.224 0 2.753-2.815 6.464-2.816 3.648-5.504 5.824-.128.064-.513.064-.384 0-1.535-.384-1.152-.384-1.408-.64Q3.49 14.38 5.73 11.18q-1.793-.32-3.008-1.728-1.216-1.471-1.216-3.456m15.937 0q0-2.048 1.472-3.584Q20.452.876 22.692.876t3.84 1.408q1.665 1.409 1.664 4.224 0 2.753-2.816 6.464-2.816 3.648-5.504 5.824-.128.064-.512.064t-1.536-.384-1.408-.64q3.008-3.456 5.248-6.656-1.792-.32-3.008-1.728-1.216-1.471-1.216-3.456"/></svg>