<svg xmlns="http://www.w3.org/2000/svg" width="17" height="16" fill="none"><path stroke="#033" stroke-linecap="round" stroke-linejoin="round" d="M4.959 15.322v-2.815c-1.49-.518-2.491-2.253-2.491-4.29C2.468 7 2.74 5.73 4.09 5.73h3.42a1.27 1.27 0 0 1 .368 2.485l-1.955.593c1 0 2.228.949 2.201 2.178m3.593 4.337v-2.817s.67-.335 1.372-1.006c1.35-1.292 1.526-3.336 1.16-5.169-.121-.61-.295-1.23-.544-1.75M3.55 5.648V3.493a1.69 1.69 0 0 1 3.379 0v2.155"/><path stroke="#033" stroke-linecap="round" stroke-linejoin="round" d="M6.929 5.204V2.368a1.69 1.69 0 0 1 3.38 0v2.836a1.69 1.69 0 0 1-1.558 1.685m1.559-3.396a1.69 1.69 0 0 1 3.38 0v1.451a1.69 1.69 0 1 1-3.38 0z"/></svg>