<svg width="17" height="16" viewBox="0 0 17 16" fill="none" xmlns="http://www.w3.org/2000/svg">
<path d="M4.95879 15.3224V12.5066C3.46854 11.9894 2.46777 10.2539 2.46777 8.21608C2.46777 7.00087 2.74103 5.73096 4.09033 5.73096H7.51014C8.21149 5.73096 8.77978 6.29951 8.77978 7.00087C8.77978 7.56025 8.41375 8.05376 7.87844 8.21611L5.92327 8.80907C6.92357 8.80907 8.15053 9.75778 8.12418 10.9866" stroke="#003333" stroke-linecap="round" stroke-linejoin="round"/>
<path d="M11.7168 15.3227V12.5062C11.7168 12.5062 12.3878 12.1708 13.0888 11.4998C14.439 10.2077 14.615 8.16428 14.2497 6.33147C14.1279 5.72033 13.9537 5.1011 13.7046 4.58008" stroke="#003333" stroke-linecap="round" stroke-linejoin="round"/>
<path d="M3.5498 5.64769V3.49279C3.5498 2.55967 4.30625 1.80322 5.23937 1.80322C6.17249 1.80322 6.92894 2.55967 6.92894 3.49279V5.64769" stroke="#003333" stroke-linecap="round" stroke-linejoin="round"/>
<path d="M6.92871 5.20387V2.36786C6.92871 1.43416 7.68563 0.677246 8.61933 0.677246C9.55302 0.677246 10.3099 1.43416 10.3099 2.36786V5.20387C10.3099 6.0933 9.62311 6.82231 8.75091 6.88944" stroke="#003333" stroke-linecap="round" stroke-linejoin="round"/>
<path d="M10.3105 3.49342C10.3105 2.55995 11.0673 1.80322 12.0007 1.80322C12.9342 1.80322 13.6909 2.55995 13.6909 3.49342V4.94403C13.6909 5.8775 12.9342 6.63422 12.0007 6.63422C11.0673 6.63422 10.3105 5.8775 10.3105 4.94403V3.49342Z" stroke="#003333" stroke-linecap="round" stroke-linejoin="round"/>
</svg>
