<svg xmlns="http://www.w3.org/2000/svg" width="31" height="30" fill="none"><g clip-path="url(#a)"><path fill="#FFCB60" stroke="teal" d="M22.898 12.844c-.06 1.312-.601 2.42-1.384 3.593a5.9 5.9 0 0 0-1.334 2.151c-.09.25-.172.506-.251.757l-.084.265c-.08.249-.166.501-.271.766h-8.678a23 23 0 0 1-.225-.783 12 12 0 0 0-.24-.8c-.202-.576-.49-1.113-1.109-1.907a7.5 7.5 0 1 1 13.576-4.042Z"/><path stroke="#fff" stroke-width=".893" d="M21.953 12.888c-.053 1.162-.527 2.143-1.211 3.18a5.3 5.3 0 0 0-1.167 1.907c-.08.22-.151.447-.22.67l-.074.234c-.07.219-.144.441-.236.674h-7.578a21 21 0 0 1-.195-.689c-.067-.246-.13-.48-.21-.708-.177-.51-.429-.986-.97-1.69a6.71 6.71 0 0 1-.546-6.853 6.6 6.6 0 0 1 2.368-2.646 6.49 6.49 0 0 1 6.787-.12 6.6 6.6 0 0 1 2.459 2.56 6.7 6.7 0 0 1 .793 3.481Z"/><path stroke="teal" stroke-width=".75" d="M10.781 21v5M19.781 20.5v5.25"/><path stroke="teal" stroke-linecap="round" d="m10.147 21.125 10-.25M10.147 22.625l10-.25M10.147 24.125l10-.25M10.147 25.625l5-.125 5-.125M13.406 27h3.625"/><path stroke="teal" stroke-width=".75" d="m10.531 25.75 3.875 2h1.75l3.875-2.25"/><path stroke="teal" stroke-width=".25" d="M12.406 26.625h5.25"/><circle cx="13.656" cy="10.5" r="1.25" fill="teal"/><circle cx="17.656" cy="10.5" r="1.25" fill="teal"/><path stroke="teal" stroke-linecap="round" d="M11.656 13.5c1 4 6.5 4.25 7.5 0"/><path stroke="#FFCB60" d="M4.425 4.578 6.04 5.664 7.656 6.75m-5.5 4.453 3.875.172m-2.75 6.375 3.75-.875M26.554 4.578l-1.616 1.086-1.616 1.086m5.5 4.453-3.875.172m2.75 6.375-3.75-.875"/><path stroke="#FFCB60" stroke-width=".25" d="M20.004 2.625c0 .01-.005.037-.057.082a1 1 0 0 1-.25.144c-.234.099-.58.191-1.018.27-.873.156-2.084.254-3.425.254s-2.552-.098-3.425-.254c-.438-.079-.784-.171-1.018-.27a1 1 0 0 1-.25-.144c-.052-.045-.057-.072-.057-.082s.005-.037.056-.082a1 1 0 0 1 .25-.144c.235-.099.581-.191 1.019-.27.873-.156 2.084-.254 3.425-.254s2.552.098 3.425.254c.438.079.784.171 1.018.27q.175.076.25.144c.052.045.057.072.057.082Z"/><path stroke="#FFCB60" stroke-width=".25" d="M19.754 2.5c-.002.004-.009.022-.048.052a1 1 0 0 1-.244.123c-.229.085-.567.164-.994.232-.851.134-2.032.218-3.34.218-1.306 0-2.487-.084-3.338-.218-.427-.068-.765-.147-.994-.232a1 1 0 0 1-.244-.123c-.04-.03-.047-.048-.048-.052.001-.004.009-.022.048-.052a1 1 0 0 1 .244-.123c.229-.085.567-.164.994-.232.851-.134 2.032-.218 3.339-.218s2.488.084 3.34.218c.426.068.764.147.993.232a1 1 0 0 1 .244.123c.039.03.046.048.048.052Z"/><path stroke="#FFCB60" stroke-width=".25" d="M20.004 2.5c-.002.004-.009.022-.048.052a1 1 0 0 1-.244.123c-.229.085-.567.164-.994.232-.851.134-2.032.218-3.34.218-1.306 0-2.487-.084-3.338-.218-.427-.068-.765-.147-.994-.232a1 1 0 0 1-.244-.123c-.04-.03-.047-.048-.048-.052.001-.004.009-.022.048-.052a1 1 0 0 1 .244-.123c.229-.085.567-.164.994-.232.851-.134 2.032-.218 3.339-.218s2.488.084 3.34.218c.426.068.764.147.993.232a1 1 0 0 1 .244.123c.039.03.046.048.048.052Z"/><path stroke="#FFCB60" stroke-width=".25" d="M19.254 2.625c0 .016-.008.045-.05.088a.8.8 0 0 1-.214.14c-.201.098-.5.19-.881.268-.759.156-1.812.254-2.98.254s-2.221-.098-2.98-.254c-.38-.078-.68-.17-.881-.268a.8.8 0 0 1-.214-.14c-.043-.043-.05-.072-.05-.088s.007-.045.05-.088a.8.8 0 0 1 .214-.14c.201-.098.5-.19.88-.268.76-.156 1.813-.254 2.98-.254 1.169 0 2.222.098 2.98.254.381.078.68.17.882.268q.15.074.214.14c.043.043.05.072.05.088Z"/><path stroke="#FFCB60" stroke-width=".25" d="M19.504 2.625c0 .016-.008.045-.05.088a.8.8 0 0 1-.214.14c-.201.098-.5.19-.881.268-.759.156-1.812.254-2.98.254s-2.221-.098-2.98-.254c-.38-.078-.68-.17-.881-.268a.8.8 0 0 1-.214-.14c-.043-.043-.05-.072-.05-.088s.007-.045.05-.088a.8.8 0 0 1 .214-.14c.201-.098.5-.19.88-.268.76-.156 1.813-.254 2.98-.254 1.169 0 2.222.098 2.98.254.381.078.68.17.882.268q.15.074.214.14c.043.043.05.072.05.088Z"/><path stroke="#FFCB60" stroke-width=".25" d="M20.004 2.625c0 .01-.005.037-.057.082a1 1 0 0 1-.25.144c-.234.099-.58.191-1.018.27-.873.156-2.084.254-3.425.254s-2.552-.098-3.425-.254c-.438-.079-.784-.171-1.018-.27a1 1 0 0 1-.25-.144c-.052-.045-.057-.072-.057-.082s.005-.037.056-.082a1 1 0 0 1 .25-.144c.235-.099.581-.191 1.019-.27.873-.156 2.084-.254 3.425-.254s2.552.098 3.425.254c.438.079.784.171 1.018.27q.175.076.25.144c.052.045.057.072.057.082Z"/><path stroke="#FFCB60" stroke-width=".25" d="M19.754 2.5c-.002.004-.009.022-.048.052a1 1 0 0 1-.244.123c-.229.085-.567.164-.994.232-.851.134-2.032.218-3.34.218-1.306 0-2.487-.084-3.338-.218-.427-.068-.765-.147-.994-.232a1 1 0 0 1-.244-.123c-.04-.03-.047-.048-.048-.052.001-.004.009-.022.048-.052a1 1 0 0 1 .244-.123c.229-.085.567-.164.994-.232.851-.134 2.032-.218 3.339-.218s2.488.084 3.34.218c.426.068.764.147.993.232a1 1 0 0 1 .244.123c.039.03.046.048.048.052Z"/><path stroke="#FFCB60" stroke-width=".25" d="M20.004 2.5c-.002.004-.009.022-.048.052a1 1 0 0 1-.244.123c-.229.085-.567.164-.994.232-.851.134-2.032.218-3.34.218-1.306 0-2.487-.084-3.338-.218-.427-.068-.765-.147-.994-.232a1 1 0 0 1-.244-.123c-.04-.03-.047-.048-.048-.052.001-.004.009-.022.048-.052a1 1 0 0 1 .244-.123c.229-.085.567-.164.994-.232.851-.134 2.032-.218 3.339-.218s2.488.084 3.34.218c.426.068.764.147.993.232a1 1 0 0 1 .244.123c.039.03.046.048.048.052Z"/><path stroke="#FFCB60" stroke-width=".25" d="M19.254 2.625c0 .016-.008.045-.05.088a.8.8 0 0 1-.214.14c-.201.098-.5.19-.881.268-.759.156-1.812.254-2.98.254s-2.221-.098-2.98-.254c-.38-.078-.68-.17-.881-.268a.8.8 0 0 1-.214-.14c-.043-.043-.05-.072-.05-.088s.007-.045.05-.088a.8.8 0 0 1 .214-.14c.201-.098.5-.19.88-.268.76-.156 1.813-.254 2.98-.254 1.169 0 2.222.098 2.98.254.381.078.68.17.882.268q.15.074.214.14c.043.043.05.072.05.088Z"/><path stroke="#FFCB60" stroke-width=".25" d="M19.504 2.625c0 .016-.008.045-.05.088a.8.8 0 0 1-.214.14c-.201.098-.5.19-.881.268-.759.156-1.812.254-2.98.254s-2.221-.098-2.98-.254c-.38-.078-.68-.17-.881-.268a.8.8 0 0 1-.214-.14c-.043-.043-.05-.072-.05-.088s.007-.045.05-.088a.8.8 0 0 1 .214-.14c.201-.098.5-.19.88-.268.76-.156 1.813-.254 2.98-.254 1.169 0 2.222.098 2.98.254.381.078.68.17.882.268q.15.074.214.14c.043.043.05.072.05.088Z"/><path stroke="#FFCB60" stroke-width=".25" d="M20.004 2.375c0 .01-.005.037-.057.082a1 1 0 0 1-.25.144c-.234.099-.58.191-1.018.27-.873.156-2.084.254-3.425.254s-2.552-.098-3.425-.254c-.438-.079-.784-.171-1.018-.27a1 1 0 0 1-.25-.144c-.052-.045-.057-.072-.057-.082s.005-.037.056-.082a1 1 0 0 1 .25-.144c.235-.099.581-.191 1.019-.27.873-.156 2.084-.254 3.425-.254s2.552.098 3.425.254c.438.079.784.171 1.018.27q.175.076.25.144c.052.045.057.072.057.082Z"/><path stroke="#FFCB60" stroke-width=".25" d="M19.754 2.25c-.002.004-.009.022-.048.052a1 1 0 0 1-.244.123c-.229.085-.567.164-.994.232-.851.134-2.032.218-3.34.218-1.306 0-2.487-.084-3.338-.218-.427-.068-.765-.147-.994-.232a1 1 0 0 1-.244-.123c-.04-.03-.047-.048-.048-.052.001-.004.009-.022.048-.052a1 1 0 0 1 .244-.123c.229-.085.567-.164.994-.232.851-.134 2.032-.218 3.339-.218s2.488.084 3.34.218c.426.068.764.147.993.232a1 1 0 0 1 .244.123c.039.03.046.048.048.052Z"/><path stroke="#FFCB60" stroke-width=".25" d="M20.004 2.25c-.002.004-.009.022-.048.052a1 1 0 0 1-.244.123c-.229.085-.567.164-.994.232-.851.134-2.032.218-3.34.218-1.306 0-2.487-.084-3.338-.218-.427-.068-.765-.147-.994-.232a1 1 0 0 1-.244-.123c-.04-.03-.047-.048-.048-.052.001-.004.009-.022.048-.052a1 1 0 0 1 .244-.123c.229-.085.567-.164.994-.232.851-.134 2.032-.218 3.339-.218s2.488.084 3.34.218c.426.068.764.147.993.232a1 1 0 0 1 .244.123c.039.03.046.048.048.052Z"/><path stroke="#FFCB60" stroke-width=".25" d="M19.254 2.375c0 .016-.008.045-.05.088a.8.8 0 0 1-.214.14c-.201.098-.5.19-.881.268-.759.156-1.812.254-2.98.254s-2.221-.098-2.98-.254c-.38-.078-.68-.17-.881-.268a.8.8 0 0 1-.214-.14c-.043-.043-.05-.072-.05-.088s.007-.045.05-.088a.8.8 0 0 1 .214-.14c.201-.098.5-.19.88-.268.76-.156 1.813-.254 2.98-.254 1.169 0 2.222.098 2.98.254.381.078.68.17.882.268q.15.074.214.14c.043.043.05.072.05.088Z"/><path stroke="#FFCB60" stroke-width=".25" d="M19.504 2.375c0 .016-.008.045-.05.088a.8.8 0 0 1-.214.14c-.201.098-.5.19-.881.268-.759.156-1.812.254-2.98.254s-2.221-.098-2.98-.254c-.38-.078-.68-.17-.881-.268a.8.8 0 0 1-.214-.14c-.043-.043-.05-.072-.05-.088s.007-.045.05-.088a.8.8 0 0 1 .214-.14c.201-.098.5-.19.88-.268.76-.156 1.813-.254 2.98-.254 1.169 0 2.222.098 2.98.254.381.078.68.17.882.268q.15.074.214.14c.043.043.05.072.05.088Z"/></g><defs><clipPath id="a"><path fill="#fff" d="M.379 0h30v30h-30z"/></clipPath></defs></svg>