<svg xmlns="http://www.w3.org/2000/svg" width="401" height="400" fill="none"><circle cx="200.5" cy="200" r="200" fill="#F1F3F3"/><path stroke="#033" stroke-width="3.438" d="m376.281 222.812-49.219 16.875 28.75 46.25M235.958 26.052l4.074 48.323M113.556 98.602 85.118 64.539m1.843 59.317-41.562-10.313m-23.805 78.332 48.281 7.812"/><path fill="#033" d="M332.87 78.917a9.167 9.167 0 1 0 10.573 14.979 9.167 9.167 0 0 0-10.573-14.979m21.875 33.438a9.167 9.167 0 1 0 12.775 2.202 9.166 9.166 0 0 0-12.775-2.202m-42.682 9.832-1.389-1.012-2.119 2.905 3.591-.176zm24.705-36.793-26.094 35.781 2.777 2.025 26.094-35.781zm-24.622 38.51 47.969-2.344-.168-3.433-47.968 2.344zm-72.312 247.67a9.167 9.167 0 0 0-11.197-6.533 9.166 9.166 0 0 0-6.533 11.197 9.166 9.166 0 0 0 11.197 6.533 9.167 9.167 0 0 0 6.533-11.197m-60.313 0a9.167 9.167 0 1 0-17.73 4.664 9.166 9.166 0 0 0 11.198 6.533 9.166 9.166 0 0 0 6.532-11.197m21.192-41.715 1.417-.973-1.421-2.07-1.416 2.074zm31.672 43.074-30.255-44.047-2.834 1.946 30.256 44.047zm-33.092-44.043-30.056 44.047 2.839 1.938 30.057-44.047zm145.385-14.66a9.166 9.166 0 0 0-11.198-6.532 9.166 9.166 0 0 0-6.532 11.197 9.167 9.167 0 1 0 17.73-4.665m-19.285 19.592a9.167 9.167 0 1 0-6.532 11.197 9.165 9.165 0 0 0 6.532-11.197m-36.299-35.697.631-1.599-5.458-2.153 3.433 4.758zm47.35 16.839-46.719-18.438-1.262 3.198 46.719 18.437zM287.7 299.131l27.435 38.028 2.787-2.011-27.434-38.029zM169.564 28.114a9.167 9.167 0 1 1-17.73-4.665 9.167 9.167 0 0 1 17.73 4.665M127.49 43.426a9.167 9.167 0 1 1-17.73-4.665 9.167 9.167 0 0 1 17.73 4.665m33.209 31.4h1.719v3.58l-2.794-2.24zm1.719-49.045v49.044h-3.438V25.781zm-2.794 50.385L117.55 42.435l2.15-2.682 42.074 33.731zM62.178 295.637a9.167 9.167 0 1 0-17.731 4.665 9.167 9.167 0 0 0 17.73-4.665M41.24 255.793a9.167 9.167 0 1 0-17.73 4.665 9.167 9.167 0 0 0 17.73-4.665m31.91-16.731 1.63.549 1.281-3.807-3.639 1.701zm-18.209 59.455 19.838-58.906-3.257-1.097-19.838 58.906zm17.481-61.012-40.775 19.063 1.456 3.114 40.775-19.063z"/><path fill="#033" d="M30.459 194.051a9.167 9.167 0 1 1-17.73-4.665 9.167 9.167 0 0 1 17.73 4.665m2.656 36.718a9.167 9.167 0 1 1-17.73-4.664 9.167 9.167 0 0 1 17.73 4.664m40.035 10.085 1.186-1.245 4.747 4.524-6.356-1.614zm-50.37-50.38 51.556 49.135-2.371 2.489-51.557-49.135zm49.947 52.045-48.9-12.416.846-3.332 48.9 12.417zM287.759 96.098a1.72 1.72 0 0 0 2.357 2.502zm26.193-22.312a9.166 9.166 0 0 0 12.957.386 9.165 9.165 0 0 0 .387-12.957 9.167 9.167 0 1 0-13.344 12.57M290.116 98.6l31.687-29.849-2.358-2.502-31.686 29.85zm-49.857 228.901a1.72 1.72 0 0 1-.073-2.43 1.72 1.72 0 0 1 2.43-.072zm26.193 22.313a9.166 9.166 0 0 1 12.957-.387 9.165 9.165 0 0 1 .387 12.958 9.166 9.166 0 1 1-13.344-12.571m-23.836-24.815 31.687 29.849-2.358 2.502-31.686-29.849zm-82.688 2.502a1.72 1.72 0 0 0-2.358-2.502zm-26.193 22.313a9.167 9.167 0 1 0-13.345 12.572 9.167 9.167 0 0 0 13.345-12.572m23.835-24.815-31.686 29.849 2.357 2.502 31.687-29.849zm167.137-167.148a1.72 1.72 0 0 0 1.135 3.244zm36.875-10.943a9.167 9.167 0 1 0 17.21-6.317 9.167 9.167 0 0 0-17.21 6.317m-35.74 14.187 44.913-15.723-1.135-3.244-44.913 15.723zm5.74 34.568a1.719 1.719 0 1 0 1.135 3.245zm36.875-10.943a9.166 9.166 0 1 0 17.211-6.315 9.166 9.166 0 1 0-17.211 6.315m-35.74 14.188 44.913-15.723-1.135-3.245-44.913 15.723zM73.481 158.831a1.72 1.72 0 0 1-1.136 3.245zm-36.875-10.943a9.167 9.167 0 1 1-17.211-6.316 9.167 9.167 0 0 1 17.21 6.316m35.74 14.188-44.914-15.723 1.136-3.245 44.913 15.723zm126.442-93.185a1.719 1.719 0 0 0 3.426-.282zm6.256-46.315a9.167 9.167 0 1 0-17.211-6.316 9.167 9.167 0 0 0 17.211 6.316m-2.83 46.033-4.063-49.332-3.425.282 4.062 49.332z"/><path fill="teal" d="M67.576 209.008a9.167 9.167 0 1 0 4.154-17.856 9.167 9.167 0 0 0-4.154 17.856m17.812-76.563a9.166 9.166 0 0 0 11.006-6.851 9.167 9.167 0 1 0-11.005 6.851m-14.016 67.657c.241-18.598 1.397-31.895 4.1-43.344 2.697-11.423 6.95-21.083 13.482-32.381l-2.976-1.72c-6.646 11.497-11.056 21.473-13.851 33.311-2.788 11.81-3.95 25.397-4.193 44.089z"/><path stroke="teal" stroke-linecap="round" stroke-width="3.438" d="M115.68 303.616c-26.678-26.061-35.75-40.427-43.178-65.688m211.971 65.375c26.678-26.06 35.75-40.427 43.178-65.687"/><path fill="teal" d="M248.899 323.957a9.167 9.167 0 1 0-9.308 9.022 9.166 9.166 0 0 0 9.308-9.022m-78.597-1.228a9.167 9.167 0 1 0-18.332-.284 9.167 9.167 0 0 0 18.332.284m69.09-.6c-18.229 3.695-31.469 5.375-43.232 5.153-11.734-.221-22.075-2.337-34.498-6.332l-1.052 3.272c12.642 4.066 23.325 6.268 35.485 6.497 12.133.229 25.658-1.507 43.98-5.221zm9.588-247.655a9.167 9.167 0 1 1-18.332.286 9.167 9.167 0 0 1 18.332-.286m-78.598 1.228a9.167 9.167 0 1 1-18.33.286 9.167 9.167 0 0 1 18.33-.286m69.091.6c-18.229-3.695-31.47-5.375-43.232-5.154-11.734.222-22.075 2.338-34.498 6.333l-1.053-3.272c12.643-4.066 23.325-6.268 35.486-6.497 12.132-.23 25.658 1.507 43.98 5.221z"/><circle cx="200.5" cy="198.75" r="90.938" fill="#fff" stroke="#FFCB60" stroke-width="5.625"/><path fill="#fff" d="M138 136.25h125v125H138z"/><path fill="#fff" d="M166.369 174.508h67.867v76.638h-67.867z"/><circle cx="200.314" cy="199.87" r="25.177" fill="#FFCB60" transform="rotate(.423 200.314 199.87)"/><path fill="#fff" d="m200.551 183.526.755 30.049 16.054-25.411-14.37 26.4 26.609-13.98-25.645 15.678 30.034 1.198-30.048.755 25.411 16.055-26.4-14.371 13.979 26.609-15.678-25.645-1.198 30.034-.755-30.048-16.054 25.411 14.37-26.4-26.609 13.979 25.645-15.678-30.034-1.198 30.049-.755-25.412-16.054 26.401 14.37-13.98-26.609 15.678 25.645z"/><path fill="#fff" d="m193.895 192.771 6.38 21.622 6.698-21.525-5.286 21.915 16.563-15.293-15.535 16.336 21.99-4.962-21.621 6.38 21.525 6.697-21.915-5.286 15.293 16.564-16.336-15.535 4.962 21.99-6.38-21.622-6.698 21.526 5.286-21.915-16.563 15.292 15.535-16.336-21.99 4.962 21.621-6.379-21.525-6.698 21.915 5.286-15.293-16.563 16.336 15.535z"/><circle cx="200.302" cy="217.212" r="13.475" fill="#fff" transform="rotate(.423 200.302 217.212)"/><path fill="teal" d="M139.483 154.251c3.686-.033 6.05-.061 7.51-.082-.409-.075 4.916-.072 0 0 .233.043 2.332.111 9.263.206l31.555-4.133c12.708 2.594 19.752 4.576 32.185 8.968 1.632-.526 8.91 10.226 18.02 22.684.932 1.39 1.146 6.016 1.332 16.742-.091 1.521-1.166 1.013-4.834-2.218l-3.772-14.577c-6.865-5.519-11.91-9.283-13.734-11.984-6.938-2.37-11.055-3.528-18.876-5.231-2.492.405-4.178 1.019-8.271 3.576 2.366 4.226 6.041 6.673 11.316 10.996l10.872 5.415c1.785 1.645 1.822 2.751 1.177 4.859-.884 2.156-1.657 2.563-3.174 2.886-17.751-4.957-28.274-8.117-48.145-15.147l-22.424 4.63zm122.221 89.71c-3.686.033-6.05.06-7.51.082.408.074-4.917.071 0 0-.234-.043-2.333-.111-9.263-.206l-31.555 4.132c-12.708-2.593-19.753-4.576-32.186-8.967-1.631.526-8.909-10.226-18.02-22.685-.931-1.389-1.146-6.016-1.331-16.742.09-1.52 1.165-1.013 4.833 2.218l3.773 14.578c6.865 5.519 11.91 9.283 13.734 11.983 6.937 2.371 11.054 3.529 18.876 5.232 2.492-.405 4.177-1.019 8.271-3.576-2.367-4.226-6.042-6.674-11.316-10.996l-10.873-5.415c-1.785-1.646-1.821-2.752-1.176-4.859.884-2.156 1.656-2.564 3.173-2.886 17.752 4.957 28.275 8.117 48.145 15.147l22.425-4.63z"/><path fill="#FFCB60" d="M121.647 175.703c1.638-4.79-.916-10.002-5.707-11.64a9.166 9.166 0 1 0-5.933 17.346 9.166 9.166 0 0 0 11.64-5.706m-39.974-13.674a9.167 9.167 0 1 0-11.64 5.707 9.167 9.167 0 0 0 11.64-5.707m31.857 9.081-39.974-13.674-1.112 3.253 39.973 13.673z"/><path fill="teal" d="M331.639 207.758a9.167 9.167 0 1 1 6.852-11.005c1.147 4.93-1.921 9.858-6.852 11.005m-17.812-76.563a9.165 9.165 0 0 1-11.005-6.851 9.165 9.165 0 0 1 6.851-11.005 9.166 9.166 0 0 1 11.005 6.851 9.166 9.166 0 0 1-6.851 11.005m14.017 67.657c-.242-18.598-1.398-31.895-4.101-43.344-2.697-11.423-6.951-21.083-13.481-32.381l2.976-1.72c6.646 11.497 11.056 21.473 13.85 33.311 2.789 11.81 3.95 25.397 4.193 44.089z"/><path fill="#FFCB60" d="M149.812 132.511a9.167 9.167 0 1 0-13.399-12.512 9.167 9.167 0 0 0 13.399 12.512m-30.876-28.835a9.168 9.168 0 1 0-13.401-12.513 9.168 9.168 0 0 0 13.401 12.513m25.35 21.322-30.877-28.835-2.346 2.512 30.877 28.836zm5.526 138.664a9.167 9.167 0 1 1-13.4 12.514 9.167 9.167 0 0 1 13.4-12.514m-36.403 36.349a1.719 1.719 0 0 1-2.346-2.513zm30.877-28.836-30.877 28.836-2.346-2.513 30.877-28.835zm106.563-7.513a9.167 9.167 0 1 0 13.4 12.514 9.167 9.167 0 0 0-13.4-12.514m30.877 28.836a9.167 9.167 0 0 0 13.398 12.513 9.167 9.167 0 0 0-13.398-12.513m-25.351-21.323 30.877 28.836 2.346-2.513-30.877-28.835zm-56.048 10.202a9.168 9.168 0 0 0 .067 18.334 9.167 9.167 0 0 0 9.133-9.201c-.018-5.062-4.137-9.151-9.2-9.133m.139 37.894a9.167 9.167 0 1 0 .068 18.333c5.062-.018 9.151-4.138 9.132-9.2a9.165 9.165 0 0 0-9.2-9.133m-1.824-28.721.139 37.894 3.438-.013-.139-37.893zm1.824-229.717a9.167 9.167 0 1 0 .069 18.335 9.167 9.167 0 0 0-.069-18.335m.139 37.894a9.167 9.167 0 1 0 .068 18.333 9.168 9.168 0 0 0-.068-18.333m-1.824-28.72.139 37.893 3.438-.013-.139-37.893zm52.38 62.504a9.167 9.167 0 1 1 13.4-12.513 9.167 9.167 0 0 1-13.4 12.513m30.877-28.835a9.168 9.168 0 1 1 13.401-12.513 9.168 9.168 0 0 1-13.401 12.513m-25.35 21.322 30.876-28.835 2.347 2.512-30.877 28.836zm78.709 31.098a9.167 9.167 0 1 1-17.347 5.933 9.167 9.167 0 0 1 17.347-5.933m-39.974 13.673a9.166 9.166 0 0 1-5.706 11.64 9.166 9.166 0 0 1-11.64-5.706 9.166 9.166 0 0 1 5.706-11.64 9.166 9.166 0 0 1 11.64 5.706m31.857-9.08-39.974 13.673-1.112-3.252 39.973-13.674zm-205.633 61.657a9.167 9.167 0 1 1-17.347 5.933 9.167 9.167 0 0 1 17.347-5.933m-39.974 13.673a9.166 9.166 0 0 1-5.706 11.64 9.166 9.166 0 1 1-5.934-17.346 9.166 9.166 0 0 1 11.64 5.706m31.857-9.08-39.974 13.673-1.112-3.252 39.973-13.674zm222.492 15.014c1.638-4.79-.916-10.002-5.707-11.64a9.166 9.166 0 1 0-5.933 17.346 9.166 9.166 0 0 0 11.64-5.706m-39.974-13.674a9.166 9.166 0 1 0-17.346-5.933 9.166 9.166 0 0 0 5.706 11.64c4.79 1.638 10.002-.916 11.64-5.707m31.857 9.081-39.974-13.674-1.112 3.253 39.973 13.673z"/><path fill="#033" d="M73.922 334.804a9.167 9.167 0 1 0 13.345-12.572 9.167 9.167 0 0 0-13.345 12.572m31.686-29.849a9.166 9.166 0 0 0 12.958.386 9.166 9.166 0 0 0 .387-12.957 9.167 9.167 0 0 0-13.345 12.571m-23.835 24.814 31.686-29.849-2.357-2.502-31.686 29.849zm-42.96-211.731a9.167 9.167 0 1 0-1.577-12.867 9.166 9.166 0 0 0 1.577 12.867m39.479-47.066a9.167 9.167 0 1 0 11.29-14.444 9.167 9.167 0 0 0-11.29 14.444m-32.273 40.565c9.334-20.22 21.295-32.588 38.978-46.434l-2.12-2.706c-17.932 14.04-30.337 26.812-39.98 47.699zm182.047-91.366a9.168 9.168 0 1 0 16.745 7.469 9.168 9.168 0 0 0-16.745-7.469m55.756 21.777a9.166 9.166 0 0 0 4.637 12.106 9.167 9.167 0 1 0-4.637-12.106m-47.707-16.353c22.197 4.237 37.535 7.796 55.021 21.443l2.115-2.71c-18.174-14.184-34.216-17.857-56.491-22.11zm143.939 188.452a9.168 9.168 0 1 0-6.295 17.22 9.168 9.168 0 0 0 6.295-17.22m-21.094 63.594a9.167 9.167 0 1 0-6.295 17.218 9.167 9.167 0 1 0 6.295-17.218m16.24-55.19c-2.684 22.346-8.378 44.409-20.812 62.838l2.849 1.922c12.866-19.068 18.66-41.743 21.376-64.35z"/></svg>