<svg width="401" height="400" viewBox="0 0 401 400" fill="none" xmlns="http://www.w3.org/2000/svg">
<circle cx="200.5" cy="200" r="200" fill="#F1F3F3"/>
<path d="M376.281 222.812L327.062 239.687L355.812 285.937" stroke="#003333" stroke-width="3.4375"/>
<path d="M235.958 26.0518L240.032 74.375" stroke="#003333" stroke-width="3.4375"/>
<line x1="113.556" y1="98.6015" x2="85.1181" y2="64.539" stroke="#003333" stroke-width="3.4375"/>
<line x1="86.9611" y1="123.856" x2="45.3986" y2="113.543" stroke="#003333" stroke-width="3.4375"/>
<path d="M21.5938 191.875L69.875 199.687" stroke="#003333" stroke-width="3.4375"/>
<path d="M332.87 78.9174C328.734 81.8369 327.748 87.5565 330.667 91.6925C333.587 95.8285 339.307 96.8146 343.443 93.8951C347.579 90.9756 348.565 85.256 345.645 81.12C342.726 76.984 337.006 75.9979 332.87 78.9174ZM354.745 112.355C350.609 115.274 349.623 120.994 352.542 125.13C355.462 129.266 361.182 130.252 365.318 127.333C369.454 124.413 370.44 118.693 367.52 114.557C364.601 110.421 358.881 109.435 354.745 112.355ZM312.063 122.187L310.674 121.175L308.555 124.08L312.146 123.904L312.063 122.187ZM336.768 85.3935L310.674 121.175L313.451 123.2L339.545 87.419L336.768 85.3935ZM312.146 123.904L360.115 121.56L359.947 118.127L311.979 120.471L312.146 123.904Z" fill="#003333"/>
<path d="M239.834 371.574C238.546 366.678 233.533 363.753 228.637 365.041C223.74 366.329 220.816 371.342 222.104 376.238C223.392 381.135 228.405 384.059 233.301 382.771C238.197 381.483 241.122 376.47 239.834 371.574ZM179.521 371.574C178.233 366.678 173.22 363.753 168.324 365.041C163.428 366.329 160.503 371.342 161.791 376.238C163.079 381.135 168.092 384.059 172.989 382.771C177.885 381.483 180.809 376.47 179.521 371.574ZM200.713 329.859L202.13 328.886L200.709 326.816L199.293 328.89L200.713 329.859ZM232.385 372.933L202.13 328.886L199.296 330.832L229.552 374.879L232.385 372.933ZM199.293 328.89L169.237 372.937L172.076 374.875L202.133 330.828L199.293 328.89Z" fill="#003333"/>
<path d="M344.678 314.23C343.39 309.334 338.376 306.409 333.48 307.698C328.584 308.986 325.66 313.999 326.948 318.895C328.236 323.791 333.249 326.716 338.145 325.428C343.041 324.139 345.966 319.126 344.678 314.23ZM325.393 333.822C324.105 328.926 319.092 326.001 314.196 327.289C309.3 328.577 306.375 333.59 307.663 338.486C308.951 343.382 313.965 346.307 318.861 345.019C323.757 343.731 326.682 338.718 325.393 333.822ZM289.094 298.125L289.725 296.526L284.267 294.373L287.7 299.131L289.094 298.125ZM336.444 314.964L289.725 296.526L288.463 299.724L335.182 318.161L336.444 314.964ZM287.7 299.131L315.135 337.159L317.922 335.148L290.488 297.119L287.7 299.131Z" fill="#003333"/>
<path d="M169.564 28.1136C168.276 33.0096 163.263 35.9344 158.367 34.6463C153.471 33.3583 150.546 28.3451 151.834 23.4491C153.122 18.5531 158.135 15.6282 163.031 16.9163C167.927 18.2044 170.852 23.2175 169.564 28.1136ZM127.49 43.4261C126.202 48.3221 121.189 51.2469 116.293 49.9589C111.397 48.6708 108.472 43.6576 109.76 38.7616C111.048 33.8656 116.061 30.9408 120.957 32.2288C125.853 33.5169 128.778 38.5301 127.49 43.4261ZM160.699 74.8251L162.418 74.8251L162.418 78.4059L159.624 76.1661L160.699 74.8251ZM162.418 25.7813L162.418 74.8251L158.98 74.8251L158.98 25.7813L162.418 25.7813ZM159.624 76.1661L117.55 42.4348L119.7 39.7528L161.774 73.4841L159.624 76.1661Z" fill="#003333"/>
<path d="M62.1775 295.637C60.8894 290.741 55.8763 287.816 50.9802 289.104C46.0842 290.392 43.1594 295.405 44.4475 300.301C45.7355 305.197 50.7487 308.122 55.6447 306.834C60.5407 305.546 63.4656 300.533 62.1775 295.637ZM41.24 255.793C39.9519 250.897 34.9388 247.972 30.0427 249.26C25.1467 250.548 22.2219 255.561 23.51 260.457C24.798 265.353 29.8112 268.278 34.7072 266.99C39.6032 265.702 42.5281 260.689 41.24 255.793ZM73.1504 239.062L74.7792 239.611L76.0612 235.804L72.4225 237.505L73.1504 239.062ZM54.9413 298.517L74.7792 239.611L71.5215 238.514L51.6836 297.42L54.9413 298.517ZM72.4225 237.505L31.6471 256.568L33.1029 259.682L73.8783 240.619L72.4225 237.505Z" fill="#003333"/>
<path d="M30.4588 194.051C29.1707 198.947 24.1575 201.872 19.2615 200.584C14.3655 199.296 11.4407 194.282 12.7287 189.386C14.0168 184.49 19.03 181.566 23.926 182.854C28.822 184.142 31.7468 189.155 30.4588 194.051ZM33.115 230.769C31.827 235.665 26.8138 238.59 21.9178 237.302C17.0218 236.014 14.0969 231.001 15.385 226.105C16.6731 221.209 21.6862 218.284 26.5823 219.572C31.4783 220.86 34.4031 225.873 33.115 230.769ZM73.1504 240.854L74.3362 239.609L79.083 244.133L72.7274 242.519L73.1504 240.854ZM22.7795 190.474L74.3362 239.609L71.9646 242.098L20.408 192.963L22.7795 190.474ZM72.7274 242.519L23.827 230.103L24.673 226.771L73.5734 239.188L72.7274 242.519Z" fill="#003333"/>
<path d="M287.759 96.0983C287.068 96.7492 287.036 97.837 287.686 98.5279C288.337 99.2188 289.425 99.2513 290.116 98.6004L287.759 96.0983ZM313.952 73.7855C317.423 77.4705 323.224 77.6437 326.909 74.1723C330.595 70.7009 330.768 64.8995 327.296 61.2145C323.825 57.5294 318.024 57.3562 314.338 60.8276C310.653 64.299 310.48 70.1004 313.952 73.7855ZM290.116 98.6004L321.803 68.751L319.445 66.2489L287.759 96.0983L290.116 98.6004Z" fill="#003333"/>
<path d="M240.259 327.501C239.568 326.85 239.536 325.762 240.186 325.071C240.837 324.381 241.925 324.348 242.616 324.999L240.259 327.501ZM266.452 349.814C269.923 346.129 275.724 345.956 279.409 349.427C283.095 352.898 283.268 358.7 279.796 362.385C276.325 366.07 270.524 366.243 266.838 362.772C263.153 359.3 262.98 353.499 266.452 349.814ZM242.616 324.999L274.303 354.848L271.945 357.35L240.259 327.501L242.616 324.999Z" fill="#003333"/>
<path d="M159.928 327.501C160.618 326.85 160.651 325.762 160 325.071C159.349 324.381 158.261 324.348 157.57 324.999L159.928 327.501ZM133.735 349.814C130.264 346.129 124.462 345.956 120.777 349.427C117.092 352.898 116.919 358.7 120.39 362.385C123.862 366.07 129.663 366.243 133.348 362.772C137.033 359.3 137.206 353.499 133.735 349.814ZM157.57 324.999L125.884 354.848L128.241 357.35L159.928 327.501L157.57 324.999Z" fill="#003333"/>
<path d="M324.707 157.851C323.811 158.165 323.339 159.145 323.652 160.041C323.966 160.937 324.946 161.409 325.842 161.095L324.707 157.851ZM361.582 146.908C363.326 151.66 368.593 154.099 373.345 152.355C378.098 150.611 380.537 145.345 378.793 140.592C377.049 135.839 371.782 133.4 367.03 135.144C362.277 136.888 359.838 142.155 361.582 146.908ZM325.842 161.095L370.755 145.372L369.62 142.128L324.707 157.851L325.842 161.095Z" fill="#003333"/>
<path d="M331.582 195.663C330.686 195.977 330.214 196.958 330.527 197.854C330.841 198.749 331.821 199.222 332.717 198.908L331.582 195.663ZM368.457 184.72C370.201 189.473 375.468 191.912 380.22 190.168C384.973 188.424 387.412 183.157 385.668 178.405C383.924 173.652 378.657 171.213 373.905 172.957C369.152 174.701 366.713 179.968 368.457 184.72ZM332.717 198.908L377.63 183.185L376.495 179.94L331.582 195.663L332.717 198.908Z" fill="#003333"/>
<path d="M73.481 158.831C74.3769 159.145 74.8489 160.126 74.5353 161.022C74.2217 161.917 73.2411 162.389 72.3452 162.076L73.481 158.831ZM36.6056 147.888C34.8616 152.641 29.5949 155.08 24.8422 153.336C20.0895 151.592 17.6505 146.325 19.3945 141.572C21.1385 136.82 26.4052 134.381 31.1579 136.125C35.9106 137.869 38.3497 143.135 36.6056 147.888ZM72.3452 162.076L27.4321 146.353L28.568 143.108L73.481 158.831L72.3452 162.076Z" fill="#003333"/>
<path d="M198.787 68.8911C198.865 69.8371 199.695 70.5409 200.641 70.463C201.587 70.385 202.291 69.555 202.213 68.6089L198.787 68.8911ZM205.043 22.5757C206.787 17.823 204.348 12.5564 199.595 10.8123C194.843 9.06828 189.576 11.5073 187.832 16.26C186.088 21.0127 188.527 26.2794 193.28 28.0234C198.032 29.7675 203.299 27.3285 205.043 22.5757ZM202.213 68.6089L198.15 19.2768L194.725 19.5589L198.787 68.8911L202.213 68.6089Z" fill="#003333"/>
<path d="M67.5758 209.008C72.5068 210.155 77.434 207.088 78.5812 202.157C79.7284 197.226 76.6611 192.299 71.7302 191.152C66.7993 190.004 61.872 193.072 60.7248 198.003C59.5776 202.933 62.6449 207.861 67.5758 209.008ZM85.3883 132.445C90.3193 133.593 95.2465 130.525 96.3937 125.594C97.5409 120.663 94.4736 115.736 89.5427 114.589C84.6118 113.442 79.6845 116.509 78.5373 121.44C77.3901 126.371 80.4574 131.298 85.3883 132.445ZM71.3716 200.102C71.6131 181.504 72.7693 168.207 75.4724 156.758C78.1689 145.335 82.4229 135.675 88.9536 124.377L85.9775 122.657C79.3317 134.154 74.9215 144.13 72.1269 155.968C69.3388 167.778 68.1771 181.365 67.9344 200.057L71.3716 200.102Z" fill="#008080"/>
<path d="M115.68 303.616C89.0016 277.555 79.9295 263.189 72.502 237.928" stroke="#008080" stroke-width="3.4375" stroke-linecap="round"/>
<path d="M284.473 303.303C311.151 277.243 320.223 262.876 327.651 237.616" stroke="#008080" stroke-width="3.4375" stroke-linecap="round"/>
<path d="M248.899 323.957C248.978 318.895 244.939 314.727 239.877 314.648C234.815 314.569 230.647 318.608 230.568 323.67C230.489 328.732 234.529 332.9 239.591 332.979C244.653 333.058 248.82 329.019 248.899 323.957ZM170.302 322.729C170.381 317.667 166.341 313.5 161.279 313.421C156.217 313.342 152.05 317.381 151.97 322.443C151.891 327.505 155.931 331.673 160.993 331.752C166.055 331.831 170.223 327.791 170.302 322.729ZM239.392 322.129C221.163 325.824 207.923 327.504 196.16 327.282C184.426 327.061 174.085 324.945 161.662 320.95L160.61 324.222C173.252 328.288 183.935 330.49 196.095 330.719C208.228 330.948 221.753 329.212 240.075 325.498L239.392 322.129Z" fill="#008080"/>
<path d="M248.98 74.4743C249.059 79.5363 245.019 83.704 239.957 83.783C234.895 83.862 230.728 79.8226 230.649 74.7606C230.57 69.6986 234.609 65.5309 239.671 65.4519C244.733 65.3729 248.901 69.4123 248.98 74.4743ZM170.382 75.7016C170.461 80.7636 166.422 84.9312 161.36 85.0103C156.298 85.0893 152.13 81.0498 152.051 75.9878C151.972 70.9259 156.011 66.7582 161.073 66.6792C166.135 66.6001 170.303 70.6396 170.382 75.7016ZM239.473 76.3019C221.244 72.6069 208.003 70.9266 196.241 71.1485C184.507 71.3698 174.166 73.4859 161.743 77.481L160.69 74.2085C173.333 70.143 184.015 67.941 196.176 67.7116C208.308 67.4827 221.834 69.2191 240.156 72.933L239.473 76.3019Z" fill="#008080"/>
<circle cx="200.5" cy="198.75" r="90.9375" fill="white" stroke="#FFCB60" stroke-width="5.625"/>
<rect width="125" height="125" transform="translate(138 136.25)" fill="white"/>
<rect width="67.8674" height="76.6379" transform="translate(166.369 174.508)" fill="white"/>
<circle cx="200.314" cy="199.87" r="25.1775" transform="rotate(0.422522 200.314 199.87)" fill="#FFCB60"/>
<path d="M200.551 183.526L201.306 213.575L217.36 188.164L202.99 214.564L229.599 200.584L203.954 216.262L233.988 217.46L203.94 218.215L229.351 234.27L202.951 219.899L216.93 246.508L201.252 220.863L200.054 250.897L199.299 220.849L183.245 246.26L197.615 219.86L171.006 233.839L196.651 218.161L166.617 216.963L196.666 216.208L171.254 200.154L197.655 214.524L183.675 187.915L199.353 213.56L200.551 183.526Z" fill="white"/>
<path d="M193.895 192.771L200.275 214.393L206.973 192.868L201.687 214.783L218.25 199.49L202.715 215.826L224.705 210.864L203.084 217.244L224.609 223.941L202.694 218.655L217.987 235.219L201.651 219.684L206.613 241.674L200.233 220.052L193.535 241.578L198.821 219.663L182.258 234.955L197.793 218.619L175.803 223.581L197.424 217.202L175.899 210.504L197.814 215.79L182.521 199.227L198.857 214.762L193.895 192.771Z" fill="white"/>
<circle cx="200.302" cy="217.212" r="13.4745" transform="rotate(0.422522 200.302 217.212)" fill="white"/>
<path d="M139.483 154.251C143.169 154.218 145.533 154.19 146.993 154.169C146.584 154.094 151.909 154.097 146.993 154.169C147.226 154.212 149.325 154.28 156.256 154.375L187.811 150.242C200.519 152.836 207.563 154.818 219.996 159.21C221.628 158.684 228.906 169.436 238.016 181.894C238.948 183.284 239.162 187.91 239.348 198.636C239.257 200.157 238.182 199.649 234.514 196.418L230.742 181.841C223.877 176.322 218.832 172.558 217.008 169.857C210.07 167.487 205.953 166.329 198.132 164.626C195.64 165.031 193.954 165.645 189.861 168.202C192.227 172.428 195.902 174.875 201.177 179.198L212.049 184.613C213.834 186.258 213.871 187.364 213.226 189.472C212.342 191.628 211.569 192.035 210.052 192.358C192.301 187.401 181.778 184.241 161.907 177.211L139.483 181.841L139.483 154.251Z" fill="#008080"/>
<path d="M261.704 243.961C258.018 243.994 255.654 244.021 254.194 244.043C254.602 244.117 249.277 244.114 254.194 244.043C253.96 244 251.861 243.932 244.931 243.837L213.376 247.969C200.668 245.376 193.623 243.393 181.19 239.002C179.559 239.528 172.281 228.776 163.17 216.317C162.239 214.928 162.024 210.301 161.839 199.575C161.929 198.055 163.004 198.562 166.672 201.793L170.445 216.371C177.31 221.89 182.355 225.654 184.179 228.354C191.116 230.725 195.233 231.883 203.055 233.586C205.547 233.181 207.232 232.567 211.326 230.01C208.959 225.784 205.284 223.336 200.01 219.014L189.137 213.599C187.352 211.953 187.316 210.847 187.961 208.74C188.845 206.584 189.617 206.176 191.134 205.854C208.886 210.811 219.409 213.971 239.279 221.001L261.704 216.371L261.704 243.961Z" fill="#008080"/>
<path d="M121.647 175.703C123.285 170.913 120.731 165.701 115.94 164.063C111.15 162.424 105.939 164.979 104.3 169.769C102.662 174.559 105.217 179.771 110.007 181.409C114.797 183.048 120.008 180.493 121.647 175.703ZM81.6733 162.029C83.3119 157.239 80.757 152.028 75.9669 150.389C71.1768 148.751 65.9653 151.306 64.3268 156.096C62.6883 160.886 65.2431 166.097 70.0332 167.736C74.8234 169.374 80.0348 166.82 81.6733 162.029ZM113.53 171.11L73.5563 157.436L72.4438 160.689L112.417 174.362L113.53 171.11Z" fill="#FFCB60"/>
<path d="M331.639 207.758C326.709 208.905 321.781 205.838 320.634 200.907C319.487 195.976 322.554 191.049 327.485 189.902C332.416 188.754 337.343 191.822 338.491 196.753C339.638 201.683 336.57 206.611 331.639 207.758ZM313.827 131.195C308.896 132.343 303.969 129.275 302.822 124.344C301.674 119.413 304.742 114.486 309.673 113.339C314.604 112.192 319.531 115.259 320.678 120.19C321.825 125.121 318.758 130.048 313.827 131.195ZM327.844 198.852C327.602 180.254 326.446 166.957 323.743 155.508C321.046 144.085 316.792 134.425 310.262 123.127L313.238 121.407C319.884 132.904 324.294 142.88 327.088 154.718C329.877 166.528 331.038 180.115 331.281 198.807L327.844 198.852Z" fill="#008080"/>
<path d="M149.812 132.511C153.268 128.811 153.069 123.01 149.369 119.555C145.669 116.1 139.869 116.298 136.413 119.998C132.958 123.698 133.156 129.498 136.856 132.954C140.556 136.409 146.357 136.211 149.812 132.511ZM118.936 103.676C122.391 99.9755 122.193 94.1749 118.493 90.7195C114.793 87.2641 108.992 87.4623 105.537 91.1624C102.081 94.8624 102.28 100.663 105.98 104.118C109.68 107.574 115.48 107.376 118.936 103.676ZM144.286 124.998L113.409 96.1628L111.063 98.6751L141.94 127.511L144.286 124.998Z" fill="#FFCB60"/>
<path d="M149.812 263.662C153.268 267.363 153.069 273.163 149.369 276.619C145.669 280.074 139.869 279.876 136.413 276.176C132.958 272.476 133.156 266.675 136.856 263.22C140.556 259.764 146.357 259.962 149.812 263.662ZM113.409 300.011C112.715 300.659 111.628 300.621 110.98 299.928C110.332 299.234 110.369 298.146 111.063 297.498L113.409 300.011ZM144.286 271.175L113.409 300.011L111.063 297.498L141.94 268.663L144.286 271.175Z" fill="#FFCB60"/>
<path d="M250.849 263.662C247.393 267.363 247.592 273.163 251.292 276.619C254.992 280.074 260.792 279.876 264.248 276.176C267.703 272.476 267.505 266.675 263.805 263.22C260.105 259.764 254.304 259.962 250.849 263.662ZM281.726 292.498C278.27 296.198 278.468 301.999 282.168 305.454C285.868 308.909 291.669 308.711 295.124 305.011C298.58 301.311 298.382 295.51 294.682 292.055C290.982 288.6 285.181 288.798 281.726 292.498ZM256.375 271.175L287.252 300.011L289.598 297.498L258.721 268.663L256.375 271.175Z" fill="#FFCB60"/>
<path d="M200.327 281.377C195.265 281.396 191.176 285.515 191.194 290.578C191.213 295.64 195.332 299.729 200.394 299.711C205.457 299.692 209.546 295.573 209.527 290.51C209.509 285.448 205.39 281.359 200.327 281.377ZM200.466 319.271C195.404 319.289 191.315 323.409 191.333 328.471C191.352 333.534 195.471 337.623 200.534 337.604C205.596 337.586 209.685 333.466 209.666 328.404C209.648 323.341 205.529 319.252 200.466 319.271ZM198.642 290.55L198.781 328.444L202.219 328.431L202.08 290.538L198.642 290.55Z" fill="#FFCB60"/>
<path d="M200.466 60.8334C195.404 60.852 191.315 64.9711 191.333 70.0336C191.352 75.0962 195.471 79.1852 200.534 79.1666C205.596 79.148 209.685 75.0289 209.667 69.9664C209.648 64.9038 205.529 60.8148 200.466 60.8334ZM200.605 98.7268C195.543 98.7454 191.454 102.865 191.472 107.927C191.491 112.99 195.61 117.079 200.673 117.06C205.735 117.041 209.824 112.922 209.806 107.86C209.787 102.797 205.668 98.7083 200.605 98.7268ZM198.781 70.0063L198.92 107.9L202.358 107.887L202.219 69.9937L198.781 70.0063Z" fill="#FFCB60"/>
<path d="M251.161 132.511C247.706 128.811 247.904 123.01 251.604 119.555C255.304 116.1 261.105 116.298 264.56 119.998C268.016 123.698 267.817 129.498 264.117 132.954C260.417 136.409 254.617 136.211 251.161 132.511ZM282.038 103.676C278.583 99.9755 278.781 94.1749 282.481 90.7195C286.181 87.2641 291.982 87.4623 295.437 91.1624C298.892 94.8624 298.694 100.663 294.994 104.118C291.294 107.574 285.493 107.376 282.038 103.676ZM256.688 124.998L287.564 96.1628L289.911 98.6751L259.034 127.511L256.688 124.998Z" fill="#FFCB60"/>
<path d="M335.397 156.096C337.035 160.886 334.481 166.097 329.69 167.736C324.9 169.374 319.689 166.819 318.05 162.029C316.412 157.239 318.967 152.028 323.757 150.389C328.547 148.751 333.758 151.306 335.397 156.096ZM295.423 169.769C297.062 174.559 294.507 179.771 289.717 181.409C284.927 183.048 279.715 180.493 278.077 175.703C276.438 170.913 278.993 165.701 283.783 164.063C288.573 162.424 293.785 164.979 295.423 169.769ZM327.28 160.689L287.306 174.362L286.194 171.11L326.167 157.436L327.28 160.689Z" fill="#FFCB60"/>
<path d="M121.647 222.346C123.285 227.136 120.731 232.347 115.94 233.986C111.15 235.624 105.939 233.069 104.3 228.279C102.662 223.489 105.217 218.278 110.007 216.639C114.797 215.001 120.008 217.556 121.647 222.346ZM81.6733 236.019C83.3119 240.809 80.757 246.021 75.9669 247.659C71.1768 249.298 65.9653 246.743 64.3268 241.953C62.6883 237.163 65.2431 231.951 70.0332 230.313C74.8234 228.674 80.0348 231.229 81.6733 236.019ZM113.53 226.939L73.5563 240.612L72.4438 237.36L112.417 223.686L113.53 226.939Z" fill="#FFCB60"/>
<path d="M336.022 241.953C337.66 237.163 335.106 231.951 330.315 230.313C325.525 228.674 320.314 231.229 318.675 236.019C317.037 240.809 319.592 246.021 324.382 247.659C329.172 249.298 334.383 246.743 336.022 241.953ZM296.048 228.279C297.687 223.489 295.132 218.278 290.342 216.639C285.552 215.001 280.34 217.556 278.702 222.346C277.063 227.136 279.618 232.347 284.408 233.986C289.198 235.624 294.41 233.07 296.048 228.279ZM327.905 237.36L287.931 223.686L286.819 226.939L326.792 240.612L327.905 237.36Z" fill="#FFCB60"/>
<path d="M73.9219 334.804C77.3933 338.489 83.1947 338.662 86.8797 335.191C90.5648 331.719 90.738 325.918 87.2666 322.233C83.7952 318.548 77.9938 318.375 74.3087 321.846C70.6237 325.317 70.4505 331.119 73.9219 334.804ZM105.608 304.955C109.08 308.64 114.881 308.813 118.566 305.341C122.251 301.87 122.424 296.069 118.953 292.384C115.482 288.699 109.68 288.525 105.995 291.997C102.31 295.468 102.137 301.27 105.608 304.955ZM81.7728 329.769L113.459 299.92L111.102 297.418L79.4157 327.267L81.7728 329.769Z" fill="#003333"/>
<path d="M38.8128 118.038C42.8014 121.156 48.5623 120.45 51.6802 116.462C54.7981 112.473 54.0922 106.712 50.1036 103.594C46.1149 100.477 40.354 101.182 37.2362 105.171C34.1183 109.16 34.8242 114.921 38.8128 118.038ZM78.2919 70.972C82.2805 74.0899 88.0415 73.384 91.1593 69.3954C94.2772 65.4068 93.5713 59.6458 89.5827 56.528C85.5941 53.4101 79.8331 54.116 76.7153 58.1046C73.5974 62.0932 74.3033 67.8541 78.2919 70.972ZM46.0187 111.537C55.3526 91.3175 67.3141 78.9488 84.9969 65.1033L82.8777 62.3967C64.9451 76.4379 52.54 89.2088 42.8977 110.096L46.0187 111.537Z" fill="#003333"/>
<path d="M228.066 20.1714C226.004 24.7948 228.08 30.2149 232.703 32.2775C237.326 34.3402 242.746 32.2644 244.809 27.6411C246.872 23.0177 244.796 17.5976 240.173 15.5349C235.549 13.4722 230.129 15.5481 228.066 20.1714ZM283.822 41.9478C281.759 46.5711 283.835 51.9912 288.459 54.0539C293.082 56.1166 298.502 54.0407 300.565 49.4174C302.627 44.794 300.552 39.3739 295.928 37.3113C291.305 35.2486 285.885 37.3244 283.822 41.9478ZM236.115 25.5945C258.312 29.8324 273.65 33.3914 291.136 47.0375L293.251 44.3276C275.077 30.1444 259.035 26.4709 236.76 22.218L236.115 25.5945Z" fill="#003333"/>
<path d="M380.054 214.047C375.299 212.309 370.036 214.754 368.297 219.508C366.559 224.263 369.004 229.527 373.758 231.265C378.513 233.004 383.777 230.559 385.516 225.804C387.254 221.049 384.809 215.785 380.054 214.047ZM358.96 277.641C354.206 275.902 348.942 278.347 347.203 283.102C345.465 287.857 347.91 293.121 352.665 294.859C357.42 296.598 362.683 294.152 364.422 289.398C366.16 284.643 363.715 279.379 358.96 277.641ZM375.2 222.451C372.516 244.797 366.822 266.86 354.388 285.289L357.237 287.211C370.103 268.143 375.897 245.468 378.613 222.861L375.2 222.451Z" fill="#003333"/>
</svg>
