<svg xmlns="http://www.w3.org/2000/svg" width="300" height="301" fill="none"><rect width="294.872" height="294.872" x="2.564" y="2.564" fill="#fff" stroke="teal" stroke-width="5.128" rx="28.681"/><path fill="teal" d="M90.43 133.674a2.565 2.565 0 0 0-4.959 1.311zm90.86.289 2.289 1.154zm20.877-28.6 2.046 1.546zm1.044 22.105 2.496.589zm-14.246 9.909.3-2.547zm-5.23-4.516-2.005 1.598zm21.714-9.669-1.875-1.75zM171.783 71.6l-1.027-2.35zm-9.365-1.755-1.814 1.813zm-34.285 1.059a2.565 2.565 0 0 0 3.602 3.65zm-41.957 46.92a2.565 2.565 0 0 0 .248-5.122zm38.414 30.607a2.564 2.564 0 0 0-5.079-.704zm5.16 14.498 1.026-2.35zm9.534-2.016 2.546.303.02-.166-.002-.166zm-14.248 20.743 1.621 1.987v-.001zm-.883.619-1.345-2.183zm.464 21.538 1.457-2.11zm-39.233 0 2.042-1.55zM71.198 77.365l-1.808-1.818zm.812-.917-2.042-1.55zm52.607-31.219.486 2.518zm-17.926 29.786-2.257-1.217zm-6.835 4.417-.252-2.552zm-4.075 15.386a2.564 2.564 0 0 0-1.362-4.944zm126.003 22.095-2.54-.351zm-.033 13.686 2.557-.188zm.125.858-2.506.547zm10.065 38.41 1.146 2.294zm-1.685.577-.551-2.504zm-3.889 12.652-2.227 1.271.074.13.09.121zm1.283 9.533 1.097 2.318zm-3.236 3.532-2.46.723zm1.857 2.661 2.326-1.08zm-1.098 5.819-2.061-1.527zm-1.483 1.433 1.585 2.016zm-2.09 5.805h2.565v-.16l-.02-.159zm-.093 8.457-2.532-.403v.001zm-20.44 15.743.725-2.459zM85.472 134.985c2.988 11.3 6.565 18.944 12.714 22.437 6.22 3.533 14.133 2.309 24.17-1.242l-1.711-4.835c-10.011 3.542-15.879 3.917-19.926 1.618-4.118-2.339-7.293-7.958-10.29-19.289zm49.781-5.789c0 7.369 2.412 12.683 6.232 16.086 3.769 3.357 8.61 4.589 13.022 4.42 4.359-.167 8.677-1.719 11.412-4.428 1.393-1.38 2.439-3.135 2.722-5.195.286-2.083-.247-4.202-1.529-6.212l-4.324 2.758c.736 1.153.867 2.064.772 2.757-.098.717-.479 1.485-1.251 2.249-1.597 1.583-4.566 2.815-7.998 2.946-3.38.13-6.835-.827-9.414-3.125-2.528-2.251-4.516-6.059-4.516-12.256zM179 132.808c-.919 1.823-1.84 2.831-2.624 3.377-.749.522-1.482.7-2.236.675-1.673-.057-3.649-1.133-5.564-2.718-1.831-1.516-3.212-3.163-3.697-3.738a8 8 0 0 0-.18-.211 2.7 2.7 0 0 0-.536-.473 5 5 0 0 0-.417-.225 4.6 4.6 0 0 0-1.22-.195c-.604.125-1.669.816-2.052 1.357-.175.418-.296 1.124-.29 1.39.031.416.161.725.177.763.069.173.144.304.155.324q.04.073.065.109c.029.048.06.096.084.132l.194.293c.314.468.935 1.397 1.929 2.957l4.324-2.758a155 155 0 0 0-1.988-3.048l-.168-.252-.011-.017c.003.005.018.028.037.063.004.007.075.129.142.296.014.035.143.342.174.756.006.266-.114.971-.29 1.388-.382.541-1.447 1.232-2.05 1.357-.394.003-1.004-.115-1.218-.195a5 5 0 0 1-.415-.223 2.5 2.5 0 0 1-.284-.22c-.082-.073-.139-.134-.148-.143l-.033-.036.022.026.074.087c.509.604 2.139 2.556 4.35 4.386 2.127 1.761 5.222 3.778 8.662 3.893 1.803.061 3.636-.406 5.34-1.592 1.669-1.163 3.088-2.928 4.271-5.276zm21.122-28.992c-.144.191-.435.576-.608.982-.031.072-.208.469-.218 1.001a2.577 2.577 0 0 0 3.839 2.302c.183-.101.32-.204.391-.259.435-.338.962-.946 1.415-1.523l-4.036-3.164c-.446.569-.638.725-.527.639.031-.024.134-.104.289-.189a2.547 2.547 0 0 1 3.307.8c.422.613.454 1.22.449 1.493-.01.513-.179.882-.194.917-.111.26-.213.355-.016.094zm4.819 2.503a22.5 22.5 0 0 0 2.83-4.718c.846-1.94 1.526-4.386 1.188-6.91-.356-2.659-1.808-5.118-4.671-6.941-2.755-1.754-6.736-2.875-12.199-3.278l-.377 5.114c5.045.373 8.072 1.376 9.822 2.49 1.642 1.046 2.195 2.2 2.342 3.296.165 1.23-.153 2.682-.806 4.179-.641 1.471-1.513 2.772-2.165 3.604zm-4.226 20.56c-.986 4.178-2.951 6.117-4.895 7.078-2.074 1.025-4.497 1.116-6.555.873l-.6 5.093c2.542.3 6.099.276 9.427-1.369 3.459-1.709 6.316-4.995 7.615-10.497zm-14.975 4.384c-.533-.669-1.895-1.941-3.849-1.335-.804.249-1.395.753-1.81 1.222-.42.477-.773 1.048-1.081 1.658l4.579 2.309c.19-.377.314-.535.347-.573.04-.045-.12.16-.515.282a1.8 1.8 0 0 1-1.301-.095 1.3 1.3 0 0 1-.364-.253l-.012-.014-.003-.004-.001-.001zm18.473-24.354a.5.5 0 0 1-.144.122l-2.292-4.587a4.7 4.7 0 0 0-1.655 1.372zm-.144.122c-.073.037.358-.146 1.288.335.832.431 1.703 1.239 2.252 2.382.988 2.053 1.255 6.028-4.035 11.694l3.749 3.5c6.205-6.646 7.107-12.847 4.907-17.418-1.044-2.169-2.722-3.784-4.516-4.712-1.695-.878-3.966-1.354-5.937-.368zm-14.804 27.799c-.391-.046-.802-.243-1.397-.868-.725-.762-1.153-1.475-2.128-2.699l-4.01 3.196c.551.692 1.523 2.093 2.423 3.039 1.031 1.082 2.472 2.185 4.512 2.425zm16.442-6.773c.282-1.196.843-2.287 1.616-3.115l-3.749-3.5c-1.446 1.55-2.394 3.468-2.859 5.437zM194.617 92.5c-.838-5.369-1.821-9.827-3.037-13.41-1.209-3.563-2.707-6.44-4.683-8.48-2.048-2.114-4.524-3.235-7.378-3.369-2.747-.128-5.681.663-8.763 2.009l2.053 4.7c2.736-1.196 4.836-1.663 6.47-1.586 1.525.072 2.777.62 3.935 1.815 1.231 1.27 2.42 3.346 3.51 6.558 1.082 3.19 2.01 7.327 2.826 12.554zm-30.386-24.467c-5.188-5.193-10.783-8.166-17.092-7.732-6.193.425-12.415 4.1-19.006 10.603l3.602 3.65c6.249-6.165 11.368-8.835 15.756-9.137 4.272-.294 8.499 1.624 13.113 6.24zm6.525 1.217c-2.221.97-4.826.482-6.525-1.218l-3.627 3.626c3.205 3.207 8.069 4.098 12.205 2.291zm-84.332 43.452c-5.086-.246-8.927 1.435-11.192 4.603-2.18 3.049-2.539 6.98-1.837 10.592 1.368 7.038 7.284 14.863 16.022 14.863v-5.128c-5.378 0-9.891-5.071-10.988-10.714-.53-2.728-.13-5.084.975-6.63 1.02-1.426 2.988-2.647 6.773-2.464zm33.087 35.025c-.621 4.475-.549 8.118 1.054 11.109 1.623 3.031 4.528 4.859 8.16 6.444l2.051-4.701c-3.362-1.466-4.911-2.71-5.691-4.165-.801-1.494-1.081-3.752-.495-7.983zm9.214 17.553c.932.406 1.303.98 1.471 1.746.201.921.092 2.173-.298 3.621-.38 1.406-.963 2.771-1.468 3.807-.25.511-.474.928-.632 1.213q-.12.214-.183.32l-.044.075-.01.015.001-.001c.001-.001.001-.002 2.188 1.337s2.188 1.337 2.189 1.336l.001-.001.002-.004.007-.012.021-.034.069-.118q.09-.15.238-.416c.197-.353.465-.853.761-1.461.587-1.203 1.316-2.887 1.811-4.72.483-1.792.811-3.971.357-6.051-.488-2.235-1.865-4.234-4.43-5.353zm13.999-20.959c-2.229 1.96-3.857 3.976-4.838 6.738-.946 2.663-1.214 5.813-1.166 9.884l5.128-.059c-.046-3.912.236-6.322.871-8.109.6-1.689 1.586-3.015 3.391-4.602zm-5.987 16.29c-.42 3.541-1.287 6.205-3.165 8.964-1.941 2.85-5.037 5.915-10.157 10.095l3.242 3.972c5.213-4.254 8.783-7.699 11.154-11.181 2.433-3.573 3.523-7.063 4.019-11.245zm-13.929 19.481c-5.89 3.628-8.333 8.594-7.723 13.699.583 4.865 3.872 9.231 8.075 12.133l2.914-4.221c-3.387-2.337-5.539-5.532-5.897-8.521-.328-2.75.791-5.934 5.32-8.723zm.352 25.832c.213.146.555.546.719 1.511.162.953.099 2.231-.284 3.676-.771 2.908-2.689 5.961-5.518 7.767-2.711 1.73-6.494 2.472-11.503.443-5.127-2.077-11.576-7.088-19.148-17.058l-4.084 3.101c7.852 10.34 14.982 16.148 21.307 18.71 6.442 2.61 11.983 1.809 16.187-.873 4.086-2.608 6.673-6.839 7.716-10.776.524-1.977.695-4.012.383-5.849-.309-1.824-1.149-3.69-2.861-4.873zm-35.734-3.661c-14.918-19.642-22.73-46.387-24.611-70.457-.94-12.015-.392-23.261 1.434-32.512 1.844-9.335 4.922-16.295 8.758-20.111l-3.617-3.636c-4.91 4.884-8.254 13.044-10.172 22.754-1.934 9.794-2.484 21.519-1.516 33.905 1.934 24.732 9.96 52.512 25.64 73.158zM74.052 77.999c7.317-9.634 14.351-16.047 22.334-20.616 8.004-4.582 17.112-7.398 28.717-9.636l-.972-5.035c-11.877 2.29-21.6 5.244-30.292 10.22-8.714 4.988-16.242 11.92-23.871 21.965zm51.051-30.252c19.449-3.751 41.537 1.886 59.488 11.16 8.948 4.623 16.761 10.096 22.606 15.628 5.906 5.59 9.559 11.008 10.626 15.473l4.988-1.191c-1.408-5.893-5.902-12.151-12.089-18.006-6.247-5.913-14.471-11.652-23.777-16.46-18.556-9.587-41.844-15.684-62.814-11.64zM73.007 79.183c.352-.35.707-.74 1.045-1.184l-4.084-3.102c-.16.21-.348.421-.578.65zm50.408 100.487a6 6 0 0 1-.607.422l2.689 4.367c.367-.226.772-.499 1.16-.816zm8.775-110.88c-6.715-3.39-12.174-5.164-16.831-4.381-4.936.829-8.209 4.352-10.925 9.39l4.514 2.433c2.431-4.51 4.65-6.327 7.26-6.766 2.889-.485 7.028.548 13.67 3.902zm-32.586 8.09c-4.475.443-7.766 1.959-9.736 5.19-1.797 2.948-2.188 6.904-2.281 11.322l5.127.108c.094-4.469.533-7.12 1.532-8.76.826-1.354 2.294-2.403 5.863-2.757zm4.83-3.082c-.925 1.716-2.735 2.874-4.83 3.082l.505 5.103c3.634-.36 7.032-2.4 8.839-5.751zM94.42 89.874c-6.813 1.876-12.062 4.148-14.68 8.483-2.662 4.407-2.116 10.087.074 17.285l4.906-1.493c-2.15-7.065-2.016-10.779-.59-13.141 1.469-2.433 4.806-4.304 11.651-6.19zm122.684-2.376c1.176 4.47 1.896 10.466 2.224 16.068.329 5.627.247 10.59-.084 12.996l5.08.701c.401-2.911.458-8.273.123-13.996-.336-5.748-1.083-12.128-2.384-17.073zm2.14 29.064c-.68 4.93-.182 12.443-.051 14.226l5.115-.377c-.138-1.873-.578-8.845.016-13.148zm.126 15.442c.979 4.484 2.242 7.927 4.204 11.034 1.948 3.085 4.497 5.695 7.824 8.613l3.381-3.856c-3.187-2.795-5.308-5.024-6.869-7.495-1.548-2.451-2.634-5.284-3.529-9.389zm12.028 19.647.439.382 3.36-3.874-.418-.365zm-.166-.16c2.406 2.526 4.083 4.584 5.131 6.306 1.053 1.731 1.331 2.898 1.285 3.71-.041.73-.367 1.545-1.417 2.564-1.096 1.063-2.845 2.208-5.436 3.502l2.292 4.588c2.762-1.38 5.059-2.803 6.714-4.409 1.701-1.649 2.833-3.604 2.967-5.954.129-2.268-.7-4.49-2.024-6.667-1.329-2.185-3.298-4.552-5.798-7.177zm-1.527 16.449c-2.096.462-3.93 1.058-5.369 1.93-1.503.912-2.673 2.193-3.152 3.958-.454 1.671-.183 3.403.358 5.046.545 1.659 1.455 3.49 2.598 5.493l4.454-2.542c-1.084-1.899-1.795-3.382-2.181-4.554-.39-1.186-.361-1.801-.28-2.099.055-.202.195-.512.863-.917.732-.444 1.93-.892 3.812-1.306zm-5.401 16.678c.596.809 1.454 1.777 2.02 2.464.66.802 1.107 1.428 1.343 1.94.223.483.106.529.153.415.022-.055-.1.322-1.267.875l2.194 4.635c1.722-.815 3.158-1.942 3.823-3.577.69-1.695.302-3.305-.245-4.493-.533-1.158-1.353-2.217-2.042-3.054-.782-.95-1.355-1.575-1.853-2.249zm2.249 5.694c-1.674.792-2.962 1.674-3.78 2.732-.912 1.179-1.199 2.544-.819 3.84l4.921-1.445c.047.162.061.355.021.541-.037.178-.101.246-.066.201.104-.135.56-.592 1.917-1.234zm-2.607 9.591c.293.631.293.971.236 1.25-.077.379-.331.963-1.07 1.961l4.121 3.053c.905-1.222 1.676-2.525 1.974-3.99.318-1.565.045-3.024-.61-4.435zm-1.84 4.154c-1.282 1.008-2.284 2.162-2.8 3.698-.492 1.465-.434 2.974-.25 4.444l5.089-.639c-.157-1.246-.095-1.821.023-2.172.093-.279.307-.67 1.107-1.298zm-3.07 7.822v7.304h5.129v-7.304zm-.061 8.055c-.237 1.487-.424 2.95-.603 4.304-.181 1.373-.354 2.633-.568 3.8-.437 2.387-.993 4.052-1.826 5.169-.729.976-1.813 1.729-3.892 1.958-2.208.243-5.469-.122-10.294-1.545l-1.45 4.919c5.089 1.501 9.111 2.076 12.306 1.723 3.326-.366 5.767-1.745 7.441-3.989 1.569-2.104 2.29-4.748 2.759-7.311.24-1.308.427-2.684.608-4.051.183-1.386.36-2.768.583-4.173zm-17.183 13.686c-5.922-1.747-11.915-.311-17.16 3.091-5.225 3.389-9.829 8.788-13.241 15.316-6.824 13.054-9.14 31.126-1.637 48.153l4.693-2.068c-6.797-15.423-4.707-31.856 1.489-43.709 3.097-5.926 7.156-10.581 11.487-13.389 4.31-2.796 8.763-3.701 12.919-2.475zm17.244-14.437q0 .362-.061.75l5.064.805c.08-.503.126-1.024.126-1.555zm4.076-16.069c-.195.264-.495.542-1.006.943l3.169 4.033c.573-.451 1.332-1.078 1.958-1.923zm-1.158-6.23c.335 1.139 1.07 1.946 1.421 2.339.225.251.341.375.455.518.1.125.12.17.116.162l4.651-2.161c-.428-.92-1.143-1.651-1.4-1.938-.387-.433-.352-.465-.322-.365zm8.841-29.311a4.7 4.7 0 0 1-1.09.367l1.103 5.009a10 10 0 0 0 2.279-.788zm-11.602-36.785q.047.617.177 1.216l5.011-1.093a3.5 3.5 0 0 1-.073-.5z"/><path fill="#FFCB60" stroke="teal" stroke-width="5.128" d="m136.224 97.876 1.426.954 1.426-.954c6.417-4.295 11.345-5.212 14.514-4.536 2.957.632 4.854 2.745 5.332 6.045.979 6.768-4.325 18.721-21.272 28.28-16.948-9.559-22.252-21.512-21.272-28.28.478-3.3 2.374-5.413 5.332-6.045 3.169-.676 8.096.241 14.514 4.535Z"/></svg>