<svg xmlns="http://www.w3.org/2000/svg" width="301" height="300" fill="none"><path fill="#fff" d="M180.098 230.993c-9.514 8.119-19.305 16.404-29.598 25.357-10.292-8.953-20.084-17.294-29.597-25.357-57.916-49.324-96.137-81.911-96.137-124.729 0-17.683 5.898-34.143 16.635-46.266C52.194 47.71 67.271 40.925 83.74 40.925c22.866 0 37.665 14.069 46.065 25.913 7.511 10.621 11.461 21.298 12.796 25.413a8.37 8.37 0 0 0 7.956 5.783 8.37 8.37 0 0 0 7.956-5.783c1.335-4.115 5.285-14.792 12.796-25.413 8.289-11.844 23.088-25.913 45.954-25.913 16.468 0 31.545 6.784 42.338 19.073 10.737 12.179 16.634 28.583 16.634 46.266 0 42.818-38.221 75.405-96.136 124.729"/><path fill="teal" fill-rule="evenodd" d="M272.117 48.932c-14.02-15.904-33.492-24.69-54.855-24.69-29.987 0-49.014 17.906-59.696 32.92a97.6 97.6 0 0 0-7.066 11.511 111 111 0 0 0-7.065-11.51c-10.682-15.015-29.709-32.92-59.696-32.92-21.364 0-40.836 8.786-54.856 24.69C15.476 64.168 8.076 84.521 8.076 106.263c0 23.689 9.235 45.71 29.097 69.344 17.747 21.131 43.284 42.873 72.881 68.064 11.016 9.398 22.421 19.073 34.549 29.694l.39.334c1.557 1.39 3.56 2.058 5.507 2.058 1.948 0 3.95-.668 5.508-2.058l.39-.334c12.128-10.621 23.533-20.296 34.549-29.694 29.597-25.191 55.133-46.933 72.881-68.064 19.861-23.634 29.097-45.655 29.097-69.344 0-21.742-7.4-42.095-20.808-57.332M150.5 256.35c10.293-8.953 20.084-17.238 29.598-25.357 57.915-49.324 96.136-81.911 96.136-124.729 0-17.683-5.897-34.087-16.634-46.266-10.793-12.289-25.87-19.073-42.338-19.073-22.866 0-37.665 14.069-45.954 25.913-7.511 10.621-11.461 21.298-12.796 25.413a8.37 8.37 0 0 1-7.956 5.783 8.37 8.37 0 0 1-7.956-5.783c-1.335-4.115-5.285-14.792-12.796-25.413-8.4-11.844-23.199-25.913-46.065-25.913-16.468 0-31.545 6.784-42.338 19.073-10.737 12.123-16.635 28.583-16.635 46.266 0 42.818 38.221 75.405 96.137 124.729 9.513 8.063 19.305 16.404 29.597 25.357" clip-rule="evenodd"/><path fill="#fff" d="M180.098 230.993c-9.514 8.119-19.305 16.404-29.598 25.357-10.292-8.953-20.084-17.294-29.597-25.357-57.916-49.324-96.137-81.911-96.137-124.729 0-17.683 5.898-34.143 16.635-46.266C52.194 47.71 67.271 40.925 83.74 40.925c22.866 0 37.665 14.069 46.065 25.913 7.511 10.621 11.461 21.298 12.796 25.413a8.37 8.37 0 0 0 7.956 5.783 8.37 8.37 0 0 0 7.956-5.783c1.335-4.115 5.285-14.792 12.796-25.413 8.289-11.844 23.088-25.913 45.954-25.913 16.468 0 31.545 6.784 42.338 19.073 10.737 12.179 16.634 28.583 16.634 46.266 0 42.818-38.221 75.405-96.136 124.729"/><path fill="teal" fill-rule="evenodd" d="M272.117 48.932c-14.02-15.904-33.492-24.69-54.855-24.69-29.987 0-49.014 17.906-59.696 32.92a97.6 97.6 0 0 0-7.066 11.511 111 111 0 0 0-7.065-11.51c-10.682-15.015-29.709-32.92-59.696-32.92-21.364 0-40.836 8.786-54.856 24.69C15.476 64.168 8.076 84.521 8.076 106.263c0 23.689 9.235 45.71 29.097 69.344 17.747 21.131 43.284 42.873 72.881 68.064 11.016 9.398 22.421 19.073 34.549 29.694l.39.334c1.557 1.39 3.56 2.058 5.507 2.058 1.948 0 3.95-.668 5.508-2.058l.39-.334c12.128-10.621 23.533-20.296 34.549-29.694 29.597-25.191 55.133-46.933 72.881-68.064 19.861-23.634 29.097-45.655 29.097-69.344 0-21.742-7.4-42.095-20.808-57.332M150.5 256.35c10.293-8.953 20.084-17.238 29.598-25.357 57.915-49.324 96.136-81.911 96.136-124.729 0-17.683-5.897-34.087-16.634-46.266-10.793-12.289-25.87-19.073-42.338-19.073-22.866 0-37.665 14.069-45.954 25.913-7.511 10.621-11.461 21.298-12.796 25.413a8.37 8.37 0 0 1-7.956 5.783 8.37 8.37 0 0 1-7.956-5.783c-1.335-4.115-5.285-14.792-12.796-25.413-8.4-11.844-23.199-25.913-46.065-25.913-16.468 0-31.545 6.784-42.338 19.073-10.737 12.123-16.635 28.583-16.635 46.266 0 42.818 38.221 75.405 96.137 124.729 9.513 8.063 19.305 16.404 29.597 25.357" clip-rule="evenodd"/><path fill="#fff" d="M178.137 225.626c-8.883 7.581-18.026 15.317-27.636 23.677-9.61-8.36-18.753-16.148-27.636-23.677-54.078-46.056-89.766-76.483-89.766-116.464 0-16.511 5.507-31.88 15.532-43.2 10.078-11.475 24.156-17.81 39.533-17.81 21.35 0 35.168 13.137 43.013 24.197 7.013 9.917 10.701 19.886 11.948 23.729a7.81 7.81 0 0 0 7.428 5.4 7.81 7.81 0 0 0 7.429-5.4c1.246-3.843 4.935-13.812 11.948-23.73 7.74-11.059 21.558-24.195 42.909-24.195 15.376 0 29.454 6.334 39.532 17.81 10.026 11.37 15.532 26.688 15.532 43.199 0 39.981-35.688 70.408-89.766 116.464"/><path fill="#fff" fill-rule="evenodd" d="M264.059 55.63c-13.091-14.85-31.272-23.054-51.22-23.054-28 0-45.766 16.719-55.74 30.738a91 91 0 0 0-6.598 10.748 104 104 0 0 0-6.597-10.748c-9.974-14.019-27.74-30.738-55.74-30.738-19.948 0-38.13 8.204-51.22 23.054-12.52 14.227-19.43 33.23-19.43 53.532 0 22.12 8.624 42.681 27.17 64.749 16.57 19.73 40.415 40.032 68.051 63.554 10.286 8.775 20.935 17.809 32.26 27.727l.363.311c1.455 1.298 3.325 1.921 5.143 1.921s3.688-.623 5.143-1.921l.364-.311c11.324-9.918 21.974-18.952 32.259-27.727 27.636-23.522 51.481-43.824 68.052-63.554 18.545-22.068 27.169-42.629 27.169-64.749 0-20.302-6.909-39.305-19.429-53.532M150.501 249.303c9.61-8.36 18.753-16.096 27.636-23.677 54.078-46.056 89.766-76.483 89.766-116.464 0-16.511-5.506-31.829-15.532-43.2-10.078-11.475-24.156-17.81-39.532-17.81-21.351 0-35.169 13.137-42.909 24.197-7.013 9.917-10.702 19.886-11.948 23.729a7.81 7.81 0 0 1-7.429 5.4 7.81 7.81 0 0 1-7.428-5.4c-1.247-3.843-4.935-13.812-11.948-23.73-7.845-11.059-21.663-24.195-43.013-24.195-15.377 0-29.455 6.334-39.533 17.81C38.605 77.281 33.1 92.65 33.1 109.161c0 39.981 35.688 70.408 89.766 116.464 8.883 7.529 18.026 15.317 27.636 23.677" clip-rule="evenodd"/><path fill="#fff" d="M178.137 225.626c-8.883 7.581-18.026 15.317-27.636 23.677-9.61-8.36-18.753-16.148-27.636-23.677-54.078-46.056-89.766-76.483-89.766-116.464 0-16.511 5.507-31.88 15.532-43.2 10.078-11.475 24.156-17.81 39.533-17.81 21.35 0 35.168 13.137 43.013 24.197 7.013 9.917 10.701 19.886 11.948 23.729a7.81 7.81 0 0 0 7.428 5.4 7.81 7.81 0 0 0 7.429-5.4c1.246-3.843 4.935-13.812 11.948-23.73 7.74-11.059 21.558-24.195 42.909-24.195 15.376 0 29.454 6.334 39.532 17.81 10.026 11.37 15.532 26.688 15.532 43.199 0 39.981-35.688 70.408-89.766 116.464"/><path fill="#fff" fill-rule="evenodd" d="M264.059 55.63c-13.091-14.85-31.272-23.054-51.22-23.054-28 0-45.766 16.719-55.74 30.738a91 91 0 0 0-6.598 10.748 104 104 0 0 0-6.597-10.748c-9.974-14.019-27.74-30.738-55.74-30.738-19.948 0-38.13 8.204-51.22 23.054-12.52 14.227-19.43 33.23-19.43 53.532 0 22.12 8.624 42.681 27.17 64.749 16.57 19.73 40.415 40.032 68.051 63.554 10.286 8.775 20.935 17.809 32.26 27.727l.363.311c1.455 1.298 3.325 1.921 5.143 1.921s3.688-.623 5.143-1.921l.364-.311c11.324-9.918 21.974-18.952 32.259-27.727 27.636-23.522 51.481-43.824 68.052-63.554 18.545-22.068 27.169-42.629 27.169-64.749 0-20.302-6.909-39.305-19.429-53.532M150.501 249.303c9.61-8.36 18.753-16.096 27.636-23.677 54.078-46.056 89.766-76.483 89.766-116.464 0-16.511-5.506-31.829-15.532-43.2-10.078-11.475-24.156-17.81-39.532-17.81-21.351 0-35.169 13.137-42.909 24.197-7.013 9.917-10.702 19.886-11.948 23.729a7.81 7.81 0 0 1-7.429 5.4 7.81 7.81 0 0 1-7.428-5.4c-1.247-3.843-4.935-13.812-11.948-23.73-7.845-11.059-21.663-24.195-43.013-24.195-15.377 0-29.455 6.334-39.533 17.81C38.605 77.281 33.1 92.65 33.1 109.161c0 39.981 35.688 70.408 89.766 116.464 8.883 7.529 18.026 15.317 27.636 23.677" clip-rule="evenodd"/><ellipse cx="92.762" cy="109.862" fill="#FFCB60" rx="8.682" ry="8.75"/><path stroke="#FFCB60" stroke-width="12.761" d="M0-6.38h59.535" transform="matrix(.21146 -.97739 .9767 .21463 84.514 177.676)"/><path stroke="#FFCB60" stroke-width="12.761" d="M0-6.38h59.535" transform="matrix(.21146 .97739 .9767 -.21463 94.932 118.175)"/><path fill="#FFCB60" d="M66.969 128.402a5.72 5.72 0 0 0-1.579 7.893 5.62 5.62 0 0 0 7.837 1.568zm6.258 9.461 20.837-14.001-6.258-9.46-20.837 14z"/><path stroke="#FFCB60" stroke-width="11.343" d="M0-5.671h25.104" transform="matrix(.83005 .55769 .55171 -.83403 94.932 117.737)"/><ellipse cx="8.682" cy="8.75" fill="#FFCB60" rx="8.682" ry="8.75" transform="matrix(-1 0 0 1 216.918 101.112)"/><path stroke="#FFCB60" stroke-width="12.761" d="M0-6.38h59.535" transform="matrix(-.21146 -.97739 -.9767 .21463 216.484 177.676)"/><path stroke="#FFCB60" stroke-width="12.761" d="M0-6.38h59.535" transform="matrix(-.21146 .97739 -.9767 -.21463 206.066 118.175)"/><path fill="#FFCB60" d="M234.029 128.402a5.72 5.72 0 0 1 1.579 7.893 5.62 5.62 0 0 1-7.837 1.568zm-6.258 9.461-20.837-14.001 6.258-9.46 20.837 14z"/><path stroke="#FFCB60" stroke-width="11.343" d="M0-5.671h25.104" transform="matrix(-.83005 .55769 -.55171 -.83403 206.066 117.737)"/><ellipse cx="8.682" cy="8.75" fill="#FFCB60" rx="8.682" ry="8.75" transform="matrix(-1 0 0 1 139.646 101.112)"/><path stroke="#FFCB60" stroke-width="12.761" d="M0-6.38h59.535" transform="matrix(-.21146 -.97739 -.9767 .21463 139.213 177.676)"/><path stroke="#FFCB60" stroke-width="12.761" d="M0-6.38h59.535" transform="matrix(-.21146 .97739 -.9767 -.21463 128.794 118.175)"/><path stroke="#FFCB60" stroke-width="11.343" d="M0-5.671h25.104" transform="matrix(-.83005 -.55769 -.55171 .83403 150.5 137.863)"/><path fill="#FFCB60" d="M135.052 127.198a5.72 5.72 0 0 0 1.578-7.893 5.62 5.62 0 0 0-7.836-1.568zm-6.258-9.461-20.838 14.001 6.258 9.46 20.838-14z"/><ellipse cx="170.036" cy="109.862" fill="#FFCB60" rx="8.682" ry="8.75"/><path stroke="#FFCB60" stroke-width="12.761" d="M0-6.38h59.535" transform="matrix(.21146 -.97739 .9767 .21463 161.787 177.676)"/><path stroke="#FFCB60" stroke-width="12.761" d="M0-6.38h59.535" transform="matrix(.21146 .97739 .9767 -.21463 172.206 118.175)"/><path stroke="#FFCB60" stroke-width="11.343" d="M0-5.671h25.104" transform="matrix(.83005 -.55769 .55171 .83403 150.5 137.863)"/><path stroke="#FFCB60" stroke-width="11.343" d="M0-5.671h25.104" transform="matrix(.83005 .55769 .55171 -.83403 172.206 117.737)"/><path fill="#FFCB60" d="M175.246 213.595c-7.737 6.603-15.7 13.341-24.07 20.622-8.371-7.281-16.334-14.064-24.071-20.622-47.1-40.113-78.183-66.614-78.183-101.436 0-14.381 4.796-27.767 13.528-37.626 8.778-9.994 21.04-15.511 34.432-15.511 18.595 0 30.63 11.441 37.462 21.074 6.109 8.637 9.321 17.32 10.407 20.667a6.8 6.8 0 0 0 6.47 4.703 6.8 6.8 0 0 0 6.47-4.703c1.086-3.347 4.298-12.03 10.406-20.667 6.742-9.633 18.777-21.074 37.372-21.074 13.393 0 25.654 5.517 34.432 15.511 8.732 9.904 13.528 23.245 13.528 37.626 0 34.822-31.083 61.323-78.183 101.436"/><path fill="#FFCB60" fill-rule="evenodd" d="M250.081 65.534c-11.402-12.934-27.237-20.08-44.612-20.08-24.387 0-39.86 14.563-48.547 26.773a79 79 0 0 0-5.746 9.361 90 90 0 0 0-5.747-9.361c-8.687-12.21-24.16-26.772-48.547-26.772-17.374 0-33.21 7.145-44.612 20.079-10.904 12.39-16.921 28.943-16.921 46.625 0 19.265 7.51 37.174 23.663 56.394 14.433 17.185 35.2 34.867 59.271 55.353 8.958 7.643 18.233 15.512 28.097 24.149l.316.272c1.267 1.13 2.896 1.673 4.48 1.673 1.583 0 3.212-.543 4.479-1.673l.317-.272c9.863-8.637 19.138-16.506 28.097-24.149 24.07-20.486 44.837-38.168 59.27-55.353 16.153-19.22 23.664-37.129 23.664-56.394 0-17.682-6.018-34.234-16.922-46.625m-98.905 168.683c8.37-7.281 16.333-14.019 24.07-20.622 47.1-40.113 78.183-66.614 78.183-101.436 0-14.381-4.796-27.722-13.528-37.626-8.778-9.994-21.039-15.511-34.432-15.511-18.595 0-30.63 11.441-37.372 21.074-6.108 8.637-9.32 17.32-10.406 20.667a6.8 6.8 0 0 1-6.47 4.703 6.8 6.8 0 0 1-6.47-4.703c-1.086-3.347-4.298-12.03-10.407-20.667-6.832-9.633-18.867-21.074-37.462-21.074-13.393 0-25.654 5.517-34.432 15.511-8.732 9.859-13.528 23.245-13.528 37.626 0 34.822 31.083 61.323 78.183 101.436 7.737 6.558 15.7 13.341 24.071 20.622" clip-rule="evenodd"/><ellipse cx="92.862" cy="104.205" fill="teal" rx="8.682" ry="8.75"/><path stroke="teal" stroke-width="12.761" d="M0-6.38h59.535" transform="matrix(.21146 -.97739 .9767 .21463 84.613 172.018)"/><path stroke="teal" stroke-width="12.761" d="M0-6.38h59.535" transform="matrix(.21146 .97739 .9767 -.21463 95.031 112.517)"/><path fill="teal" d="M67.068 122.745a5.72 5.72 0 0 0-1.578 7.893 5.623 5.623 0 0 0 7.836 1.567zm6.258 9.46 20.838-14-6.258-9.46-20.838 14z"/><path stroke="teal" stroke-width="11.343" d="M0-5.671h25.104" transform="matrix(.83005 .55769 .55171 -.83403 95.031 112.08)"/><ellipse cx="8.682" cy="8.75" fill="teal" rx="8.682" ry="8.75" transform="matrix(-1 0 0 1 217.018 95.455)"/><path stroke="teal" stroke-width="12.761" d="M0-6.38h59.535" transform="matrix(-.21146 -.97739 -.9767 .21463 216.584 172.018)"/><path stroke="teal" stroke-width="12.761" d="M0-6.38h59.535" transform="matrix(-.21146 .97739 -.9767 -.21463 206.166 112.517)"/><path fill="teal" d="M234.129 122.745a5.72 5.72 0 0 1 1.579 7.893 5.623 5.623 0 0 1-7.837 1.567zm-6.258 9.46-20.838-14 6.258-9.46 20.838 14z"/><path stroke="teal" stroke-width="11.343" d="M0-5.671h25.104" transform="matrix(-.83005 .55769 -.55171 -.83403 206.166 112.08)"/><ellipse cx="8.682" cy="8.75" fill="teal" rx="8.682" ry="8.75" transform="matrix(-1 0 0 1 139.746 95.455)"/><path stroke="teal" stroke-width="12.761" d="M0-6.38h59.535" transform="matrix(-.21146 -.97739 -.9767 .21463 139.312 172.018)"/><path stroke="teal" stroke-width="12.761" d="M0-6.38h59.535" transform="matrix(-.21146 .97739 -.9767 -.21463 128.893 112.517)"/><path stroke="teal" stroke-width="11.343" d="M0-5.671h25.104" transform="matrix(-.83005 -.55769 -.55171 .83403 150.6 132.205)"/><path fill="teal" d="M135.151 121.54a5.72 5.72 0 0 0 1.579-7.893 5.623 5.623 0 0 0-7.837-1.567zm-6.258-9.46-20.837 14 6.258 9.46 20.837-14z"/><ellipse cx="170.134" cy="104.205" fill="teal" rx="8.682" ry="8.75"/><path stroke="teal" stroke-width="12.761" d="M0-6.38h59.535" transform="matrix(.21146 -.97739 .9767 .21463 161.886 172.018)"/><path stroke="teal" stroke-width="12.761" d="M0-6.38h59.535" transform="matrix(.21146 .97739 .9767 -.21463 172.306 112.517)"/><path stroke="teal" stroke-width="11.343" d="M0-5.671h25.104" transform="matrix(.83005 -.55769 .55171 .83403 150.6 132.205)"/><path stroke="teal" stroke-width="11.343" d="M0-5.671h25.104" transform="matrix(.83005 .55769 .55171 -.83403 172.306 112.08)"/></svg>