<svg xmlns="http://www.w3.org/2000/svg" width="178" height="200" fill="none"><circle cx="37.061" cy="14.871" r="14.871" fill="#FFCB60"/><circle cx="88.785" cy="14.871" r="14.871" fill="#FFCB60"/><circle cx="140.94" cy="14.871" r="14.871" fill="#FFCB60"/><path fill="#FFCB60" d="M.207 56.035c0-12.141 9.842-21.983 21.983-21.983h133.62c12.141 0 21.983 9.842 21.983 21.983zM.207 56.035h12.931v58.189a6.466 6.466 0 1 1-12.931 0zM17.018 113.793H35.12v77.155a9.052 9.052 0 0 1-18.103 0zM39 113.793h18.103v77.155a9.052 9.052 0 1 1-18.103 0zM90.724 113.793h18.104v77.155a9.052 9.052 0 0 1-18.104 0zM142.879 113.793h18.104v77.155a9.052 9.052 0 0 1-18.104 0zM69.172 113.793h18.104v77.155a9.052 9.052 0 0 1-18.104 0zM120.896 113.793H139v77.155a9.052 9.052 0 0 1-18.104 0zM164.862 56.035h12.931v58.189a6.465 6.465 0 1 1-12.931 0z"/><path fill="#FFCB60" d="M17.018 56.035h40.086v57.759H17.018zM120.896 56.035h40.086v57.759h-40.086zM89.207 34l32.043 105H57.164z"/><path fill="#FFCB60" d="M77.207 74h-1v3h1zM102.207 74h-1v3h1z"/><path fill="#FFCB60" d="m89.207 102 32-67h-64z"/></svg>