<svg xmlns="http://www.w3.org/2000/svg" width="91" height="91" fill="none"><path fill="#fff" d="M65.324 28.766c.6-.77 1.37-1.285 2.227-1.627 0-.086-.086-.171-.086-.257-.257.085-.428.085-.6-.086-.427-.257-.599-.685-.599-1.199-.086-.513-.086-1.027-.086-1.541l-1.113-1.285c-.085 1.37-.085 2.74-.085 4.11-.086.429-.257.857-.685 1.114-.343.086-.6-.086-.771-.257-.514-.6-.685-1.37-1.028-2.055l-.17.171c-.258 1.114 0 2.484-1.114 3.169-.6 0-.942.856-1.627.6-.77-.43-.942-1.371-1.542-1.97-1.541-.086-1.027 1.627-1.455 2.483-.257.6-.514 1.199-1.114 1.456-1.284.17-2.14-1.114-3.082-1.884a.37.37 0 0 0-.343.342c-.171 1.2-.171 2.655-1.37 3.254-.257 0-.6 0-.856-.171-.428-.428-.428-1.028-.6-1.541h-.085c-.343.942-.685 2.226-1.799 2.654-.6.257-1.541.257-2.14.171-.343.429-.514 1.114-1.2 1.114-.513.085-.941-.428-1.198-.857-.343-.513-.428-1.027-.856-1.541-.257 0-.429.086-.6.171-.343.428-.086.942-.257 1.456-.171.856-.171 1.884-1.113 2.227-.428.085-.77-.086-1.113-.257-.428-.343-.343-.942-.343-1.542.172-2.483.685-4.795.942-7.279 0-.085-.171-.17-.257-.085-.428.428-.942.856-1.541 1.113l-.171.257c-.172 2.826 0 5.566-.514 8.22-.257.514-.6 1.2-1.285 1.114-.428 0-.77-.343-.942-.77-.428-.943-.085-2.056-.085-3.17.085-1.455.257-2.825.171-4.28l-.171-.087-1.2.086c-.77.685-1.284 1.627-1.284 2.655.257.6 1.114.428 1.285 1.113.257 2.055-.428 3.853-1.542 5.48-.256.343-.599.857-1.027.771-.428 0-.77-.428-1.113-.685-.514.086-.771.77-1.285 1.028 0 .514-.6.342-.856.685-.514.428-1.37.77-2.055.514-.857.17-1.37-.686-1.97-1.114l-2.14-1.97c-.172 0-.086.258-.172.343l-.086 3.94a1.9 1.9 0 0 1-.685 1.113c-.342.17-.77.085-1.027-.086 0 .086.085.086.085.171.343.771.942 1.456 1.37 2.227.086 0 .172-.086.343-.086.856.086 1.37 1.113 1.627 1.798.086.172.086.343.171.514.771.6 1.799 1.542 2.57 2.055l.428.343c.256-1.798.77-3.425 1.455-4.881.77-1.627 2.398-3.34 4.282-3.34 1.627-.086 3.083.514 4.196 1.713.342-.086.257-.514.428-.77.514-1.885 1.456-4.026 3.425-4.882 1.713-.77 3.854-.257 5.224 1.028.428 0 .085-.6.257-.771.342-1.113 1.37-1.884 2.14-2.74 1.285-1.285 2.57-2.57 4.025-3.511.6-.257 1.456-.428 2.056 0l.599.77c-.942 1.884-2.911 3.169-4.453 4.539-.171.77.171 1.37.257 2.14.086.087.171.172.343.087.942-.686 1.798-1.542 2.825-1.799.514-.085.857.343 1.114.685.17.6.428 1.285.085 1.884-.77 1.285-2.226 2.398-3.254 3.597.086 1.199.257 2.312.514 3.51 0 .086.171.086.171.086 1.114-1.37 2.227-3.767 4.368-3.254.256 0 .085-.342.085-.428-1.113-3.51-1.284-7.45-1.712-11.218l-.172.086c.343-.514.942-1.113 1.627-1.199.6-.086 1.028.257 1.542.6 1.455 1.54.428 3.767.6 5.651a41 41 0 0 0 1.027 6.594c.342.942.514 2.312 1.712 2.483.428 0 .685-.342.857-.685.428-2.226.17-4.88-.086-7.193-.343-2.569-1.37-4.881-1.627-7.536 0-.685.257-1.455.942-1.798.6-.171 1.37-.343 1.884.171.942.857 1.199 1.97 1.456 3.083.513 2.312.856 4.624.942 7.022.17-.257.342-.685.513-.856-.085-2.826-.342-5.652-1.198-8.221a4.04 4.04 0 0 1 .77-2.997"/><path fill="#fff" d="M41.261 28.68c-.17.514-.085 1.028-.085 1.627.085.257.257.257.428.172.342-.172.428-.429.342-.771-.085-.428-.085-1.028-.685-1.028M29.101 34.76l-1.199 1.456c-.428.257-.257.685-.17 1.113.17.172-.001.514.256.428.428-.428.77-.942 1.284-1.198.343-.172.686.085.942.17l.172-.085c.257-.428.257-1.027.17-1.456-.513.086-1.027-.085-1.455-.428"/><path fill="#fff" d="M21.737 31.763c.856-.171 1.627 0 2.14.685 0 .257.343.428.343.685.6 1.456-.171 2.826-.6 4.196.343.6 1.028 1.027 1.542 1.541l.172-.17c0-2.056-.257-3.94-.429-5.91.6-1.284 1.97-2.397 2.997-3.425.257-.257.685-.342 1.028-.257.257.171.514.343.6.6.599 1.712-1.628 2.226-2.313 3.51-.085.343-.085.686.172.942.514-.342 1.113-.77 1.712-.428.172-.428.257-.942.343-1.284.428-1.37 1.027-2.997 2.483-3.768a1.76 1.76 0 0 1 .942 0c.685-1.37 2.227-1.627 3.425-2.226 1.028-.257 2.313-1.2 3.34-.257.257-.343.514-1.028 1.199-1.028l.343.086c1.027.942 1.198 2.312 1.97 3.425a.184.184 0 0 0 .17-.171c0-1.285 0-2.57.172-3.768.085-.257.257-.6.599-.77a1.09 1.09 0 0 1 1.028 0c1.455 1.284.342 3.339.342 4.966-.086.942 0 1.884.257 2.655.171.257.343.257.6.085.599-1.113.513-2.569.428-3.939-.172-1.284-.428-2.654-.257-3.939.085-.343.342-.685.685-.77.257-.086.6-.086.942 0 .77.856.685 2.226.942 3.339 0 .77.085 1.627.171 2.398l.086-.172c.257-1.97.085-4.024.085-6.08 0-.941 1.114-.856 1.713-1.198.77-.172 1.798-.257 2.483.428.77.685 1.028 1.627.942 2.569-.171 1.027-.942 1.798-1.456 2.654.172.6.6 1.028 1.114 1.456.085.086.17.257.342.171l.086-.428 1.113-7.878c.171-.343.086-.685.514-.942.342 0 .685.171.856.514 1.028 1.541 1.627 3.34 2.57 4.967 0 .085.085 0 .085 0l.171-.257.343-5.823c0 .257 0 .514-.086.77-1.627-.342-3.597-.77-5.395-.342-3.682.856-6.936 2.654-10.361 4.11-1.2.428-2.141-.514-3.083-.942-3.597-2.055-7.193-4.71-11.732-3.682-4.11.77-7.707 3.854-10.19 7.45-1.456 2.483-2.312 5.31-2.312 8.392.428.171.685.77.942 1.199 0 .171.085.343 0 .514-.343 0-.6.171-.857.428.172.77.343 1.798.514 2.483l.086.086c.514.428.514 1.113.428 1.798.171.514.514 1.113.685 1.713v-.6c.257-2.74.343-5.737.086-8.563.428-1.199 1.798-1.37 2.74-1.798"/><path fill="#fff" d="M56.846 23.285c-.171.343-.085.77-.085 1.113.085.257.085.685.514.6.342 0 .513-.428.513-.77-.171-.258-.513-.857-.942-.943M51.537 23.628c-.171.77.257 1.284.343 1.97.257.17.257-.172.428-.258.171-.6.257-1.284-.257-1.798-.171-.086-.343-.086-.514.086M42.717 54.884c.343.171.856.171 1.199-.086l.6-.685c1.284-2.483 1.112-5.737.256-8.392-.514-1.199-1.113-2.997-2.654-3.168-.343.085-.686.171-.857.514-1.113 1.883-1.113 4.452-.942 6.764.343 1.799.685 3.94 2.398 5.053M21.395 34.93l.17 1.714c.086.17 0 .428.258.428.514-.685.6-1.884.085-2.57-.257-.085-.342.258-.514.429M57.189 49.574c-.257.172-.257.428-.343.685-1.541 2.312-3.51 4.368-5.652 6.166 0 0 .086 0 .086-.086 2.483-1.456 5.052-3.51 7.364-5.395-.599-.342-1.027-.856-1.455-1.37"/><path fill="#fff" d="M49.568 56.853c-.77-.343-.856-1.199-1.285-1.799-.514.514-.514 1.37-1.027 1.97-1.028 1.627-2.74 2.57-4.539 2.227-4.71-1.37-5.737-6.508-6.337-10.704-.342-.172-.6.256-.942.342-1.284.428-2.14-.685-3.082-1.199-.6-.171-1.028.428-1.285.857-.77 1.627-.77 3.682-.685 5.566.171 1.712.6 3.34 1.541 4.71.343.428.942.513 1.456.428 1.113-.942.942-2.74 2.484-3.169.599-.086 1.113 0 1.54.428.857.771.772 2.056.43 3.083l3.253 2.226h.6c3.082-1.37 5.823-3.254 8.82-4.88-.257-.086-.6 0-.942-.086"/><mask id="a" width="88" height="88" x="2" y="1" maskUnits="userSpaceOnUse" style="mask-type:luminance"><path fill="#fff" d="M89.387 1.534H2.042V88.88h87.345z"/></mask><g mask="url(#a)"><path fill="#E5007D" d="M79.625 2.048c-1.541-1.2-3.511-.172-4.967.6-4.196 2.996-5.823 8.049-7.022 12.502a3.8 3.8 0 0 1 1.37-.514c.343.085.771.171 1.028.428.685-.685 1.37-1.37 2.312-1.541.6 0 1.028.17 1.2.685.085.342.17.599-.172.856-.6 0-1.028.428-1.456.77l-.171 1.799c.171.342.685 0 .942.171.342.172.6.257.77.6.172 1.198-.257 1.884-.599 2.997-.77 1.541-1.541 3.51-3.34 4.024-.342.086-.6-.256-.77-.428-.086.343-.343.685-.428 1.028-.172.343-.343.514-.771.514.085.171.085.513.171.685 1.541-.6 3.511-.428 4.881.428.343-2.483 1.199-5.052 1.884-7.364 1.199-3.768 2.569-7.536 4.196-11.133a74 74 0 0 0 1.884-4.624c.086-.856-.171-1.884-.942-2.483"/></g><path fill="#E5007D" d="M71.319 44.008c0 .257-.429.343-.258.6-.513 1.627-.599 3.425-2.397 4.11-.428.086-.77.086-1.113-.171-1.028-.685-.857-1.713-1.114-2.74l-.17-6.423c-.258.172-.772 1.2-.857 1.456 0 1.97 0 3.254-.257 5.224-.428 2.14-.77 4.795-3.254 5.48-1.199.343-2.055-.171-2.997-.856-2.398 1.97-5.053 4.11-7.622 5.652-3.254 1.712-6.25 3.767-9.505 5.309h-.6l-3.51-2.398c-.343 1.37-1.285 2.655-2.398 3.511l4.881 2.997c.514.171 1.028.514 1.627.257 2.398-.77 4.453-2.398 6.68-3.682l10.704-6.08 4.281-2.483.857-.343c.513 1.113.856 2.227 1.627 3.169.256.428.513.856.942.684.428 0 .17.429.428.6.085 0 .856 0 .942-.171-.172-.257-.257-.514-.172-.771.172-.257.172-.257.514-.171.77.428.685 1.37 1.199 1.97.685-.343-.086-1.799-.086-2.655.6-.514.942-.771 1.713-.857.6-.085 1.285.428 1.798.086 1.2-2.997-.17-6.08-.942-8.906-.085-.77-.685-1.541-.942-2.398M68.065 17.72c0 1.969.17 4.367.342 6.336.171-.086.77-.514.942-.6.77-.599 1.113-1.712 1.456-2.568.513-1.028-.771-.6-1.114-1.114-.856-.856-.342-2.14-.256-3.168-.257.342-1.028.77-1.37 1.113"/><mask id="b" width="88" height="88" x="2" y="1" maskUnits="userSpaceOnUse" style="mask-type:luminance"><path fill="#fff" d="M89.387 1.534H2.042V88.88h87.345z"/></mask><g mask="url(#b)"><path fill="#E5007D" d="M69.606 33.475c.685-.599 1.284-1.627.856-2.569-.171-.342-.685-.77-1.028-.77-.513 0-1.113.428-1.284.856l1.113 2.569h.343z"/></g><mask id="c" width="88" height="88" x="2" y="1" maskUnits="userSpaceOnUse" style="mask-type:luminance"><path fill="#fff" d="M89.387 1.534H2.042V88.88h87.345z"/></mask><g mask="url(#c)"><path fill="#E5007D" d="M44.515 23.2c3.425-1.37 6.68-3.254 10.362-4.11 1.798-.429 3.682 0 5.395.342.085-.6-.086-1.113.513-1.456 1.37-.342 1.456 1.713 2.227 2.227.171-.857-.171-2.056.428-2.74.343-.429.942-.086 1.37-.172l2.141-1.627c-2.055-1.199-4.538-2.14-6.936-2.57-5.48-.941-9.934 2.056-14.558 3.94l-.6.086c-4.024-2.056-7.706-4.796-12.33-5.31-2.998-.17-6.166.172-8.906 1.2-3.682 1.198-6.594 4.28-9.591 7.107l-.086-.086c-.17-2.997.514-5.737 1.627-8.22.6-1.542 1.542-2.998 2.056-4.54 0-.427-.257-.77-.6-.941-.6-.257-1.028.171-1.456.6-1.455 2.226-2.654 4.538-3.425 6.936-.6 1.712-.856 3.682-1.37 5.48-.171.343-.514.6-.856.428-.685-.428-.771-1.199-.857-1.884.086-4.453 2.055-8.22 4.025-11.903l.086-.77c-.086-.343-.343-.514-.6-.685-.428-.257-.77.17-1.113.428-1.713 2.312-3.083 4.71-4.025 7.364-.685 1.799-1.027 3.768-1.455 5.738-.172.342-.514.513-.857.428-.77-.343-.77-1.285-.856-2.055.257-4.368 2.312-7.964 4.196-11.646l.257-.857c0-.342-.343-.6-.6-.77-.685-.172-1.199.342-1.627.856C3.925 8.214 1.7 12.667 1.956 17.976c.257 5.138 4.11 8.735 5.566 13.359.428 1.97-.257 4.024-.428 5.994l.428.428c.342.172.342.685.428 1.028.086 2.226-.6 4.967-.342 7.193l.77-.685c.6-.514 1.37-1.37 2.227-1.285.171-1.97-.257-4.024.171-5.908.342-1.285.856-2.484 2.226-2.826.257-.086.343.085.429.257.17.342.085.6-.086.942-.6.685-1.199 1.712-1.028 2.74.086.257.6.171.857.257.257.171 0 .257.17.514-.085.77-.77 1.284-1.112 1.97 0 .427 0 1.37.171 1.797.428-.17.942-.685 1.37-.856.6-.342.6.514 1.199.428.514-.6 1.199-1.798 1.456-2.483l-.343-.257c-.257.086-.514 0-.77 0-.429 0-.686 0-.942-.343-.343-1.798.428-2.911 1.198-4.367.428-.6.857-1.456 1.627-1.284q0-4.624 2.313-8.478c2.483-3.596 6.08-6.765 10.19-7.45 4.538-.942 8.135 1.627 11.731 3.682.942.343 1.884 1.285 3.083.857"/></g><path fill="#E5007D" d="M66.266 24.313c-.086-1.799 0-3.768-.086-5.481-.342 0-.942.086-1.199.171.086 1.2-.085 2.484-.17 3.683zM26.533 51.201l-.685-.514c-.857-.599-1.97-1.627-2.74-2.226.428 2.398.77 5.138.428 7.707l3.254 1.798.513.257-.256-1.113c-.857-1.97-.686-3.682-.514-5.909M21.223 46.749l-.085-.257c-.429-.771-1.028-1.37-1.37-2.227-.172-.342-.429-.428-.6-.77-.171-1.028-.856-2.141-1.113-2.912-.171 1.884-1.028 3.597-2.227 4.967-.342.171-.428.085-.856 0s-.856-.6-1.284-.343c-.6.685-1.114 1.884-2.227 1.713-.514-.257-.77-.685-1.113-1.113-.77.942-2.055 1.113-3.083 1.798-.342.171-.342 1.37-.685 1.113.171 1.37.428 2.74.942 3.94.086-.6.257-.857.685-1.285.428-.086.77-.514 1.199-.6 2.483-.342 4.624 1.37 6.251 3.169 0-1.285.343-2.912.514-4.11.171-.771.086-1.542 1.027-1.885.514-.17.6 0 .942.172.429.342.6.856.686 1.284l.085 5.738.343 1.541c.171.171.6.6.856.514.171-.086.514-.343.6-.514l.256-2.055c.086-2.141-.342-4.196-.77-6.166.085-.6.342-1.284 1.027-1.712M17.027 57.795c-.428 1.456-2.398 3.939-1.798 4.538.77.514 1.97.514 2.826.172.77-.257 1.284-1.114 1.541-1.713-.343-.6-2.055-2.14-2.569-2.997M16.256 38.528l1.542.6c-.171-.772-.343-2.142-.6-2.827-.342.514-.942 1.542-.942 2.227"/><mask id="d" width="88" height="88" x="2" y="1" maskUnits="userSpaceOnUse" style="mask-type:luminance"><path fill="#fff" d="M89.387 1.534H2.042V88.88h87.345z"/></mask><g mask="url(#d)"><path fill="#E5007D" d="M11.547 53.684c-.257 0-1.028-.17-1.285.172.343 1.884.6 4.024.428 6.08 0 .17.343.342.428.342 1.285-.685 2.313-2.312 2.227-3.853-.086-1.028-.77-2.227-1.798-2.74"/></g><mask id="e" width="88" height="88" x="2" y="1" maskUnits="userSpaceOnUse" style="mask-type:luminance"><path fill="#fff" d="M89.387 1.534H2.042V88.88h87.345z"/></mask><g mask="url(#e)"><path fill="#033" d="M89.045 40.412c-1.114-1.799-3.511-1.285-5.31-1.028-3.596.942-6.508-1.028-9.59-1.97-.771-.257-1.628-.257-2.313-.599 1.542-2.312 3.34-4.967 2.056-7.878-.6-1.113-1.799-1.799-2.912-2.055-2.14-.429-4.196.256-5.652 1.883-.513.686-1.027 1.713-.513 2.655 1.54 4.624 1.113 9.848 1.37 14.643.257 1.028.342 2.398 1.541 2.826.685.343 1.285-.171 1.798-.6 1.884-2.14 1.799-4.966 1.627-7.792l.086-.085c1.884.428 3.51 1.627 5.31 2.397 3.339 1.37 7.706 2.74 11.217.857.6-.257 1.113-.771 1.37-1.37.428-.6.171-1.285-.085-1.884m-19.61-7.022-.086-.086-1.028-2.312c.172-.514.686-.77 1.114-.77.342 0 .6.256.77.599.514.942 0 2.055-.77 2.569"/></g><path fill="#033" d="M75.942 60.193c-1.113-.172-2.312-.428-3.082-1.37.513-.343.513-.857.685-1.37-.086-.6.085-1.456-.428-1.97-.429-.428-1.028-.428-1.628-.428-.685.171-1.455.514-1.883 1.113.17.77.17 1.541.342 2.312l-.085.086c-.343-.6-.429-1.285-.942-1.799-.172-.085-.343-.17-.6-.085-1.028.685.086 1.541.257 2.312.171.942.428 2.14-.343 2.826-.17.085-.342.085-.513-.086-.257-.77-.172-1.627-.172-2.483-.085-.6.086-1.37-.257-1.884-.428-.257-.77.085-1.113.257-.171.685-.085 1.455-.257 2.226.257 1.199-.171 2.74.857 3.511.428.086.942.086 1.284-.086.857-.256 1.627-1.198 1.799-2.055 0-.085.085-.085.17 0-.085.428-.085.942.343 1.114.257.085.6.17.857.085.428-.514.513-1.199.428-1.884 0-.085.085-.257.257-.257 1.198 1.2 2.825 2.141 4.538 1.542.428-.172.6-.685.514-1.2-.171-.342-.685-.513-1.028-.427m-4.11-2.055a.184.184 0 0 1-.171-.172c.085-.514-.257-.856-.172-1.37.172-.086.429-.171.6-.086.342.514.085 1.2-.257 1.628M27.817 41.354c.257-.343.771-.172.857-.686.513-.257.685-.942 1.284-1.027.428.257.685.685 1.113.685s.771-.514 1.028-.77c1.113-1.542 1.798-3.426 1.541-5.481-.171-.6-1.113-.428-1.284-1.114 0-1.027.514-1.883 1.284-2.654l1.2-.086.17.086c0 1.456-.085 2.911-.17 4.282.085 1.027-.258 2.14.085 3.168.171.342.6.77.942.77.685.086 1.027-.599 1.284-1.113.514-2.654.343-5.48.514-8.22l.171-.257a5.8 5.8 0 0 0 1.542-1.114c.085-.085.257 0 .257.086-.257 2.398-.771 4.796-.942 7.279-.086.514-.086 1.113.342 1.541.343.172.685.343 1.113.257.942-.342.942-1.37 1.114-2.226.17-.428-.086-1.028.257-1.456.17-.086.342-.171.599-.171.342.514.514 1.027.856 1.541.257.343.6.942 1.2.856.599 0 .855-.685 1.198-1.113.6.172 1.541.172 2.14-.171 1.114-.428 1.456-1.627 1.8-2.655h.085c.171.514.085 1.114.6 1.542.256.171.599.257.855.171 1.2-.6 1.2-2.055 1.37-3.254 0-.171.172-.343.343-.343 1.028.771 1.798 2.056 3.083 1.884.6-.342.942-.942 1.113-1.455.514-.857-.086-2.57 1.456-2.484.6.6.77 1.542 1.541 1.97.685.257.942-.6 1.627-.6 1.114-.685.857-2.055 1.114-3.168l.17-.171c.429.685.515 1.455 1.028 2.055.172.257.514.428.771.257.428-.257.6-.685.685-1.114 0-2.568.171-5.223.257-7.706.257-.172.6-.172.856-.172.086 2.227-.085 4.368.172 6.594 0 .428.17.942.6 1.199.256.171.684.085.941 0 .6-.343.6-.942.856-1.456.257.171.6.6 1.028.428 1.97-.77 2.74-2.997 3.51-4.71.258-.942.857-2.397-.085-3.168-.342-.342-.856 0-1.199-.257.086-.514.086-1.113.172-1.627.342-.257.77-.685 1.284-.685.685 0 .428-.942.343-1.284-.257-.429-.685-.6-1.114-.685a3.7 3.7 0 0 0-2.397 1.541h-.086q-.386-.385-1.028-.514c-1.627.514-2.997 1.542-4.281 2.826-.428 0-.77-.171-1.113 0-.857.514-.514 1.713-.6 2.569l-.428.171c-.514-.6-.514-1.456-1.285-2.055-.256-.085-.428-.257-.77-.171-.257 0-.428.342-.514.6l-.343 6.165-.17.257h-.086c-.857-1.627-1.542-3.34-2.57-4.967a.94.94 0 0 0-.856-.514c-.342.171-.342.6-.514.942L54.62 28.08l-.085.429c-.172.17-.257-.086-.343-.172-.514-.428-.856-.856-1.113-1.456.514-.856 1.284-1.626 1.456-2.654.17-.942-.172-1.97-.942-2.57-.685-.599-1.713-.513-2.484-.427-.6.257-1.627.257-1.712 1.199 0 2.055.171 4.11-.086 6.08l-.086.17c-.085-.77-.17-1.626-.17-2.397-.258-1.113-.172-2.483-.943-3.34-.257-.17-.6-.085-.942 0s-.6.514-.685.771c-.171 1.285.086 2.655.257 3.94.086 1.37.171 2.825-.428 3.938-.257.086-.428.086-.6-.085-.256-.771-.256-1.799-.256-2.655-.086-1.627 1.027-3.682-.343-4.967-.343-.17-.685-.085-1.028 0-.342.172-.428.514-.599.771-.171 1.199-.257 2.483-.171 3.768.085.086-.086.171-.172.171-.856-1.027-.941-2.398-1.969-3.425l-.343-.086c-.599-.085-.856.685-1.198 1.028-1.028-.857-2.312 0-3.34.257-1.199.6-2.74.856-3.425 2.226-.257-.085-.771-.085-.942 0-1.456.77-2.056 2.312-2.484 3.768-.171.428-.171.942-.342 1.285-.6-.343-1.2.085-1.713.428-.257-.257-.257-.685-.171-.942.685-1.285 2.826-1.799 2.312-3.511-.086-.257-.343-.428-.6-.6-.342-.085-.77 0-1.027.257-1.028 1.028-2.398 2.141-2.997 3.426.171 1.97.428 3.853.428 5.908l-.171.172c-.514-.514-1.114-.942-1.542-1.542.343-1.284 1.114-2.654.6-4.196 0-.257-.343-.428-.343-.685-.514-.685-1.37-.856-2.14-.685-.943.428-2.313.6-2.655 1.884.257 2.826.257 5.737-.086 8.563.086.6-.085 1.285.343 1.713.342.342.942.514 1.37.257.342-.257.6-.685.685-1.114l.085-3.939c0-.085 0-.342.172-.342l2.14 1.97c.6.428 1.114 1.284 1.97 1.113.685.342 1.541 0 2.055-.428M69.35 16.862c-.086.942-.6 2.226.257 2.997.343.256.685.428 1.113.513.086.771-.342 1.456-.685 2.056l-.685.856c-.257.171-.6.257-.77.428-.257-1.97-.257-4.025-.343-6.08.342-.257.685-.6 1.113-.77m-12.502 6.422c.428.086.685.685.942 1.028 0 .342-.172.77-.514.77-.343.086-.428-.342-.514-.6.086-.427-.086-.855.086-1.198m-5.31.343c.172-.172.343-.172.514-.086.514.514.428 1.199.257 1.798-.171.171-.171.428-.428.257-.086-.6-.514-1.199-.343-1.97M41.263 28.68c.513 0 .599.6.77 1.027 0 .343 0 .685-.342.771-.171 0-.343 0-.428-.171-.086-.6-.172-1.199 0-1.627m-13.36 7.535 1.2-1.455c.428.342.942.514 1.541.428.086.428.086 1.027-.171 1.456l-.171.085c-.257-.085-.6-.342-.942-.171-.514.257-.857.77-1.285 1.199-.342.086-.171-.343-.257-.428-.171-.428-.257-.857.086-1.114m-6.079.857c-.257 0-.171-.257-.257-.428l-.171-1.713c.085-.171.257-.514.514-.428.513.685.428 1.884-.086 2.569"/><path fill="#033" d="M64.296 63.104c-.257-.17-.085-.342-.171-.6.171-.427.6-.427.942-.684.685-.257.514-1.028.77-1.541-.513-.429-1.027.085-1.455.256l-.086-.085c.257-.685.942-.942 1.456-1.456.086-.343.086-.6 0-.942 0-.257-.343-.343-.514-.343-.942.429-1.798 1.028-2.483 1.884-.343-.17-.685-.428-1.113-.257-.857.172-1.2 1.2-1.627 1.799-.6-.514-1.542-.685-2.312-.343-1.37.942-1.713 2.484-1.799 4.025.086 1.627.343 3.425 1.97 4.196.942.257 1.884.086 2.569-.6.342-.428.514-.856.514-1.455 0-.343-.172-.685-.429-.942-.256 0-.428-.086-.599.085-.6.172 0 .942-.343 1.285-.256.257-.599.086-.856.086-.428-.086-.6-.6-.77-.942-.257-1.37-.257-2.998.428-4.11.257-.172.514-.343.77-.172 0 .428.428.77.771 1.028.086.685.171 1.37.428 1.97.257.342.6.77 1.113.599.857.17 1.37-.857 1.713-1.456.171-.086.343.257.428.342 1.028.514 1.713-.685 2.484-1.284.17-.257.085-.514-.086-.685-.428-.856-1.113.342-1.713.342m-2.569.771c-.17.086-.342 0-.428-.171-.085-1.114-.171-2.484.685-3.254.685.085.428.942.6 1.456-.086.77-.257 1.455-.857 1.969M56.76 50.26c.172-.172.086-.515.343-.686 1.2 1.37 2.57 2.483 4.453 2.312 1.199-.171 2.312-1.113 2.826-2.312.343-.856.685-1.798.856-2.74.685-4.453.172-9.077-.685-13.359-.257-1.113-.513-2.226-1.456-3.083-.513-.514-1.284-.342-1.883-.17-.685.342-.942 1.112-.942 1.797.17 2.655 1.284 4.967 1.627 7.536.342 2.312.514 4.967.085 7.193-.17.343-.514.685-.856.685-1.199-.171-1.285-1.541-1.713-2.483a42 42 0 0 1-1.027-6.594c-.171-1.884.856-4.11-.6-5.652-.428-.342-.856-.685-1.541-.599s-1.285.685-1.627 1.199l.171-.086c.428 3.768.6 7.707 1.713 11.218 0 .171.171.428-.086.428-2.14-.6-3.254 1.884-4.367 3.254-.086 0-.171 0-.171-.085-.257-1.114-.514-2.227-.514-3.511 1.028-1.2 2.483-2.227 3.254-3.597.343-.6.086-1.284-.086-1.884-.342-.342-.6-.77-1.113-.685-1.113.257-1.97 1.113-2.826 1.798-.085.086-.257 0-.342-.085-.086-.685-.428-1.37-.257-2.141 1.541-1.37 3.51-2.655 4.453-4.538l-.6-.771c-.6-.428-1.455-.257-2.055 0-1.456.942-2.74 2.226-4.025 3.51-.77.857-1.884 1.628-2.14 2.741-.172.257.17.77-.257.77-1.37-1.198-3.511-1.798-5.224-1.027-1.97.77-2.997 2.997-3.425 4.881-.172.257-.086.685-.428.77-1.114-1.198-2.57-1.797-4.196-1.712-1.97 0-3.511 1.798-4.282 3.34-1.97 3.682-2.312 9.42-.257 13.187.942 2.141 2.997 4.282 5.48 4.282 2.141 0 3.854-1.798 4.71-3.682.428-1.028.771-2.74-.257-3.597-.342-.428-.942-.514-1.54-.428-1.628.428-1.371 2.226-2.484 3.168-.514.086-1.114.086-1.456-.428-.942-1.37-1.456-2.997-1.541-4.71 0-1.883-.086-3.939.685-5.566.256-.428.6-1.027 1.284-.856.942.514 1.798 1.627 3.083 1.199.342 0 .6-.428.942-.343.6 4.196 1.627 9.334 6.337 10.704 1.884.429 3.596-.599 4.538-2.226.428-.6.514-1.456 1.028-1.97.428.6.514 1.456 1.284 1.799.514.171 1.028 0 1.456-.257 2.055-1.37 4.025-3.597 5.652-5.909m-12.245 3.853-.6.685c-.256.257-.855.257-1.198.085-1.713-1.113-2.055-3.168-2.483-5.138-.257-2.312-.172-4.795.942-6.765.256-.256.6-.428.856-.513 1.541.17 2.14 1.97 2.655 3.168.942 2.74 1.113 5.994-.172 8.478M53.593 63.104a.37.37 0 0 0-.343.343c.257 1.198.685 2.654.343 3.939-.172.257-.257.77-.771.77a1.03 1.03 0 0 1-.428-.428c-.257-.942 0-1.97.085-2.997 0-.428.086-.942-.342-1.199-.257-.085-.514.086-.6.257-.342.942-.256 2.055-.342 3.168.171.942.257 2.141 1.284 2.398.428.257 1.028 0 1.456-.171.514-.171.685-.77 1.113-1.113.343-1.456.771-3.426-.342-4.71a2.4 2.4 0 0 0-1.113-.257M49.225 64.817c-.77-.172-1.456 0-1.97.514-.256 1.712-.085 3.51-.17 5.309l.085.342c.257.257.514.514.942.514 1.028.086 1.713-.6 2.398-1.284l.257-.6c.257-.77.6-1.884.17-2.74-.17-1.028-.941-1.713-1.712-2.055m.257 3.51c-.085.686-.428 1.456-1.027 1.799-.257-.257-.086-.685-.086-1.028v-2.74c.257-.086.514-.171.77-.086.6.429.343 1.37.343 2.056M44.001 66.786c-.77.77-1.37 1.627-1.37 2.655-.085.856.857 1.199 1.37 1.627.086.428-.17.856-.428 1.199-.085.085-.342.085-.342-.086-.172-.6-.857-.514-1.2-.77l-.085-2.74c-.257-.343-.171-1.2-.942-.943a.64.64 0 0 0-.6.428c-.17 1.028 0 2.141 0 3.169-.085.513.172 1.113-.17 1.456l-.086-.086-.856-2.912c-.343-.514-.771-1.284-1.542-1.113-.342.171-.514.514-.685.856-.342 1.627-.171 3.426-.514 5.053-.257.342-.428.77-.856.942-.257-.514-.086-1.2-.171-1.799-.172-1.113.342-2.312-.172-3.168a.69.69 0 0 0-.77-.257.88.88 0 0 0-.514.428c-.171 1.627-.171 3.169-.171 4.881-.514.257-.942.6-1.456.857-.343-.172-.086-.428-.086-.685.428-.343 1.028-.6 1.2-1.2.085-.342 0-.77-.343-.856-.429-.256-.685.429-1.114.172.429-.771 1.884-.857 1.456-2.056-.085-.428-.6-.599-.942-.599L30.9 72.438c-.257 1.37 0 2.826 0 4.282-.172.342-.514.085-.771.085-.6-.257.171-.6.171-.942.257-.77.086-1.798-.428-2.397-.514-.429-1.113-.257-1.627-.086-.428.257-1.028.428-.942 1.113.171 1.713-.343 3.34-.6 5.053.258.342.514.856 1.028.77.6-.514.514-1.284.77-1.97.172-.256-.085-.77.258-.941l.685.6c.942.599 2.14.427 3.168.17l1.456-1.284c.428-.343.685.257 1.113.257.685-.171 1.37-.514 1.713-1.2h.6c.77-.427.256-1.37.599-1.969.342 0 .6-.342.856-.17.171.427.257 1.112.856 1.112.257 0 .6-.171.771-.428l.685.171c.257-.085.514-.17.6-.342.17-.343 0-.77.257-1.028.342.257.599.6 1.027.514.77 0 1.541-.428 1.97-1.199.257-.685.514-1.712 0-2.397-.086-.6-.942-.429-.942-1.028.085-.343.171-.77.514-.856.256.257.342.599.685.599.428 0 .342-.514.513-.685 0-.6-.342-.942-.685-1.37-.342-.086-.77-.257-1.199-.086m-15.07 9.163c-.344-.171 0-.6-.172-.856.085-.086.171-.172.257-.086.171.171.171.685-.086.942m9.419-3.425c-.172.085-.172-.086-.172-.172.086-.342 0-.685.172-.942.17.257.428.857 0 1.114M24.991 78.518c-.428-.342-.856 0-1.284 0-.343-.428.256-.685.17-1.113.258-.77.857-.086 1.371-.171.086-.086.086-.172.171-.172 0-.513-.257-1.027-.685-1.37-.257-.257-.685-.171-1.027-.085-.942.685-1.627 1.97-1.37 3.168.256.428.684.77 1.027.856.171.172.514 0 .685.172 0 .342-.257.685-.514.856-.77-1.199-1.627.428-2.397.6-.257 0-.257.428-.514.17-.257-1.113 1.284-.77 1.456-1.712 0-.343-.172-.6-.514-.856-.343-.086-.77.342-1.028 0 .343-.685 1.713-.857 1.456-1.884-.086-.343-.428-.428-.685-.514-.857.257-1.542.77-2.312 1.284.085 1.2.171 2.484.171 3.768l-1.113.942c-.086 0-.257.172-.257 0 .086-1.456-.086-2.911-.171-4.281-.086-.257-.428-.257-.685-.343-.429 0-.686.171-.771.6l.342 4.966c.086.257.343.514.6.6.428.17.856-.086 1.284-.257.343-.514 1.028-.428 1.028-1.114.171-.085.342.257.514.343 1.027.428 1.712-.514 2.483-1.028l.171-.342c.172 0 .428.086.514.171.685.171 1.456 0 1.97-.514.6-.513.856-1.198.856-1.97-.343-.256-.6-.513-.942-.77M17.028 58.224c.6 1.027 1.541 2.226 2.74 2.483 1.199.085 2.483-.343 3.168-1.37l.6-1.542c.685-3.082.513-6.679-.428-9.59-.257-.685-.771-1.713-1.628-1.799-.342 0-.684.172-1.027.428-.77.857-.428 2.056-.171 3.083.6 2.055.77 4.624.428 6.85-.086.172-.257.515-.514.515-.257-.086-.343-.343-.514-.514-.77-1.97-.171-4.367-.428-6.508 0-.942-.342-1.884-1.199-2.312a1.35 1.35 0 0 0-1.456.428c-.941 1.541-.77 3.51-.941 5.395-.6-.6-1.2-1.37-1.884-1.884-1.456-.942-3.511-1.798-5.138-.685-.086 0-.257 0-.343.085-1.113 1.884-.086 4.196.086 6.166l-.086 4.88.343 1.029c.257.428.685.77 1.198.856 2.056.428 3.94-.428 5.395-1.97.942-1.199 1.456-2.483 1.713-3.939-.086 0 0-.085.086-.085m-3.94-.429c-.256.942-1.113 1.884-1.969 2.313-.171 0-.257-.086-.342-.172.085-2.055 0-4.11-.343-5.994.685-.086 1.37.171 1.798.77.857.686 1.2 1.97.857 3.083M10.52 46.063c.256.428.513.942.941 1.113.428.086.77-.085 1.113-.342.6-.428.771-1.285 1.456-1.542.6.343 1.37.857 1.97.429.942-1.2 1.798-2.484 2.14-3.94.172-.856.343-1.969-.342-2.654-.428-.514-1.627-.343-1.284-1.285.256-.685.77-1.541 1.54-1.627.087-.17 0-.342 0-.513-.342-.514-.598-1.37-1.455-1.2-.428 0-.77.429-1.113.771-.685 1.2-1.456 2.484-1.627 3.854 0 .514-.086 1.113.257 1.541.428.514 1.113.343 1.627.257v.172c-.257.684-.343 1.54-.857 1.969-.342 0-.599-.257-.77-.514-.685-.342-1.2.428-1.713.77-.257-.342 0-.855-.085-1.284.256-.856 1.455-1.541 1.113-2.483-.086-.77-.771-.086-1.028-.514-.085-.942.343-1.798 1.113-2.397.086-.514.257-1.2-.17-1.542-1.028-.342-1.714.6-2.313 1.285-1.541 1.97-.856 4.966-.942 7.45l-.086.171c-.942-.086-1.37.77-2.055 1.199-.342-1.884.086-3.768.172-5.566.085-.771.17-1.627-.514-2.141a1.09 1.09 0 0 0-1.028 0c-.428.257-.6.77-.685 1.199-.257 2.14-.257 4.453-.257 6.593.086 1.37 0 3.083 1.456 3.683.514.085.942-.086 1.284-.428.857-.771 1.456-1.713 2.141-2.484"/><mask id="f" width="88" height="88" x="2" y="1" maskUnits="userSpaceOnUse" style="mask-type:luminance"><path fill="#fff" d="M89.387 1.534H2.042V88.88h87.345z"/></mask><g mask="url(#f)"><path stroke="#E5007D" stroke-width=".69" d="M23.45 88.366s27.83-18.411 55.747-22.95"/></g><path fill="#E5007D" d="M24.306 88.28c0 .343-.342.686-.685.686a.675.675 0 0 1-.685-.685c0-.343.343-.685.685-.685.343 0 .685.342.685.685M79.625 65.502c0 .343-.343.685-.686.685a.675.675 0 0 1-.685-.685c0-.343.343-.685.685-.685.343 0 .686.342.686.685"/></svg>