<svg xmlns="http://www.w3.org/2000/svg" width="188" height="61" fill="none"><g clip-path="url(#a)"><path fill="#00ACDD" fill-rule="evenodd" d="M32.81 19.328c.026.176.02.462.114.714.168.485.344.54.845.405.554-.153 1.109-.28 1.679-.423.248.41.24.801.037 1.162-.597 1.067-2.622 2.187-3.956.874-.682-.668-.949-1.547-.815-2.508.176-1.267.187-1.27-1.116-1.107-.248.03-.497.113-.749.145-.276.031-.56.053-.837.038-.425-.02-.807-.163-.921-.63-.117-.485.04-.936.422-1.227a4.2 4.2 0 0 1 1.132-.599c1.186-.412 2.418-.471 3.654-.416 1.98.087 3.953.244 5.78 1.127q.348.161.68.352c.339.191.653.41.5.875-.12.355-.734.7-1.106.64-.761-.12-1.521-.252-2.284-.368a8 8 0 0 0-1.027-.083c-.165-.003-.353.018-.493.098-.491.275-.96.575-1.539.931" clip-rule="evenodd"/><path fill="#ED7D20" d="M43.103 45.333c-.673 1.054-1.215 2.015-1.866 2.907-.853 1.173-1.776 2.051-2.7 3.174-1.292 1.57-3.861 2.782-5.843 3.536-2.084.789-4.272 1.257-6.496 1.155-2.801-.123-5.326-1.004-7.491-2.815-2.263-1.886-4.083-4.097-5.86-6.353-1.402-1.788-2.42-3.79-3.362-5.823-.345-.747-.3-1.329-.433-2.18-.076-.465-.558-1.01-.732-1.473a4.7 4.7 0 0 1-.225-.933c-.083-.552-.07-1.12-.209-1.663-.301-1.208-.785-2.389-.994-3.61-.36-2.13-.092-4.273.272-6.38.33-1.893.44-3.688.809-5.572.456-2.351 1.23-4.606 2.145-6.834.805-1.953 2.172-3.553 3.52-5.147 1.85-2.175 4.496-3.128 7.278-3.727a17 17 0 0 1 3.661-.403c1.971.012 3.934.342 5.775.99 1.563.549 3.17.63 4.589 1.455 1.155.671 2.308 1.152 3.397 1.94.372.275 1.374.45 1.833.513 1.279.177 1.194.401.64-.7-.223-.433-.518-.92-.931-1.172-2.489-1.533-4.922-3.186-7.935-3.763a1.9 1.9 0 0 1-.575-.235c-.378-.225-.718-.513-1.11-.705-.368-.182-.944-.507-1.15-.374-.596.374-.689-.384-1.09-.304-.128.025-.334-.069-.408-.008-.354.299-.618.118-.933-.072-.228-.135-.514-.19-.769-.293-.92-.358-1.864-.165-2.809-.127-1.582.056-3.177.132-4.69.55-2.968.82-5.644 2.224-8.046 4.055-1.79 1.369-3.185 3.06-4.47 4.857-1.925 2.704-3.144 5.674-4 8.8-.775 2.839-1.06 5.723-1.16 8.638-.091 2.457.199 4.88.527 7.315.588 4.317 2.046 8.346 4.208 12.18 1.422 2.53 3.167 4.844 5.153 6.997 1.252 1.352 2.719 2.471 4.259 3.538 3.28 2.263 6.953 3.165 10.936 2.954 3.626-.191 6.83-1.54 9.658-3.637.734-.545 1.756-.522 2.358-1.203.371-.425 1.237-1.618 1.527-2.099.33-.542.663-1.085.95-1.647.416-.79.77-1.354 1.188-2.143.422-.795.945-1.546 1.316-2.358.241-.523.485-1.095.288-1.8"/><path fill="#009D9A" d="M26.622 37.17c-.375-1.31-1.543-4.816-2.05-6.089-1.342-3.391-1.208-3.884-1.888-7.4-.384-2.01-.724-4.033-.906-6.063-.108-1.21.126-2.448.22-3.672.004-.066.127-.126.25-.24l.351.423c.147-.225.268-.436.4-.64.794-1.26 1.988-2.038 3.655-2.264 1.38-.185 2.753-.35 4.159-.227.788.067 1.452.344 2.219.79-.3.26-.515.577-.817.662-.688.19-1.413.29-2.128.376-1.132.134-2.276.236-3.416.346-.5.046-.793.302-1.044.66-.827 1.183-.842 2.46-.569 3.746.346 1.624.775 3.231 1.172 4.844.543 2.202 1.008 4.418 1.653 6.595.93 3.107 2.15 5.297 3.7 8.229l-1.678.87h-2.06z"/><path fill="#183F88" d="M27.845 32.295c-.091-.141-.224-.266-.378-.441zm-.378-.441c-1.153.873-.439 1.737-.239 2.577-.606-.003-1.125.48-1.692.022m-1.523-4.933c-.212.879.019 1.65.624 2.368.1-.889-.014-1.68-.624-2.368m3.092 1.768c.13-.294.283-.547.335-.819.02-.119-.17-.269-.26-.405-.148.092-.398.167-.42.281-.063.335-.127.71.345.943m-1.554.028c.085-.034.164-.07.25-.107l-.751-1.812-.24.07c.438.563.068 1.355.741 1.849m.648-1.381c.785-.61.274-.987.06-1.5-.474.535-.104.938-.06 1.5m-.11-1.966c.073-.048.163-.09.152-.108-.032-.069-.086-.129-.135-.19-.043.03-.126.068-.12.09.017.069.066.133.103.208"/><path fill="#183F88" fill-rule="evenodd" d="M25.536 34.453c.567.457 1.086-.025 1.692-.023-.2-.84-.913-1.704.24-2.576m0 0c.153.175.286.3.377.44zm-.059 1.08c.04 1.228.06 1.292.659 1.76.181-.669-.492-1.155-.659-1.76m-3.396-3.413c.61.687.725 1.478.624 2.367-.605-.718-.836-1.49-.624-2.368m3.092 1.767c-.471-.234-.408-.608-.345-.943.022-.114.272-.189.42-.28.09.135.28.285.26.404-.052.272-.206.525-.335.82m-1.554.028c-.673-.494-.303-1.286-.74-1.849q.119-.034.238-.07.378.906.753 1.812c-.087.037-.166.073-.251.107m.648-1.381c-.044-.562-.414-.965.06-1.5.214.513.725.89-.06 1.5" clip-rule="evenodd"/><path fill="#FFD75F" fill-rule="evenodd" d="M18.842 57.154c.153.016.3.028.447.056l-.01.17c-.144.01-.293.007-.44.007q.004-.119.003-.233" clip-rule="evenodd"/><path fill="#FFD75F" d="M11.967 7.854c-.126-.097-.22-.204-.254-.192-.109.053-.204.147-.303.22.056.064.134.188.175.175.117-.027.22-.109.382-.203"/><path fill="#FFD75F" fill-rule="evenodd" d="m10.447 51.143.916-.462c.495.708.97 1.355 1.39 2.034.077.122-.086.368-.181.725-.798-.867-1.46-1.583-2.115-2.305.006-.003-.01.008-.01.008" clip-rule="evenodd"/><path fill="#FFD75F" fill-rule="evenodd" d="M10.136 49.84c.16.057.47.12.466.166-.014.377-.089.752-.15 1.136-.004.002.011-.01.005-.007q-.149-.66-.296-1.322zm1.83-41.986c-.162.094-.264.176-.381.203-.04.013-.12-.11-.176-.174.1-.074.195-.168.303-.22.035-.013.13.094.255.19" clip-rule="evenodd"/><path fill="#FFD75F" d="M11.236 49.84c-.16-.294-.403-.574-.45-.886-.19-1.19-1.02-1.964-1.81-2.873-.018.171-.057.25-.033.3.51 1.041 1.019 2.086 1.545 3.118.152.293.418.44.776.313.094.443.187.883.28 1.33.634.714 1.274 1.431 2.049 2.298.095-.357.247-.603.173-.725-.405-.68-.866-1.326-1.345-2.034q-.435.23-.877.452c.06-.375.13-.75.144-1.127.003-.047-.293-.109-.452-.165"/><path fill="#FFD75F" d="m21.848 58.276.026-.027c-.22.285-.46.357-.8.145-.634-.396-1.255-.833-1.938-1.125-.824-.352-1.435-.921-2.04-1.52a97 97 0 0 0-2.434-2.319c-.122-.112-.49-.184-.537-.122a1 1 0 0 0-.184.616c.01.138.176.28.292.395.437.433.874.864 1.327 1.277.545.501 1.073 1.032 1.676 1.465.67.484 1.556.658 2.099 1.35.096.117.293.166.446.244a14.5 14.5 0 0 0 4.316 1.34c.762.108 1.112-.056 1.54-.675.148-.216.43-.403.693-.481.904-.275 1.819-.5 2.735-.74-.006-.069-.012-.133-.015-.204-.588-.153-1.03-.66-1.769-.485-.993.243-2.005.089-2.974-.129-1.969-.444-3.853-1.059-5.41-2.413-1.054-.917-2.164-1.77-3.057-2.852-.53-.653-1.096-1.28-1.613-1.947a360 360 0 0 1-3.592-4.767c-.157-.209-.195-.5-.303-.745a75 75 0 0 0-.987-2.199c-.13-.28-.333-.507-.665-.354.156.722.296 1.394.445 2.064.025.09.11.162.156.248.542.95 1.167 1.87 1.587 2.865.34.802.82 1.455 1.423 2.053.149.146.305.276.44.43 1.39 1.571 2.741 3.175 4.17 4.713a15.5 15.5 0 0 0 3.585 2.862c.496.29.91.69 1.362 1.037M5.755 30.602q.105-.008.208-.023c.112-1.093.195-2.19.332-3.278.11-.86.708-1.776.878-2.63.326-1.594.238-3.125.57-4.721.021-.12.033-.314-.04-.367-.591-.454-.253-1.025-.132-1.487.331-1.253.763-2.485 1.175-3.72.128-.388.102-.82.531-1.118.26-.18.37-1.123.297-1.48-.19.357-.317.66-.497.931-.657.96-1.006 2.026-1.324 3.128-.284.968-.382 2.022-1.067 2.884-.25.316-.434.815-.373 1.188.109.703-.043 1.27-.4 1.866-.182.3-.22.691-.275 1.052a70 70 0 0 0-.298 2.388c-.062.553-.105 1.107-.149 1.662q.065.014.129.031.18-.255.351-.515c-.013 1.477-.175 2.85.084 4.209m1.79 11.576-.72-1.696q-.33-.78-.648-1.565c-.027 1.143.276 2.186.725 3.195.019.056.239.027.644.066m.141-1.066c.365-.05.573-.077.789-.105-.233-.748-.444-1.42-.692-2.223-.624.871.418 1.532-.097 2.328m-2.555-5.879q.146-.012.292-.02l-.135-1.197-.218.02c.019.4.04.796.06 1.197m2.311 1.254q-.181-.063-.363-.128c-.096.235-.187.466-.284.702.123.038.337.124.347.108.118-.22.203-.45.3-.682m-1.457-4.393c.059-.155.129-.267.129-.378 0-.06-.125-.117-.193-.178-.067.119-.151.234-.187.363-.01.029.128.1.25.193m2.543 13.252c-.002.05-.002.1-.008.153q.232.005.462.016l.009-.142z"/><path fill="#FFD75F" fill-rule="evenodd" d="M21.848 58.276c-.451-.348-.866-.748-1.362-1.037a15.5 15.5 0 0 1-3.585-2.862c-1.429-1.538-2.78-3.142-4.17-4.714-.135-.153-.291-.283-.44-.429-.602-.598-1.083-1.252-1.423-2.053-.42-.995-1.045-1.916-1.587-2.865-.046-.086-.13-.158-.156-.248-.149-.67-.289-1.342-.445-2.064.332-.153.536.074.665.354.344.726.666 1.463.987 2.199.108.245.146.536.303.745a361 361 0 0 0 3.592 4.767c.517.667 1.082 1.294 1.613 1.947.893 1.081 2.003 1.935 3.057 2.852 1.557 1.354 3.441 1.969 5.41 2.413.969.218 1.981.372 2.974.129.74-.175 1.181.332 1.77.485.003.07.008.135.014.205-.917.24-1.83.464-2.735.739-.263.078-.545.265-.693.481-.428.619-.778.783-1.54.675a14.5 14.5 0 0 1-4.316-1.34c-.153-.078-.35-.127-.446-.245-.543-.69-1.429-.865-2.099-1.349-.603-.433-1.131-.964-1.676-1.466-.453-.412-.89-.843-1.327-1.276-.116-.116-.282-.258-.292-.396a1 1 0 0 1 .184-.615c.047-.062.415.01.537.122a97 97 0 0 1 2.433 2.318c.606.6 1.217 1.17 2.04 1.52.684.293 1.305.73 1.939 1.126.34.211.58.14.8-.145.163.315.384.481.803.31-.233-.38-.53-.344-.83-.283m2.572.537c-.008-.046-.025-.096-.035-.139h-1.076v.14zM5.755 30.603c-.259-1.358-.097-2.732-.084-4.209q-.171.261-.351.515-.064-.016-.129-.03c.045-.556.088-1.11.15-1.663.088-.795.18-1.595.297-2.388.055-.361.094-.752.276-1.052.357-.596.508-1.163.4-1.866-.062-.373.123-.872.372-1.188.686-.863.783-1.916 1.067-2.884.318-1.103.667-2.167 1.324-3.128.18-.27.308-.574.497-.93.073.356-.037 1.3-.297 1.479-.43.299-.402.73-.531 1.119-.412 1.234-.844 2.467-1.175 3.72-.12.46-.459 1.032.132 1.486.074.053.061.247.04.367-.331 1.596-.244 3.127-.57 4.722-.17.852-.768 1.77-.878 2.629-.137 1.088-.22 2.185-.331 3.278q-.102.015-.21.023m5.507 19.21c-.355.128-.622-.02-.774-.313-.526-1.032-1.035-2.077-1.545-3.118-.023-.05.016-.129.033-.298.79.907 1.621 1.682 1.81 2.871.048.312.291.592.45.887zm-3.716-7.634c-.405-.039-.625-.01-.644-.065-.45-1.01-.752-2.053-.725-3.196q.318.785.647 1.565zm.14-1.066c.515-.796-.527-1.457.097-2.328.248.803.459 1.475.692 2.223zm-2.555-5.879q-.032-.6-.061-1.197.109-.008.218-.02l.135 1.197q-.146.008-.292.02m2.311 1.254c-.097.232-.182.462-.3.682-.01.016-.224-.07-.347-.108.097-.236.188-.467.284-.702q.18.065.363.128m-1.457-4.393c-.123-.092-.262-.164-.25-.193.035-.129.119-.244.186-.363.068.06.193.119.193.178 0 .111-.07.223-.13.378m2.543 13.252.463.027-.01.143q-.228-.012-.461-.017c.006-.053.006-.103.008-.153" clip-rule="evenodd"/><path fill="#183F88" fill-rule="evenodd" d="M26.088 27.97c-.036-.076-.085-.14-.103-.21-.005-.021.078-.059.12-.09.05.062.103.122.136.19.01.018-.08.06-.153.11m1.321 4.964c.166.605.84 1.091.658 1.76-.6-.468-.619-.532-.658-1.76" clip-rule="evenodd"/><path fill="#009D9A" d="M28.31 41.302c-.063.449-.23.818-.851.782-.738-.043-1.487.048-2.2-.359-.112-.067-.278-.153-.38-.128-.912.212-4.103-1.204-5.01-1.25-.553-.028-1.103-.03-1.646-.046q.34.493.69.978c.113.158.211.388.366.448.616.236 3.025 1.697 3.219 2.19.194.491.666.567 1.066.936.57.522 1.34.8 2.052 1.106 1.174.506 2.138 1.24 3.112 1.99q.201.162.42.3c.544.353 1.092.699 1.606 1.026q.302-.295.608-.586c.147-.148.382-.261.44-.44.201-.592.043-.52.201-1.127.078-.289.184-.512.342-.751.578-.872.551-1.99.476-3.002l-1.63-3.364z"/><path fill="#183F88" d="M55.548 16.393a.57.57 0 0 0-.449.208.593.593 0 0 0 .093.818c.835.665 2.164 1.461 3.755 1.474 1.002 0 1.952-.292 2.68-.823.776-.558 1.222-1.355 1.222-2.19 0-.426-.119-.843-.331-1.173-.293-.477-.746-.853-1.434-1.19-.532-.252-1.183-.45-2.045-.62-.875-.156-1.573-.406-2.002-.7q-.328-.233-.464-.451a.95.95 0 0 1-.136-.531c0-.288.115-.716.656-1.12.476-.352 1.14-.554 1.822-.554.972 0 1.73.453 2.553 1.001.261.175.632.092.794-.168a.54.54 0 0 0 .093-.41.59.59 0 0 0-.25-.386c-.77-.502-1.81-1.176-3.19-1.176-.933 0-1.822.269-2.506.76-.713.529-1.127 1.278-1.127 2.053 0 .408.11.799.317 1.133.286.454.734.827 1.328 1.107.505.24 1.112.425 1.905.576.95.172 1.715.435 2.177.741.24.162.404.328.522.523.115.187.165.364.165.585 0 .326-.126.808-.736 1.257-.517.38-1.25.599-2.014.599-1.16 0-2.345-.653-3.026-1.212a.6.6 0 0 0-.372-.131M70.13 8.402a4.85 4.85 0 0 0-3.561 1.552 5.37 5.37 0 0 0-1.452 3.702c0 1.4.512 2.71 1.448 3.692a4.9 4.9 0 0 0 3.565 1.56c1.287 0 2.586-.582 3.475-1.557a5.32 5.32 0 0 0 1.473-3.695 5.4 5.4 0 0 0-1.472-3.699 4.67 4.67 0 0 0-3.476-1.555m0 9.185c-.986 0-1.91-.411-2.601-1.158-.69-.7-1.085-1.713-1.085-2.773 0-1.058.394-2.077 1.085-2.798a3.52 3.52 0 0 1 2.6-1.136c.953 0 1.859.403 2.543 1.139a4.14 4.14 0 0 1 1.088 2.795c0 1.039-.396 2.05-1.088 2.776-.696.745-1.601 1.155-2.542 1.155m8.726-8.886a.63.63 0 0 0-.626.631v8.944c0 .355.274.633.626.633h4.962a.646.646 0 0 0 .629-.633c0-.343-.292-.644-.63-.644h-4.313v-8.3a.65.65 0 0 0-.648-.631m8.889 0a.62.62 0 0 0-.636.631v8.944a.62.62 0 0 0 .636.633c.354 0 .64-.283.64-.633V9.332a.636.636 0 0 0-.64-.631m4.848 0c-.358 0-.63.27-.63.631v8.944c0 .355.278.633.63.633h1.791c2.805 0 5.089-2.298 5.089-5.12A5.095 5.095 0 0 0 94.385 8.7zm.852 8.93h-.204V9.979h1.143c2.1 0 3.808 1.71 3.808 3.81a3.805 3.805 0 0 1-3.808 3.844zm9.984-1.222h4.3l.799 2.098a.6.6 0 0 0 .577.402.6.6 0 0 0 .213-.032.655.655 0 0 0 .384-.836l-3.518-8.923a.64.64 0 0 0-.583-.405h-.059a.65.65 0 0 0-.585.407l-3.52 8.929a.656.656 0 0 0 .382.826.68.68 0 0 0 .581-.077.65.65 0 0 0 .241-.295zm3.838-1.264h-3.386l1.689-4.36zm5.675-6.444c-.377 0-.647.27-.647.631v8.944c0 .355.276.633.631.633a.64.64 0 0 0 .645-.633v-3.492h1.991c.17.031.607.161.965.397.249.17.426.342.516.512.122.189.192.426.212.737 0 .783.092 1.319.295 1.747.102.182.252.344.415.447a.9.9 0 0 0 .482.131c.131 0 .228-.021.287-.035a.627.627 0 0 0 .245-1.042.6.6 0 0 0-.245-.146l-.114-.034-.024-.118a4 4 0 0 1-.067-.946c0-.692-.25-1.205-.464-1.515a2 2 0 0 0-.487-.51l-.206-.154.197-.165c.721-.598 1.116-1.426 1.116-2.333a3.057 3.057 0 0 0-3.048-3.057zm2.695 4.81h-2.066V9.977h2.066c.978 0 1.774.798 1.774 1.78 0 .966-.796 1.752-1.774 1.752m7.077-4.81a.616.616 0 0 0-.628.631v8.944c0 .361.27.633.628.633a.64.64 0 0 0 .649-.633V9.332a.64.64 0 0 0-.649-.631m4.036 0c-.36 0-.63.27-.63.631 0 .357.282.646.63.646h2.598v8.298a.634.634 0 0 0 .632.633c.36 0 .632-.272.632-.633V9.978h2.612a.65.65 0 0 0 .634-.646.625.625 0 0 0-.634-.631zm10.688 10.208h4.745a.646.646 0 0 0 .628-.633c0-.343-.292-.644-.628-.644h-4.313v-3.194h3.737a.64.64 0 0 0 .628-.65.645.645 0 0 0-.628-.63h-3.737v-3.18h4.313c.336 0 .628-.301.628-.646a.64.64 0 0 0-.628-.631h-4.915c-.403 0-.673.27-.673.631v8.944c0 .326.234.586.544.627zm4.311-14.213c-.164 0-.196.043-.335.27l-.047.075-1.031 1.555a.5.5 0 0 0-.088.22c0 .064.112.114.253.114.364 0 .609-.054.934-.354l1.177-1.178q.2-.18.199-.313c-.038-.114-.602-.39-1.062-.39m3.9 11.697a.58.58 0 0 0-.45.208c-.184.248-.145.625.089.818.837.665 2.167 1.461 3.759 1.474 1.006 0 1.961-.292 2.686-.823.773-.558 1.218-1.356 1.218-2.19 0-.424-.117-.84-.33-1.174-.292-.476-.747-.852-1.434-1.19-.522-.248-1.19-.45-2.042-.62-.879-.155-1.578-.406-2.002-.7a1.6 1.6 0 0 1-.465-.45.94.94 0 0 1-.14-.531c0-.289.115-.718.659-1.121.475-.351 1.138-.553 1.819-.553.973 0 1.732.453 2.551 1.001a.575.575 0 0 0 .791-.166.54.54 0 0 0 .096-.411.6.6 0 0 0-.25-.39c-.781-.506-1.812-1.174-3.188-1.174-.93 0-1.819.27-2.501.76-.72.528-1.133 1.277-1.133 2.053 0 .403.112.795.319 1.134.284.453.729.825 1.325 1.107.494.235 1.12.425 1.902.576.953.172 1.716.434 2.188.74.237.163.404.335.515.526.115.19.166.366.166.583 0 .327-.128.81-.733 1.257-.518.38-1.256.599-2.021.599-1.144 0-2.305-.626-3.021-1.212a.6.6 0 0 0-.373-.131M56.737 27.407l5.551 7.204c.028.038.04.05.053.063.14.163.318.248.488.248.344 0 .63-.289.63-.629v-8.806a.64.64 0 0 0-.63-.618.62.62 0 0 0-.616.618v6.842l-5.593-7.251c-.197-.271-.595-.33-.883-.139a.63.63 0 0 0-.244.522l.003 8.832c0 .353.278.63.633.63.329 0 .608-.29.608-.63zm14.55-2.994a4.84 4.84 0 0 0-3.562 1.56 5.35 5.35 0 0 0-1.453 3.698c0 1.407.515 2.721 1.45 3.695a4.9 4.9 0 0 0 3.565 1.556c1.29 0 2.589-.58 3.474-1.553a5.32 5.32 0 0 0 1.474-3.698c0-1.37-.521-2.683-1.472-3.696a4.73 4.73 0 0 0-3.476-1.562m0 9.19c-.981 0-1.907-.411-2.605-1.156-.69-.702-1.088-1.716-1.088-2.777 0-1.058.396-2.077 1.09-2.794a3.48 3.48 0 0 1 2.603-1.14c.953 0 1.854.404 2.542 1.143a4.12 4.12 0 0 1 1.086 2.791c0 1.04-.396 2.052-1.087 2.778-.697.744-1.6 1.155-2.541 1.155M79.595 24.718a.625.625 0 0 0-.638.63v5.396a4.183 4.183 0 0 0 4.181 4.178 4.18 4.18 0 0 0 4.177-4.178v-5.397a.62.62 0 0 0-.63-.63.633.633 0 0 0-.647.63v5.397c0 1.603-1.3 2.907-2.9 2.907a2.91 2.91 0 0 1-2.903-2.907v-5.397a.635.635 0 0 0-.64-.63M94.562 34.91l.043.009a1 1 0 0 0 .075.003c.039 0 .072 0 .102-.008l.058-.008.054-.016.015-.012.045-.005c.042-.03.066-.05.096-.063q.018-.015.04-.03c.046-.063.075-.09.094-.112l.065-.109 3.75-8.864a.63.63 0 0 0-.008-.483.6.6 0 0 0-.333-.325.62.62 0 0 0-.827.328L94.68 32.68l-3.14-7.465c-.132-.309-.502-.466-.804-.332a.62.62 0 0 0-.358.34.6.6 0 0 0 .002.468l3.707 8.829.03.04h.033l.048.136.057.068c.016.009.026.019.039.028l.023.01c.03.017.064.04.093.062h.14300000000000002zM102.703 34.922h4.747c.334 0 .63-.293.63-.628a.645.645 0 0 0-.63-.643h-4.314v-3.198h3.736c.346 0 .633-.29.633-.647a.65.65 0 0 0-.633-.632h-3.736v-3.18h4.314c.342 0 .63-.296.63-.647a.64.64 0 0 0-.63-.63h-4.959a.624.624 0 0 0-.632.63v8.946a.635.635 0 0 0 .55.624zM111.814 24.718a.62.62 0 0 0-.447.183.64.64 0 0 0-.185.446v8.947c0 .352.277.628.632.628h4.962a.644.644 0 0 0 .625-.628c0-.343-.293-.643-.625-.643h-4.317v-8.304a.646.646 0 0 0-.645-.63M120.351 24.718a.63.63 0 0 0-.636.63v8.946a.63.63 0 0 0 .636.628h4.954a.645.645 0 0 0 .631-.628.646.646 0 0 0-.631-.643h-4.309v-8.304a.647.647 0 0 0-.645-.63M129.094 34.922h4.749a.645.645 0 0 0 .626-.628.643.643 0 0 0-.626-.643h-4.316v-3.198h3.735a.64.64 0 0 0 0-1.279h-3.735v-3.18h4.316a.645.645 0 0 0 .626-.647.636.636 0 0 0-.626-.63h-4.96a.615.615 0 0 0-.633.63v8.946a.62.62 0 0 0 .528.621zM137.307 32.408a.57.57 0 0 0-.446.208.603.603 0 0 0 .091.823c.839.662 2.17 1.455 3.754 1.467 1.011 0 1.962-.292 2.683-.82.775-.56 1.22-1.357 1.22-2.188 0-.421-.119-.84-.334-1.18-.295-.473-.763-.859-1.434-1.185-.531-.252-1.199-.456-2.041-.622-.857-.146-1.573-.401-1.997-.696-.22-.15-.38-.306-.47-.452a.95.95 0 0 1-.135-.533c0-.29.114-.72.658-1.119.476-.353 1.138-.556 1.817-.556.971 0 1.729.454 2.556 1.003a.574.574 0 0 0 .793-.168.58.58 0 0 0-.158-.799l-.043-.027c-.752-.486-1.784-1.15-3.148-1.15-.93 0-1.822.273-2.504.766-.716.533-1.126 1.281-1.126 2.05 0 .407.108.798.317 1.135.285.453.726.826 1.321 1.105.507.238 1.132.426 1.906.577.942.168 1.705.43 2.183.74.236.155.396.32.519.52.117.204.165.374.165.59 0 .328-.127.81-.737 1.256-.512.38-1.246.6-2.013.6-1.144.002-2.308-.627-3.022-1.213a.6.6 0 0 0-.375-.132M53.913 56.523q.023.008.045.013c.076.023.155.045.226.089.105.054.188.135.257.2a1 1 0 0 0 .078.072c.882-.02 1.336-1.327 1.462-2.102.136-.828.276-1.773.416-2.733.511-3.443.871-5.741 1.205-6.287.34-.567 1.282-.567 2.039-.567.61 0 .833.174.98.363h.292c.179 0 .6-.445.6-.689 0-.226-.186-1.026-.782-1.026a7 7 0 0 0-.472.124c-.353.1-.491.135-.575.135-.105 0-.168-.014-.215-.023a.2.2 0 0 0-.057-.009c-.045.002-.202.053-.31.087-.218.07-.36.111-.46.111-.203 0-.526-.116-.526-.431 0-.67.575-2.044 1.14-3.3.41-.88 1.081-1.499 2.05-1.893l.115-.046.093.078c.132.111.215.241.274.339.456-.143.681-.706.681-1.015 0-.402-.355-1.01-.888-1.01-1.844 0-2.91 1.825-3.476 3.358-.382 1.019-.496 1.628-.621 2.273-.083.44-.17.897-.346 1.486-.092.34-1.395.436-1.407.436-.077 0-.218-.017-.361-.033-.111-.014-.224-.03-.282-.03-.295 0-.975.06-.975.602 0 .427.304.643.902.643.066 0 .292-.028.473-.052.251-.032.408-.052.484-.052.133 0 .296.038.51.117l.131.05v.366c0 .705-.924 4.444-1.727 7.622l-.163.65-.07.043c-.343.222-.532.343-.748.53-.174.214-.322.574-.322.833.013.098.23.497.312.647zM66.05 43.568c-1.012 0-1.955.978-3.668 2.754q-.495.511-.991 1.02c-.239.236-1.52 2.472-1.52 2.89 0 .753.937.918 1.298.918.836 0 2.177-1.192 3.781-3.356l.228-.313.125.368c.163.479.258.732.791 1.709.174.323 1.008.878 1.2.88h.528c.344-.04 2.512-.993 2.512-1.558 0-.104-.094-.43-.235-.43a.23.23 0 0 0-.109.032c-.103.052-.194.112-.291.175-.33.219-.742.488-1.417.488-.967 0-1.569-.692-1.569-1.808 0-.16.11-.597.29-1.295.122-.468.286-1.109.286-1.237 0-.654-.69-1.237-1.238-1.237m-4.324 5.969.05-.402c.18-1.045 2.17-3.501 3.03-3.501h.205v.278c0 .396-.354.956-1.262 1.996-.887 1.017-1.227 1.2-1.658 1.43z"/><path fill="#183F88" d="M73.451 43.247c-.8 0-2.142 1.443-2.382 2.35-.062.232-.204.445-.33.633-.08.118-.163.24-.183.316-.264.866-.542 2.076-.542 2.87 0 .724.37 1.57 1.403 1.57.862 0 2.458-.465 3.637-1.24.738-.493.89-.785.89-1.075a1 1 0 0 0-.018-.14c-1.571.869-2.86 1.296-3.903 1.296-.521 0-.836-.365-.836-.973 0-2.11 1.34-3.112 2.318-3.844.472-.353.88-.658.88-.93 0-.57-.558-.833-.934-.833M78.419 45.054c-.243.82-.846.91-1.288.977-.486.073-.748.113-.748.807 0 .256.105.412.22.579.098.145.203.297.203.498 0 .245-.066.435-.129.619-.066.195-.129.379-.129.65 0 .635.369 2.027 1.462 2.028.374-.037 2.843-1.523 2.843-2.161-.014-.116-.251-.457-.36-.483-.168 0-.47.227-.762.446-.414.312-.886.665-1.353.665-.314 0-.566-.323-.566-.721 0-.303.336-1.097.628-1.142.845-.15 3.344-2.188 3.344-3.297 0-.718-.666-1.042-1.285-1.042-.223.033-1.356.94-2.08 1.577M93.06 43.568c-1.013 0-1.956.977-3.668 2.752q-.494.513-.992 1.022c-.195.192-1.515 2.447-1.515 2.89 0 .753.933.918 1.294.918.832 0 2.172-1.193 3.777-3.357l.229-.31.126.364c.167.483.25.724.787 1.711.179.324 1.013.88 1.204.88h.53c.343-.04 2.51-.995 2.51-1.558 0-.104-.097-.43-.236-.43-.029 0-.07.01-.105.03-.108.056-.203.118-.305.184-.328.214-.739.481-1.406.481-.968 0-1.569-.692-1.569-1.807 0-.162.11-.598.29-1.296.122-.468.288-1.108.288-1.237 0-.654-.693-1.237-1.24-1.237m-4.329 5.969.05-.402c.18-1.045 2.174-3.501 3.036-3.501h.2v.278c0 .392-.351.953-1.261 1.996-.892 1.017-1.23 1.2-1.658 1.43z"/><path fill="#183F88" d="M101.779 47.753h.125l.026.173c.021.138.059.271.091.39.042.152.076.285.076.4 0 .638.293 3.133 1.118 3.133.227 0 1.073-.134 1.073-.784 0-.255-.099-.36-.264-.533a2.4 2.4 0 0 1-.315-.387 1 1 0 0 1-.136-.49c0-.109.018-.213.034-.318q.017-.098.023-.2l-.049-.083-.082-.109.012-.064c0-.613 0-1.248-.025-1.745-.017-.113-.017-.246-.017-.388v-.215c0-.899-.107-1.327-.725-1.327-.271 0-.728.156-.787.27-.552.871-1.575 1.773-3.22 2.85l-.154.1-.22-.273v-.223c0-.132.105-.414.416-1.187.245-.609.611-1.528.611-1.74 0-.365-.37-.676-.674-.676-.12 0-.557.113-.67.278-.087.177-1.174 3.313-1.174 4.646 0 .642.508 1.143 1.155 1.143.79 0 2.786-1.938 3.414-2.674l.145-.172zM115.342 40.433c-2.94.012-5.343 2.37-5.356 5.255.012 2.896 2.413 5.253 5.356 5.253a5.45 5.45 0 0 0 3.381-1.14c.277-.218.327-.637.11-.933-.204-.245-.666-.314-.927-.122-.72.578-1.586.874-2.564.874a4.18 4.18 0 0 1-2.865-1.15 3.9 3.9 0 0 1-1.171-2.782c0-1.037.401-2 1.164-2.781.803-.748 1.82-1.156 2.872-1.156.978 0 1.867.305 2.573.883.249.191.707.134.925-.137a.69.69 0 0 0-.124-.932c-.949-.74-2.116-1.132-3.374-1.132m8.243 6.035h5.173v3.841c0 .36.271.632.633.632a.63.63 0 0 0 .647-.632v-8.943a.634.634 0 0 0-.647-.634.62.62 0 0 0-.633.633v3.843h-5.173v-3.843a.633.633 0 0 0-.648-.633.616.616 0 0 0-.628.633v8.944c0 .355.276.632.628.632a.63.63 0 0 0 .648-.632zm14.851-6.035a4.86 4.86 0 0 0-3.562 1.554 5.38 5.38 0 0 0-1.445 3.7c0 1.404.512 2.716 1.445 3.694a4.9 4.9 0 0 0 3.562 1.56c1.288 0 2.589-.58 3.475-1.557a5.34 5.34 0 0 0 1.48-3.697c0-1.367-.523-2.68-1.477-3.699a4.74 4.74 0 0 0-3.478-1.555m0 9.187c-.985 0-1.909-.411-2.605-1.16-.687-.704-1.083-1.716-1.083-2.773 0-1.05.395-2.07 1.083-2.794a3.54 3.54 0 0 1 2.605-1.142c.95 0 1.856.405 2.547 1.143a4.15 4.15 0 0 1 1.083 2.793c0 1.04-.396 2.053-1.084 2.777-.697.745-1.602 1.156-2.546 1.156m-.074-11.815.922.798c.37.307.615.362.989.362.088 0 .235-.028.235-.1 0-.026-.028-.09-.144-.247l-.994-1.251c-.169-.216-.352-.358-.722-.358h-.544c-.354 0-.526.127-.72.362l-1.001 1.253c-.11.152-.135.216-.137.241 0 .097.186.1.206.1.372 0 .628-.056.99-.363zm15.864 5.496v7.008c0 .355.274.632.626.632.345 0 .65-.295.65-.632v-8.943c0-.336-.296-.62-.66-.634a.63.63 0 0 0-.521.266l-3.18 4.414-3.183-4.414a.63.63 0 0 0-.502-.266h-.049a.64.64 0 0 0-.627.633v8.944c0 .344.286.632.627.632.357 0 .65-.284.65-.632v-7.013l2.533 3.547a.65.65 0 0 0 .533.264c.241 0 .42-.093.549-.268zm6.247 5.136h4.304l.79 2.103c.089.242.322.4.585.4.087 0 .166-.01.21-.028a.66.66 0 0 0 .386-.842l-3.52-8.917a.62.62 0 0 0-.575-.405l-.046.001a.66.66 0 0 0-.606.407l-3.519 8.923a.667.667 0 0 0 .386.832q.09.03.215.03a.66.66 0 0 0 .602-.407zm3.838-1.257h-3.386l1.691-4.361zm9.847-6.747c-2.972 0-5.39 2.364-5.39 5.27 0 2.888 2.418 5.238 5.39 5.238a5.37 5.37 0 0 0 3.316-1.14.6.6 0 0 0 .212-.241v-.022l.028-.067.027-.1a.5.5 0 0 0 .02-.12v-3.354c0-.36-.299-.642-.677-.642h-3.019a.65.65 0 0 0-.661.642c0 .354.307.663.661.663h2.376v2.396l-.103.058a4.4 4.4 0 0 1-2.18.606c-1.118 0-2.139-.415-2.875-1.168-.768-.744-1.194-1.72-1.194-2.75 0-1.052.426-2.04 1.199-2.785.731-.75 1.752-1.166 2.87-1.166.898 0 1.792.306 2.518.861a.695.695 0 0 0 .945-.1.69.69 0 0 0 .131-.504.66.66 0 0 0-.258-.436 5.38 5.38 0 0 0-3.336-1.139m7.924 10.508h4.746a.645.645 0 0 0 .626-.632c0-.345-.292-.647-.626-.647h-4.313v-3.194h3.736c.344 0 .63-.295.63-.645a.645.645 0 0 0-.63-.63h-3.736V42.01h4.313a.638.638 0 0 0 0-1.278h-4.915c-.404 0-.67.272-.67.633v8.944c0 .327.232.589.548.628z"/></g><defs><clipPath id="a"><path fill="#fff" d="M.718.25h186.736v60H.718z"/></clipPath></defs></svg>