<svg width="46" height="46" viewBox="0 0 46 46" fill="none" xmlns="http://www.w3.org/2000/svg">
<rect width="46" height="46" fill="white"/>
<rect width="24.9752" height="28.2028" transform="translate(10.4397 14.0788)" fill="white"/>
<circle cx="22.9316" cy="23.4122" r="9.26532" transform="rotate(0.422522 22.9316 23.4122)" fill="#FFCB60"/>
<path d="M23.0187 17.3978L23.2966 28.4555L29.2046 19.1042L23.9163 28.8195L33.7085 23.675L24.271 29.4445L35.3235 29.8854L24.2657 30.1632L33.617 36.0712L23.9018 30.7829L29.0463 40.5751L23.2768 31.1377L22.8359 42.1901L22.5581 31.1324L16.6501 40.4836L21.9384 30.7684L12.1462 35.9129L21.5836 30.1434L10.5311 29.7025L21.5889 29.4247L12.2376 23.5167L21.9528 28.805L16.8084 19.0128L22.5779 28.4502L23.0187 17.3978Z" fill="white"/>
<path d="M20.5694 20.7998L22.9171 28.7567L25.3819 20.8353L23.4367 28.9L29.532 23.2723L23.8151 29.2839L31.9075 27.4579L23.9507 29.8056L31.872 32.2704L23.8074 30.3252L29.435 36.4205L23.4234 30.7036L25.2495 38.796L22.9018 30.8392L20.4369 38.7605L22.3821 30.6959L16.2869 36.3235L22.0038 30.3119L13.9113 32.138L21.8682 29.7903L13.9468 27.3254L22.0115 29.2706L16.3838 23.1754L22.3954 28.8923L20.5694 20.7998Z" fill="white"/>
<circle cx="22.9273" cy="29.7939" r="4.95861" transform="rotate(0.422522 22.9273 29.7939)" fill="white"/>
<path d="M0.545772 6.62439C1.9022 6.61219 2.77208 6.60213 3.30945 6.59429C3.15908 6.5668 5.11863 6.56792 3.30945 6.59429C3.39524 6.60998 4.16767 6.63497 6.71813 6.66991L18.3303 5.14925C23.007 6.10362 25.5993 6.83319 30.1747 8.44918C30.775 8.25572 33.4533 12.2126 36.806 16.7972C37.1488 17.3085 37.2278 19.0111 37.296 22.9583C37.2627 23.5177 36.8671 23.331 35.5173 22.142L34.129 16.7775C31.6028 14.7464 29.7461 13.3614 29.0749 12.3675C26.522 11.4951 25.0069 11.0692 22.1285 10.4423C21.2115 10.5913 20.5912 10.8174 19.0847 11.7584C19.9556 13.3135 21.3081 14.2141 23.2491 15.8049L27.2501 17.7976C27.907 18.4031 27.9204 18.8101 27.6831 19.5856C27.3579 20.3791 27.0736 20.529 26.5152 20.6478C19.9827 18.8236 16.1103 17.6607 8.79788 15.0736L0.545768 16.7775L0.545772 6.62439Z" fill="#008080"/>
<path d="M45.5231 39.6376C44.1666 39.6498 43.2968 39.6598 42.7594 39.6677C42.9098 39.6952 40.9502 39.694 42.7594 39.6677C42.6736 39.652 41.9012 39.627 39.3507 39.5921L27.7385 41.1127C23.0618 40.1583 20.4695 39.4288 15.8941 37.8128C15.2938 38.0062 12.6155 34.0494 9.26283 29.4647C8.92004 28.9535 8.84101 27.2509 8.77283 23.3037C8.80612 22.7442 9.20174 22.931 10.5516 24.1199L11.9398 29.4845C14.4661 31.5156 16.3228 32.9006 16.9939 33.8944C19.5469 34.7669 21.062 35.1928 23.9403 35.8196C24.8574 35.6707 25.4776 35.4445 26.9841 34.5035C26.1132 32.9485 24.7608 32.0478 22.8198 30.4571L18.8187 28.4643C18.1618 27.8588 18.1484 27.4519 18.3857 26.6764C18.711 25.8829 18.9953 25.7329 19.5536 25.6141C26.0862 27.4384 29.9586 28.6012 37.271 31.1883L45.5231 29.4845L45.5231 39.6376Z" fill="#008080"/>
</svg>
