<svg width="91" height="91" viewBox="0 0 91 91" fill="none" xmlns="http://www.w3.org/2000/svg">
<path d="M65.3242 28.7658C65.9236 27.9951 66.6943 27.4813 67.5507 27.1388C67.5507 27.0531 67.4651 26.9675 67.4651 26.8819C67.2082 26.9675 67.0369 26.9675 66.8656 26.7962C66.4375 26.5393 66.2662 26.1112 66.2662 25.5974C66.1805 25.0836 66.1805 24.5698 66.1805 24.056L65.0673 22.7715C64.9817 24.1416 64.9817 25.5117 64.9817 26.8819C64.8961 27.31 64.7248 27.7382 64.2966 27.9951C63.9541 28.0807 63.6972 27.9094 63.5259 27.7382C63.0121 27.1388 62.8409 26.3681 62.4983 25.683L62.3271 25.8543C62.0702 26.9675 62.3271 28.3376 61.2139 29.0227C60.6144 29.0227 60.2719 29.879 59.5868 29.6221C58.8161 29.1939 58.6449 28.252 58.0454 27.6525C56.504 27.5669 57.0179 29.2796 56.5897 30.1359C56.3328 30.7353 56.0759 31.3348 55.4765 31.5917C54.192 31.7629 53.3356 30.4784 52.3937 29.7077C52.2224 29.7077 52.0512 29.879 52.0512 30.0503C51.8799 31.2491 51.8799 32.7049 50.681 33.3043C50.4241 33.3043 50.0816 33.3043 49.8247 33.133C49.3965 32.7049 49.3965 32.1054 49.2253 31.5917H49.1396C48.7971 32.5336 48.4546 33.8181 47.3414 34.2463C46.7419 34.5032 45.8 34.5032 45.2005 34.4175C44.858 34.8457 44.6867 35.5308 44.0017 35.5308C43.4879 35.6164 43.0597 35.1026 42.8028 34.6744C42.4603 34.1606 42.3747 33.6468 41.9465 33.133C41.6896 33.133 41.5183 33.2187 41.3471 33.3043C41.0045 33.7325 41.2614 34.2463 41.0902 34.7601C40.9189 35.6164 40.9189 36.644 39.9769 36.9865C39.5488 37.0721 39.2063 36.9009 38.8637 36.7296C38.4356 36.3871 38.5212 35.7877 38.5212 35.1882C38.6925 32.7049 39.2063 30.3928 39.4632 27.9094C39.4632 27.8238 39.2919 27.7382 39.2063 27.8238C38.7781 28.252 38.2643 28.6801 37.6649 28.937L37.4936 29.1939C37.3223 32.0198 37.4936 34.7601 36.9798 37.4147C36.7229 37.9285 36.3804 38.6135 35.6953 38.5279C35.2671 38.5279 34.9246 38.1854 34.7534 37.7572C34.3252 36.8152 34.6677 35.702 34.6677 34.5888C34.7534 33.133 34.9246 31.7629 34.839 30.3072L34.6677 30.2215L33.4689 30.3072C32.6982 30.9922 32.1844 31.9342 32.1844 32.9618C32.4413 33.5612 33.2976 33.3899 33.4689 34.075C33.7258 36.1302 33.0407 37.9285 31.9275 39.5555C31.6706 39.898 31.3281 40.4118 30.8999 40.3262C30.4717 40.3262 30.1292 39.898 29.7867 39.6411C29.2729 39.7268 29.016 40.4118 28.5022 40.6687C28.5022 41.1825 27.9027 41.0112 27.6458 41.3538C27.132 41.7819 26.2757 42.1245 25.5907 41.8676C24.7343 42.0388 24.2206 41.1825 23.6211 40.7544L21.4803 38.7848C21.309 38.7848 21.3947 39.0417 21.309 39.1273L21.2234 43.0664C21.1378 43.4946 20.8809 43.9228 20.5383 44.1797C20.1958 44.3509 19.7676 44.2653 19.5107 44.094C19.5107 44.1797 19.5964 44.1797 19.5964 44.2653C19.9389 45.036 20.5383 45.721 20.9665 46.4917C21.0521 46.4917 21.1378 46.4061 21.309 46.4061C22.1654 46.4917 22.6792 47.5193 22.936 48.2044C23.0217 48.3757 23.0217 48.5469 23.1073 48.7182C23.878 49.3176 24.9056 50.2596 25.6763 50.7734L26.1045 51.1159C26.3614 49.3176 26.8751 47.6906 27.5602 46.2348C28.3309 44.6078 29.9579 42.8952 31.8418 42.8952C33.4689 42.8095 34.9246 43.409 36.0379 44.6078C36.3804 44.5222 36.2948 44.094 36.466 43.8371C36.9798 41.9532 37.9218 39.8124 39.8913 38.9561C41.604 38.1854 43.7448 38.6992 45.1149 39.9837C45.5431 39.9837 45.2005 39.3842 45.3718 39.213C45.7143 38.0997 46.7419 37.329 47.5126 36.4727C48.7971 35.1882 50.0816 33.9037 51.5373 32.9618C52.1368 32.7049 52.9931 32.5336 53.5926 32.9618L54.192 33.7325C53.25 35.6164 51.2805 36.9009 49.7391 38.271C49.5678 39.0417 49.9103 39.6411 49.996 40.4118C50.0816 40.4975 50.1672 40.5831 50.3385 40.4975C51.2805 39.8124 52.1368 38.9561 53.1644 38.6992C53.6782 38.6135 54.0207 39.0417 54.2776 39.3842C54.4489 39.9837 54.7058 40.6687 54.3632 41.2681C53.5925 42.5526 52.1368 43.6659 51.1092 44.8647C51.1948 46.0636 51.3661 47.1768 51.623 48.3757C51.623 48.4613 51.7943 48.4613 51.7943 48.4613C52.9075 47.0912 54.0207 44.6935 56.1615 45.2072C56.4184 45.2072 56.2471 44.8647 56.2471 44.7791C55.1339 41.2681 54.9627 37.329 54.5345 33.5612L54.3632 33.6468C54.7058 33.133 55.3052 32.5336 55.9903 32.448C56.5897 32.3623 57.0178 32.7049 57.5316 33.0474C58.9874 34.5888 57.9598 36.8152 58.1311 38.6992C58.3023 41.0112 58.6449 43.1521 59.1587 45.2929C59.5012 46.2348 59.6725 47.605 60.8713 47.7762C61.2995 47.7762 61.5564 47.4337 61.7277 47.0912C62.1558 44.8647 61.8989 42.2101 61.642 39.898C61.2995 37.329 60.2719 35.017 60.015 32.3623C60.015 31.6773 60.2719 30.9066 60.9569 30.5641C61.5564 30.3928 62.3271 30.2215 62.8409 30.7353C63.7828 31.5917 64.0397 32.7049 64.2966 33.8181C64.8104 36.1302 65.1529 38.4423 65.2386 40.84C65.4098 40.5831 65.5811 40.1549 65.7524 39.9837C65.6667 37.1578 65.4098 34.3319 64.5535 31.7629C64.3823 30.4784 64.8104 29.4508 65.3242 28.7658Z" fill="white"/>
<path d="M41.2613 28.6802C41.0901 29.194 41.1757 29.7078 41.1757 30.3072C41.2613 30.5641 41.4326 30.5641 41.6039 30.4785C41.9464 30.3072 42.032 30.0503 41.9464 29.7078C41.8608 29.2796 41.8608 28.6802 41.2613 28.6802Z" fill="white"/>
<path d="M29.1012 34.7603L27.9023 36.216C27.4742 36.4729 27.6454 36.9011 27.7311 37.3292C27.9023 37.5005 27.731 37.843 27.9879 37.7574C28.4161 37.3292 28.7586 36.8154 29.2724 36.5585C29.615 36.3873 29.9575 36.6442 30.2144 36.7298L30.3857 36.6442C30.6426 36.216 30.6426 35.6166 30.5569 35.1884C30.0431 35.2741 29.5294 35.1028 29.1012 34.7603Z" fill="white"/>
<path d="M21.7369 31.7628C22.5933 31.5916 23.364 31.7628 23.8778 32.4479C23.8778 32.7048 24.2203 32.876 24.2203 33.1329C24.8197 34.5887 24.049 35.9588 23.6209 37.3289C23.9634 37.9284 24.6484 38.3565 25.1622 38.8703L25.3335 38.6991C25.3335 36.6439 25.0766 34.76 24.9054 32.7904C25.5048 31.5059 26.8749 30.3927 27.9025 29.3651C28.1594 29.1082 28.5875 29.0226 28.9301 29.1082C29.187 29.2795 29.4439 29.4507 29.5295 29.7076C30.1289 31.4203 27.9025 31.9341 27.2174 33.2186C27.1318 33.5611 27.1318 33.9036 27.3887 34.1605C27.9025 33.818 28.5019 33.3898 29.1013 33.7324C29.2726 33.3042 29.3582 32.7904 29.4439 32.4479C29.872 31.0778 30.4715 29.4507 31.9272 28.68C32.1841 28.5944 32.6123 28.5944 32.8692 28.68C33.5542 27.3099 35.0956 27.053 36.2945 26.4536C37.3221 26.1967 38.6065 25.2547 39.6341 26.1967C39.891 25.8542 40.1479 25.1691 40.833 25.1691L41.1755 25.2547C42.2031 26.1967 42.3744 27.5668 43.1451 28.68C43.2307 28.68 43.3163 28.5944 43.3163 28.5088C43.3163 27.2243 43.3163 25.9398 43.4876 24.7409C43.5732 24.484 43.7445 24.1415 44.087 23.9702C44.4296 23.799 44.7721 23.799 45.1146 23.9702C46.5704 25.2547 45.4572 27.3099 45.4572 28.9369C45.3715 29.8789 45.4571 30.8209 45.714 31.5916C45.8853 31.8485 46.0566 31.8485 46.3135 31.6772C46.9129 30.564 46.8273 29.1082 46.7416 27.7381C46.5704 26.4536 46.3135 25.0835 46.4847 23.799C46.5704 23.4565 46.8273 23.1139 47.1698 23.0283C47.4267 22.9427 47.7692 22.9427 48.1117 23.0283C48.8824 23.8846 48.7968 25.2547 49.0537 26.368C49.0537 27.1387 49.1394 27.995 49.225 28.7657L49.3106 28.5944C49.5675 26.6249 49.3962 24.5697 49.3962 22.5145C49.3962 21.5725 50.5095 21.6582 51.1089 21.3156C51.8796 21.1444 52.9072 21.0587 53.5922 21.7438C54.3629 22.4289 54.6198 23.3708 54.5342 24.3128C54.3629 25.3404 53.5922 26.1111 53.0784 26.9674C53.2497 27.5668 53.6779 27.995 54.1917 28.4232C54.2773 28.5088 54.3629 28.68 54.5342 28.5944L54.6198 28.1663L55.7331 20.288C55.9043 19.9455 55.8187 19.603 56.2468 19.3461C56.5894 19.3461 56.9319 19.5174 57.1032 19.8599C58.1307 21.4013 58.7302 23.1996 59.6721 24.8266C59.6721 24.9122 59.7578 24.8266 59.7578 24.8266L59.929 24.5697L60.2716 18.7467C60.2716 19.0036 60.2716 19.2605 60.1859 19.5174C58.5589 19.1748 56.5894 18.7467 54.7911 19.1748C51.1089 20.0311 47.8549 21.8294 44.4296 23.2852C43.2307 23.7134 42.2887 22.7714 41.3468 22.3432C37.7502 20.288 34.1537 17.6334 29.6151 18.661C25.5048 19.4317 21.9082 22.5145 19.4249 26.1111C17.9691 28.5944 17.1128 31.4203 17.1128 34.5031C17.541 34.6743 17.7979 35.2738 18.0548 35.7019C18.0548 35.8732 18.1404 36.0445 18.0548 36.2157C17.7122 36.2157 17.4553 36.387 17.1984 36.6439C17.3697 37.4146 17.5409 38.4422 17.7122 39.1272C17.7122 39.1272 17.7122 39.1272 17.7978 39.2129C18.3116 39.641 18.3116 40.3261 18.226 41.0111C18.3973 41.5249 18.7398 42.1244 18.9111 42.7238C18.9111 42.5525 18.9111 42.2956 18.9111 42.1244C19.168 39.3841 19.2536 36.387 18.9967 33.5611C19.4249 32.3623 20.795 32.191 21.7369 31.7628Z" fill="white"/>
<path d="M56.8463 23.2852C56.675 23.6277 56.7607 24.0558 56.7607 24.3984C56.8463 24.6553 56.8463 25.0834 57.2745 24.9978C57.617 24.9978 57.7883 24.5696 57.7883 24.2271C57.617 23.9702 57.2745 23.3708 56.8463 23.2852Z" fill="white"/>
<path d="M51.5371 23.6277C51.3659 24.3984 51.794 24.9122 51.8797 25.5973C52.1366 25.7685 52.1366 25.426 52.3078 25.3404C52.4791 24.7409 52.5647 24.0559 52.0509 23.5421C51.8797 23.4565 51.7084 23.4565 51.5371 23.6277Z" fill="white"/>
<path d="M42.7169 54.8838C43.0595 55.0551 43.5733 55.0551 43.9158 54.7982L44.5152 54.1131C45.7997 51.6298 45.6284 48.3758 44.7721 45.7211C44.2583 44.5223 43.6589 42.724 42.1175 42.5527C41.775 42.6384 41.4324 42.724 41.2612 43.0665C40.148 44.9504 40.148 47.5194 40.3192 49.8315C40.6618 51.6298 41.0043 53.7706 42.7169 54.8838Z" fill="white"/>
<path d="M21.3945 34.9309L21.5658 36.6436C21.6514 36.8149 21.5658 37.0718 21.8227 37.0718C22.3365 36.3867 22.4221 35.1878 21.9083 34.5028C21.6514 34.4171 21.5658 34.7597 21.3945 34.9309Z" fill="white"/>
<path d="M57.1886 49.5742C56.9317 49.7455 56.9317 50.0024 56.8461 50.2593C55.3047 52.5714 53.3352 54.6265 51.1943 56.4248C51.1943 56.4248 51.28 56.4248 51.28 56.3392C53.7633 54.8834 56.3323 52.8283 58.6444 50.9443C58.045 50.6018 57.6168 50.088 57.1886 49.5742Z" fill="white"/>
<path d="M49.5678 56.8528C48.7971 56.5103 48.7115 55.654 48.2833 55.0545C47.7695 55.5683 47.7695 56.4247 47.2557 57.0241C46.2281 58.6511 44.5155 59.5931 42.7172 59.2505C38.0074 57.8804 36.9798 52.7425 36.3804 48.5465C36.0378 48.3752 35.7809 48.8034 35.4384 48.889C34.1539 49.3172 33.2976 48.2039 32.3556 47.6901C31.7562 47.5189 31.328 48.1183 31.0711 48.5465C30.3005 50.1735 30.3005 52.2287 30.3861 54.1126C30.5574 55.8252 30.9855 57.4523 31.9275 58.8224C32.27 59.2505 32.8694 59.3362 33.3832 59.2505C34.4965 58.3086 34.3252 56.5103 35.8666 56.0821C36.466 55.9965 36.9798 56.0821 37.4079 56.5103C38.2643 57.281 38.1786 58.5655 37.8361 59.5931L41.0902 61.8195H41.6896C44.7723 60.4494 47.5126 58.5655 50.5097 56.9385C50.2528 56.8528 49.9103 56.9385 49.5678 56.8528Z" fill="white"/>
<mask id="mask0_1023_6330" style="mask-type:luminance" maskUnits="userSpaceOnUse" x="2" y="1" width="88" height="88">
<path d="M89.3869 1.53418H2.0415V88.8796H89.3869V1.53418Z" fill="white"/>
</mask>
<g mask="url(#mask0_1023_6330)">
<path d="M79.625 2.04776C78.0836 0.848897 76.114 1.87649 74.6583 2.64719C70.4623 5.64433 68.8352 10.6967 67.6364 15.1496C68.0646 14.8927 68.4928 14.7214 69.0065 14.6358C69.3491 14.7214 69.7773 14.807 70.0341 15.0639C70.7192 14.3789 71.4042 13.6938 72.3462 13.5225C72.9456 13.5225 73.3738 13.6938 73.5451 14.2076C73.6307 14.5501 73.7163 14.807 73.3738 15.0639C72.7744 15.0639 72.3462 15.4921 71.918 15.8346L71.7468 17.6329C71.9181 17.9754 72.4318 17.6329 72.6887 17.8042C73.0313 17.9755 73.2882 18.0611 73.4595 18.4036C73.6307 19.6025 73.2025 20.2875 72.86 21.4008C72.0893 22.9422 71.3186 24.9117 69.5203 25.4255C69.1778 25.5111 68.9209 25.1686 68.7497 24.9973C68.664 25.3399 68.4071 25.6824 68.3215 26.0249C68.1502 26.3675 67.9789 26.5387 67.5508 26.5387C67.6364 26.71 67.6364 27.0525 67.7221 27.2238C69.2634 26.6244 71.233 26.7956 72.6031 27.652C72.9457 25.1686 73.8019 22.5996 74.487 20.2875C75.6859 16.5197 77.056 12.7519 78.683 9.15528C79.3681 7.61389 79.9675 6.15813 80.5669 4.53111C80.6526 3.67478 80.3957 2.64718 79.625 2.04776Z" fill="#E5007D"/>
</g>
<path d="M71.3185 44.0084C71.3185 44.2653 70.8903 44.351 71.0615 44.6079C70.5477 46.2349 70.4621 48.0332 68.6638 48.7183C68.2357 48.8039 67.8931 48.8039 67.5506 48.547C66.523 47.8619 66.6943 46.8343 66.4374 45.8067L66.2661 39.3843C66.0092 39.5555 65.4954 40.5831 65.4098 40.84C65.4098 42.8096 65.4098 44.0941 65.1529 46.0636C64.7247 48.2045 64.3822 50.8591 61.8988 51.5441C60.7 51.8867 59.8437 51.3729 58.9017 50.6878C56.504 52.6574 53.8494 54.7982 51.2804 56.3396C48.0264 58.0522 45.0292 60.1074 41.7752 61.6488H41.1758L37.6648 59.2511C37.3223 60.6212 36.3803 61.9057 35.2671 62.762L40.1482 65.7592C40.662 65.9304 41.1757 66.273 41.7752 66.0161C44.1729 65.2454 46.2281 63.6184 48.4545 62.3339L59.1586 56.2539L63.4402 53.7706L64.2966 53.4281C64.8104 54.5413 65.1529 55.6545 65.9236 56.5965C66.1805 57.0246 66.4374 57.4528 66.8656 57.2815C67.2937 57.2815 67.0368 57.7097 67.2937 57.881C67.3793 57.881 68.15 57.881 68.2357 57.7097C68.0644 57.4528 67.9787 57.1959 68.0644 56.939C68.2356 56.6821 68.2357 56.6821 68.5782 56.7677C69.3489 57.1959 69.2632 58.1379 69.777 58.7373C70.4621 58.3948 69.6914 56.939 69.6914 56.0827C70.2908 55.5689 70.6334 55.312 71.4041 55.2263C72.0035 55.1407 72.6885 55.6545 73.2023 55.312C74.4012 52.3148 73.0311 49.2321 72.2604 46.4062C72.1748 45.6355 71.5754 44.8648 71.3185 44.0084Z" fill="#E5007D"/>
<path d="M68.0645 17.7192C68.0645 19.6887 68.2357 22.0865 68.407 24.056C68.5783 23.9704 69.1777 23.5422 69.3489 23.4566C70.1196 22.8571 70.4622 21.7439 70.8047 20.8876C71.3185 19.86 70.034 20.2882 69.6915 19.7744C68.8352 18.918 69.349 17.6335 69.4346 16.606C69.1777 16.9485 68.407 17.3767 68.0645 17.7192Z" fill="#E5007D"/>
<mask id="mask1_1023_6330" style="mask-type:luminance" maskUnits="userSpaceOnUse" x="2" y="1" width="88" height="88">
<path d="M89.3869 1.53418H2.0415V88.8796H89.3869V1.53418Z" fill="white"/>
</mask>
<g mask="url(#mask1_1023_6330)">
<path d="M69.6057 33.4754C70.2907 32.876 70.8902 31.8484 70.462 30.9064C70.2907 30.5639 69.7769 30.1357 69.4344 30.1357C68.9206 30.1357 68.3212 30.5639 68.1499 30.9921L69.2631 33.561H69.6057V33.4754Z" fill="#E5007D"/>
</g>
<mask id="mask2_1023_6330" style="mask-type:luminance" maskUnits="userSpaceOnUse" x="2" y="1" width="88" height="88">
<path d="M89.3869 1.53418H2.0415V88.8796H89.3869V1.53418Z" fill="white"/>
</mask>
<g mask="url(#mask2_1023_6330)">
<path d="M44.5152 23.1996C47.9405 21.8295 51.1946 19.9456 54.8768 19.0892C56.6751 18.6611 58.559 19.0892 60.2716 19.4318C60.3573 18.8323 60.186 18.3185 60.7854 17.976C62.1556 17.6335 62.2412 19.6887 63.0119 20.2025C63.1832 19.3461 62.8406 18.1473 63.4401 17.4622C63.7826 17.034 64.382 17.3766 64.8102 17.2909L66.951 15.6639C64.8958 14.4651 62.4125 13.5231 60.0148 13.0949C54.5343 12.153 50.0814 15.1501 45.4572 17.034L44.8578 17.1197C40.833 15.0645 37.1508 12.3242 32.5267 11.8104C29.5295 11.6392 26.3611 11.9817 23.6209 13.0093C19.9387 14.2082 17.0271 17.2909 14.03 20.1168L13.9444 20.0312C13.7731 17.034 14.4582 14.2938 15.5714 11.8104C16.1708 10.269 17.1128 8.81329 17.6266 7.2719C17.6266 6.84373 17.3697 6.5012 17.0271 6.32994C16.4277 6.07304 15.9995 6.5012 15.5714 6.92937C14.1156 9.15582 12.9168 11.4679 12.1461 13.8656C11.5466 15.5783 11.2898 17.5478 10.776 19.3461C10.6047 19.6887 10.2622 19.9456 9.91964 19.7743C9.23458 19.3461 9.14895 18.5754 9.06331 17.8904C9.14895 13.4375 11.1185 9.66962 13.088 5.98741L13.1737 5.21671C13.088 4.87418 12.8311 4.70291 12.5742 4.53165C12.1461 4.27475 11.8035 4.70291 11.461 4.95981C9.74836 7.2719 8.37823 9.66962 7.43627 12.3242C6.75121 14.1225 6.4087 16.0921 5.98053 18.0616C5.80927 18.4042 5.46674 18.5754 5.1242 18.4898C4.35351 18.1473 4.35351 17.2053 4.26788 16.4346C4.52478 12.0673 6.57996 8.47076 8.46387 4.78855L8.72076 3.93222C8.72076 3.58969 8.37825 3.33279 8.12135 3.16152C7.43629 2.99026 6.9225 3.50406 6.49433 4.01785C3.92535 8.21386 1.69889 12.6668 1.95579 17.976C2.21268 23.114 6.06615 26.7106 7.52191 31.3347C7.95007 33.3043 7.26501 35.3595 7.09375 37.329L7.52191 37.7572C7.86444 37.9285 7.86444 38.4422 7.95007 38.7848C8.03571 41.0112 7.35065 43.7515 7.60755 45.9779L8.37824 45.2929C8.97766 44.7791 9.74836 43.9227 10.6047 44.0084C10.776 42.0388 10.3478 39.9836 10.776 38.0997C11.1185 36.8152 11.6323 35.6164 13.0024 35.2738C13.2593 35.1882 13.3449 35.3595 13.4306 35.5307C13.6018 35.8733 13.5162 36.1302 13.3449 36.4727C12.7455 37.1578 12.1461 38.1853 12.3173 39.2129C12.403 39.4698 12.9168 39.3842 13.1737 39.4698C13.4306 39.6411 13.1737 39.7267 13.3449 39.9836C13.2593 40.7543 12.5742 41.2681 12.2317 41.9532C12.2317 42.3814 12.2317 43.3233 12.403 43.7515C12.8311 43.5802 13.3449 43.0664 13.7731 42.8952C14.3725 42.5526 14.3725 43.409 14.972 43.3233C15.4858 42.7239 16.1708 41.525 16.4277 40.84L16.0852 40.5831C15.8283 40.6687 15.5714 40.5831 15.3145 40.5831C14.8863 40.5831 14.6294 40.5831 14.3725 40.2405C14.03 38.4422 14.8007 37.329 15.5714 35.8733C15.9995 35.2738 16.4277 34.4175 17.1984 34.5888C17.1984 31.506 17.9691 28.6801 19.5105 26.1111C21.9938 22.5145 25.5904 19.3461 29.7008 18.6611C34.2393 17.7191 37.8359 20.2881 41.4325 22.3433C42.3744 22.6858 43.3164 23.6278 44.5152 23.1996Z" fill="#E5007D"/>
</g>
<path d="M66.2658 24.3125C66.1802 22.5142 66.2658 20.5447 66.1802 18.832C65.8377 18.832 65.2382 18.9177 64.9813 19.0033C65.067 20.2022 64.8957 21.4866 64.8101 22.6855L66.2658 24.3125Z" fill="#E5007D"/>
<path d="M26.5327 51.2012L25.8477 50.6874C24.9913 50.088 23.8781 49.0604 23.1074 48.4609C23.5356 50.8587 23.8781 53.5989 23.5356 56.1679L26.7896 57.9662L27.3034 58.2231L27.0465 57.1099C26.1902 55.1403 26.3615 53.4276 26.5327 51.2012Z" fill="#E5007D"/>
<path d="M21.2232 46.7486L21.1376 46.4917C20.7094 45.721 20.11 45.1216 19.7675 44.2652C19.5962 43.9227 19.3393 43.8371 19.1681 43.4945C18.9968 42.4669 18.3118 41.3537 18.0549 40.583C17.8836 42.4669 17.0273 44.1796 15.8284 45.5497C15.4859 45.721 15.4002 45.6353 14.9721 45.5497C14.5439 45.4641 14.1158 44.9503 13.6876 45.2072C13.0882 45.8922 12.5744 47.0911 11.4611 46.9198C10.9473 46.6629 10.6905 46.2348 10.3479 45.8066C9.57724 46.7486 8.29274 46.9198 7.26515 47.6049C6.92262 47.7762 6.92261 48.975 6.58008 48.7181C6.75134 50.0883 7.00825 51.4584 7.52204 52.6572C7.60767 52.0578 7.77895 51.8009 8.20712 51.3727C8.63528 51.2871 8.9778 50.8589 9.40597 50.7733C11.8893 50.4308 14.0301 52.1434 15.6571 53.9417C15.6571 52.6572 15.9997 51.0302 16.1709 49.8314C16.3422 49.0607 16.2566 48.29 17.1985 47.9474C17.7123 47.7762 17.7979 47.9474 18.1405 48.1187C18.5686 48.4612 18.7399 48.975 18.8255 49.4032L18.9112 55.1406L19.2537 56.682C19.425 56.8532 19.8531 57.2814 20.11 57.1958C20.2813 57.1101 20.6238 56.8532 20.7094 56.682L20.9664 54.6268C21.052 52.486 20.6238 50.4308 20.1957 48.4612C20.2813 47.8618 20.5382 47.1767 21.2232 46.7486Z" fill="#E5007D"/>
<path d="M17.0271 57.7949C16.5989 59.2507 14.6293 61.734 15.2288 62.3334C15.9995 62.8472 17.1983 62.8472 18.0547 62.5047C18.8254 62.2478 19.3391 61.3915 19.596 60.7921C19.2535 60.1926 17.5409 58.6512 17.0271 57.7949Z" fill="#E5007D"/>
<path d="M16.2563 38.5277L17.7977 39.1272C17.6265 38.3565 17.4552 36.9863 17.1983 36.3013C16.8558 36.8151 16.2563 37.8427 16.2563 38.5277Z" fill="#E5007D"/>
<mask id="mask3_1023_6330" style="mask-type:luminance" maskUnits="userSpaceOnUse" x="2" y="1" width="88" height="88">
<path d="M89.3869 1.53418H2.0415V88.8796H89.3869V1.53418Z" fill="white"/>
</mask>
<g mask="url(#mask3_1023_6330)">
<path d="M11.5467 53.6844C11.2898 53.6844 10.5191 53.5132 10.2622 53.8557C10.6047 55.7396 10.8616 57.8804 10.6904 59.9356C10.6904 60.1069 11.0329 60.2781 11.1185 60.2781C12.403 59.5931 13.4306 57.966 13.345 56.4247C13.2594 55.3971 12.5743 54.1982 11.5467 53.6844Z" fill="#E5007D"/>
</g>
<mask id="mask4_1023_6330" style="mask-type:luminance" maskUnits="userSpaceOnUse" x="2" y="1" width="88" height="88">
<path d="M89.3869 1.53418H2.0415V88.8796H89.3869V1.53418Z" fill="white"/>
</mask>
<g mask="url(#mask4_1023_6330)">
<path d="M89.0445 40.4116C87.9313 38.6133 85.5336 39.1271 83.7353 39.384C80.1388 40.3259 77.2272 38.3564 74.1445 37.4144C73.3738 37.1575 72.5174 37.1575 71.8324 36.815C73.3738 34.5029 75.1721 31.8483 73.8876 28.9368C73.2881 27.8236 72.0893 27.1385 70.976 26.8816C68.8352 26.4534 66.78 27.1385 65.3243 28.7655C64.8105 29.4506 64.2967 30.4782 64.8105 31.4201C66.3519 36.0443 65.9237 41.2679 66.1806 46.0633C66.4375 47.0909 66.5232 48.461 67.722 48.8892C68.4071 49.2317 69.0065 48.7179 69.5203 48.2898C71.4042 46.1489 71.3186 43.3231 71.1473 40.4972L71.2329 40.4116C73.1168 40.8397 74.7439 42.0386 76.5422 42.8093C79.8818 44.1794 84.2491 45.5495 87.76 43.6656C88.3595 43.4087 88.8733 42.8949 89.1302 42.2955C89.5583 41.696 89.3014 41.011 89.0445 40.4116ZM69.4347 33.3897L69.349 33.304L68.3214 30.992C68.4927 30.4782 69.0065 30.2213 69.4347 30.2213C69.7772 30.2213 70.0341 30.4782 70.2053 30.8207C70.7191 31.7627 70.2054 32.8759 69.4347 33.3897Z" fill="#003333"/>
</g>
<path d="M75.9424 60.1927C74.8291 60.0214 73.6303 59.7645 72.8596 58.8225C73.3734 58.48 73.3734 57.9662 73.5447 57.4524C73.459 56.853 73.6303 55.9966 73.1165 55.4829C72.6883 55.0547 72.0889 55.0547 71.4894 55.0547C70.8044 55.226 70.0337 55.5685 69.6056 56.1679C69.7768 56.9386 69.7768 57.7093 69.9481 58.48L69.8625 58.5656C69.5199 57.9662 69.4343 57.2811 68.9205 56.7673C68.7492 56.6817 68.578 56.5961 68.3211 56.6817C67.2935 57.3668 68.4067 58.2231 68.578 58.9938C68.7492 59.9358 69.0061 61.1346 68.2354 61.8197C68.0641 61.9053 67.8929 61.9053 67.7216 61.734C67.4647 60.9634 67.5504 60.107 67.5504 59.2507C67.4647 58.6513 67.636 57.8806 67.2935 57.3668C66.8653 57.1099 66.5228 57.4524 66.1802 57.6237C66.009 58.3087 66.0946 59.0794 65.9233 59.8501C66.1802 61.049 65.752 62.5904 66.7796 63.3611C67.2078 63.4467 67.7216 63.4467 68.0641 63.2754C68.9205 63.0185 69.6912 62.0766 69.8625 61.2202C69.8625 61.1346 69.9481 61.1346 70.0337 61.2202C69.9481 61.6484 69.9481 62.1622 70.3762 62.3335C70.6331 62.4191 70.9757 62.5047 71.2326 62.4191C71.6607 61.9053 71.7464 61.2203 71.6607 60.5352C71.6607 60.4496 71.7463 60.2783 71.9176 60.2783C73.1165 61.4771 74.7435 62.4191 76.4562 61.8197C76.8843 61.6484 77.0556 61.1346 76.97 60.6208C76.7987 60.2783 76.2849 60.107 75.9424 60.1927ZM71.832 58.1375C71.7464 58.1375 71.6607 58.0518 71.6607 57.9662C71.7464 57.4524 71.4038 57.1099 71.4894 56.5961C71.6607 56.5104 71.9176 56.4248 72.0889 56.5104C72.4314 57.0242 72.1745 57.7093 71.832 58.1375Z" fill="#003333"/>
<path d="M27.8173 41.3535C28.0742 41.0109 28.588 41.1822 28.6736 40.6684C29.1874 40.4115 29.3586 39.7264 29.9581 39.6408C30.3862 39.8977 30.6431 40.3259 31.0713 40.3259C31.4995 40.3259 31.842 39.8121 32.0989 39.5552C33.2121 38.0138 33.8972 36.1299 33.6403 34.0747C33.469 33.4753 32.527 33.6465 32.3558 32.9615C32.3558 31.9339 32.8696 31.0775 33.6403 30.3068L34.8391 30.2212L35.0104 30.3068C35.0104 31.7626 34.9248 33.2184 34.8391 34.5885C34.9248 35.6161 34.5822 36.7293 34.9248 37.7569C35.096 38.0994 35.5242 38.5276 35.8667 38.5276C36.5518 38.6132 36.8943 37.9282 37.1512 37.4144C37.665 34.7597 37.4938 31.9339 37.665 29.1936L37.8363 28.9367C38.3501 28.6798 38.8639 28.3373 39.3777 27.8235C39.4633 27.7379 39.6346 27.8235 39.6346 27.9091C39.3777 30.3068 38.8639 32.7046 38.6926 35.1879C38.607 35.7017 38.607 36.3011 39.0352 36.7293C39.3777 36.9006 39.7202 37.0718 40.1484 36.9862C41.0903 36.6437 41.0903 35.6161 41.2616 34.7597C41.4328 34.3316 41.176 33.7322 41.5185 33.304C41.6898 33.2184 41.861 33.1327 42.1179 33.1327C42.4604 33.6465 42.6317 34.1603 42.9742 34.6741C43.2311 35.0166 43.5737 35.6161 44.1731 35.5304C44.7725 35.5304 45.0294 34.8454 45.372 34.4172C45.9714 34.5885 46.9134 34.5885 47.5128 34.2459C48.626 33.8178 48.9685 32.6189 49.3111 31.5913H49.3967C49.568 32.1051 49.4823 32.7046 49.9961 33.1327C50.253 33.304 50.5956 33.3896 50.8525 33.304C52.0513 32.7046 52.0513 31.2488 52.2226 30.0499C52.2226 29.8787 52.3938 29.7074 52.5651 29.7074C53.5927 30.4781 54.3634 31.7626 55.6479 31.5913C56.2473 31.2488 56.5898 30.6494 56.7611 30.1356C57.2749 29.2793 56.6755 27.5666 58.2169 27.6522C58.8163 28.2517 58.9876 29.1936 59.7583 29.6218C60.4433 29.8787 60.7002 29.0224 61.3853 29.0224C62.4985 28.3373 62.2416 26.9672 62.4985 25.8539L62.6698 25.6827C63.0979 26.3677 63.1836 27.1384 63.6974 27.7379C63.8686 27.9948 64.2112 28.166 64.4681 27.9948C64.8962 27.7379 65.0675 27.3097 65.1531 26.8815C65.1531 24.3126 65.3244 21.6579 65.41 19.1746C65.6669 19.0033 66.0094 19.0033 66.2663 19.0033C66.352 21.2298 66.1807 23.3706 66.4376 25.597C66.4376 26.0252 66.6089 26.539 67.0371 26.7959C67.294 26.9672 67.7221 26.8815 67.979 26.7959C68.5784 26.4534 68.5784 25.8539 68.8353 25.3401C69.0922 25.5114 69.4348 25.9396 69.8629 25.7683C71.8325 24.9976 72.6032 22.7712 73.3739 21.0585C73.6308 20.1165 74.2302 18.6608 73.2882 17.8901C72.9457 17.5476 72.4319 17.8901 72.0894 17.6332C72.175 17.1194 72.175 16.52 72.2606 16.0062C72.6032 15.7493 73.0313 15.3211 73.5451 15.3211C74.2302 15.3211 73.9733 14.3792 73.8877 14.0366C73.6308 13.6085 73.2026 13.4372 72.7744 13.3516C71.8325 13.5228 70.9761 14.0366 70.3767 14.893H70.2911C70.0342 14.6361 69.6917 14.4648 69.2635 14.3792C67.6365 14.893 66.2663 15.9205 64.9819 17.205C64.5537 17.205 64.2112 17.0338 63.8686 17.205C63.0123 17.7188 63.3548 18.9177 63.2692 19.774L62.841 19.9453C62.3272 19.3459 62.3272 18.4895 61.5565 17.8901C61.2996 17.8045 61.1284 17.6332 60.7859 17.7188C60.529 17.7188 60.3577 18.0614 60.2721 18.3183L59.9295 24.4838L59.7583 24.7407H59.6726C58.8163 23.1137 58.1312 21.401 57.1036 19.774C56.9324 19.4315 56.5898 19.2602 56.2473 19.2602C55.9048 19.4315 55.9048 19.8597 55.7335 20.2022L54.6203 28.0804L54.5347 28.5086C54.3634 28.6798 54.2778 28.4229 54.1921 28.3373C53.6783 27.9091 53.3358 27.481 53.0789 26.8815C53.5927 26.0252 54.3634 25.2545 54.5347 24.2269C54.7059 23.285 54.3634 22.2574 53.5927 21.6579C52.9077 21.0585 51.88 21.1441 51.1093 21.2298C50.5099 21.4867 49.4823 21.4867 49.3967 22.4286C49.3967 24.4838 49.568 26.539 49.3111 28.5086L49.2254 28.6798C49.1398 27.9091 49.0542 27.0528 49.0542 26.2821C48.7973 25.1689 48.8829 23.7988 48.1122 22.9424C47.8553 22.7712 47.5128 22.8568 47.1703 22.9424C46.8277 23.0281 46.5708 23.4562 46.4852 23.7131C46.3139 24.9976 46.5708 26.3677 46.7421 27.6522C46.8277 29.0224 46.9134 30.4781 46.3139 31.5913C46.057 31.677 45.8858 31.677 45.7145 31.5057C45.4576 30.735 45.4576 29.7074 45.4576 28.8511C45.372 27.2241 46.4852 25.1689 45.1151 23.8844C44.7725 23.7131 44.43 23.7988 44.0875 23.8844C43.7449 24.0557 43.6593 24.3982 43.488 24.6551C43.3168 25.8539 43.2312 27.1384 43.3168 28.4229C43.4024 28.5086 43.2311 28.5942 43.1455 28.5942C42.2892 27.5666 42.2036 26.1965 41.176 25.1689L40.8334 25.0832C40.234 24.9976 39.9771 25.7683 39.6346 26.1108C38.607 25.2545 37.3225 26.1108 36.2949 26.3677C35.096 26.9672 33.5546 27.2241 32.8696 28.5942C32.6127 28.5086 32.0989 28.5086 31.9276 28.5942C30.4719 29.3649 29.8724 30.9063 29.4443 32.362C29.273 32.7902 29.273 33.304 29.1017 33.6465C28.5023 33.304 27.9029 33.7322 27.3891 34.0747C27.1322 33.8178 27.1322 33.3896 27.2178 33.1327C27.9029 31.8482 30.0437 31.3344 29.5299 29.6218C29.4443 29.3649 29.1874 29.1936 28.9305 29.0224C28.5879 28.9367 28.1598 29.0224 27.9029 29.2793C26.8753 30.3068 25.5052 31.4201 24.9057 32.7046C25.077 34.6741 25.3339 36.558 25.3339 38.6132L25.1626 38.7845C24.6488 38.2707 24.0494 37.8425 23.6213 37.2431C23.9638 35.9586 24.7345 34.5885 24.2207 33.0471C24.2207 32.7902 23.8781 32.6189 23.8781 32.362C23.3643 31.677 22.508 31.5057 21.7373 31.677C20.7954 32.1051 19.4252 32.2764 19.0827 33.5609C19.3396 36.3868 19.3396 39.2983 18.9971 42.1242C19.0827 42.7236 18.9115 43.4087 19.3396 43.8368C19.6822 44.1793 20.2816 44.3506 20.7097 44.0937C21.0523 43.8368 21.3092 43.4087 21.3948 42.9805L21.4804 39.0414C21.4804 38.9558 21.4804 38.6989 21.6517 38.6989L23.7925 40.6684C24.3919 41.0966 24.9057 41.9529 25.7621 41.7816C26.4471 42.1242 27.3035 41.7816 27.8173 41.3535ZM69.3491 16.8625C69.2635 17.8045 68.7497 19.089 69.606 19.8597C69.9486 20.1165 70.2911 20.2878 70.7193 20.3734C70.8049 21.1441 70.3767 21.8292 70.0342 22.4286L69.3491 23.285C69.0922 23.4562 68.7497 23.5419 68.5784 23.7131C68.3215 21.7436 68.3215 19.6884 68.2359 17.6332C68.5784 17.3763 68.9209 17.0338 69.3491 16.8625ZM56.8467 23.285C57.2749 23.3706 57.5318 23.97 57.7887 24.3126C57.7887 24.6551 57.6174 25.0832 57.2749 25.0832C56.9324 25.1689 56.8467 24.7407 56.7611 24.4838C56.8467 24.0557 56.6755 23.6275 56.8467 23.285ZM51.5375 23.6275C51.7088 23.4562 51.88 23.4562 52.0513 23.5419C52.5651 24.0557 52.4795 24.7407 52.3082 25.3401C52.137 25.5114 52.137 25.7683 51.8801 25.597C51.7944 24.9976 51.3662 24.3982 51.5375 23.6275ZM41.2616 28.6798C41.7754 28.6798 41.861 29.2793 42.0323 29.7074C42.0323 30.0499 42.0323 30.3925 41.6897 30.4781C41.5185 30.4781 41.3472 30.4781 41.2616 30.3068C41.1759 29.7074 41.0903 29.108 41.2616 28.6798ZM27.9029 36.2155L29.1017 34.7597C29.5299 35.1023 30.0437 35.2735 30.6431 35.1879C30.7288 35.6161 30.7288 36.2155 30.4719 36.6437L30.3006 36.7293C30.0437 36.6437 29.7012 36.3868 29.3586 36.558C28.8448 36.8149 28.5023 37.3287 28.0741 37.7569C27.7316 37.8425 27.9029 37.4144 27.8173 37.3287C27.646 36.9006 27.5604 36.4724 27.9029 36.2155ZM21.823 37.0718C21.5661 37.0718 21.6517 36.8149 21.5661 36.6437L21.3948 34.931C21.4804 34.7597 21.6517 34.4172 21.9086 34.5028C22.4224 35.1879 22.3368 36.3868 21.823 37.0718Z" fill="#003333"/>
<path d="M64.2963 63.1043C64.0394 62.9331 64.2107 62.7618 64.125 62.5049C64.2963 62.0767 64.7245 62.0767 65.067 61.8198C65.752 61.5629 65.5808 60.7922 65.8377 60.2785C65.3239 59.8503 64.8101 60.3641 64.3819 60.5354L64.2963 60.4497C64.5532 59.7647 65.2382 59.5078 65.752 58.994C65.8377 58.6514 65.8377 58.3945 65.752 58.052C65.752 57.7951 65.4095 57.7095 65.2382 57.7095C64.2963 58.1376 63.44 58.7371 62.7549 59.5934C62.4124 59.4221 62.0698 59.1652 61.6417 59.3365C60.7854 59.5078 60.4428 60.5353 60.0147 61.1348C59.4152 60.621 58.4733 60.4497 57.7026 60.7922C56.3325 61.7342 55.9899 63.2756 55.9043 64.817C55.9899 66.444 56.2468 68.2423 57.8739 69.013C58.8158 69.2699 59.7578 69.0986 60.4428 68.4135C60.7854 67.9854 60.9566 67.5572 60.9566 66.9578C60.9566 66.6153 60.7853 66.2727 60.5284 66.0158C60.2715 66.0158 60.1003 65.9302 59.929 66.1015C59.3296 66.2727 59.929 67.0434 59.5865 67.386C59.3296 67.6429 58.9871 67.4716 58.7302 67.4716C58.302 67.386 58.1307 66.8722 57.9595 66.5296C57.7026 65.1595 57.7026 63.5325 58.3876 62.4193C58.6445 62.248 58.9015 62.0767 59.1583 62.248C59.1583 62.6762 59.5865 63.0187 59.929 63.2756C60.0147 63.9607 60.1003 64.6457 60.3572 65.2451C60.6141 65.5877 60.9566 66.0158 61.4704 65.8446C62.3267 66.0158 62.8405 64.9882 63.1831 64.3888C63.3543 64.3032 63.5256 64.6457 63.6112 64.7314C64.6388 65.2451 65.3239 64.0463 66.0946 63.4469C66.2658 63.19 66.1802 62.9331 66.0089 62.7618C65.5808 61.9055 64.8957 63.1043 64.2963 63.1043ZM61.7273 63.875C61.5561 63.9607 61.3848 63.875 61.2992 63.7038C61.2135 62.5905 61.1279 61.2204 61.9842 60.4497C62.6693 60.5354 62.4124 61.3917 62.5836 61.9055C62.498 62.6762 62.3268 63.3612 61.7273 63.875Z" fill="#003333"/>
<path d="M56.7607 50.2591C56.932 50.0879 56.8464 49.7453 57.1033 49.5741C58.3021 50.9442 59.6723 52.0574 61.5562 51.8862C62.755 51.7149 63.8682 50.7729 64.382 49.5741C64.7246 48.7178 65.0671 47.7758 65.2384 46.8338C65.9234 42.3809 65.4096 37.7568 64.5533 33.4751C64.2964 32.3619 64.0395 31.2487 63.0975 30.3923C62.5838 29.8785 61.8131 30.0498 61.2136 30.2211C60.5286 30.5636 60.2717 31.3343 60.2717 32.0194C60.4429 34.674 61.5562 36.9861 61.8987 39.555C62.2412 41.8671 62.4125 44.5217 61.9843 46.7482C61.8131 47.0907 61.4705 47.4333 61.128 47.4333C59.9292 47.262 59.8435 45.8919 59.4154 44.9499C58.9016 42.8091 58.559 40.5826 58.3878 38.3562C58.2165 36.4723 59.2441 34.2458 57.7883 32.7044C57.3602 32.3619 56.932 32.0194 56.2469 32.105C55.5619 32.1906 54.9625 32.7901 54.6199 33.3039L54.7912 33.2182C55.2194 36.9861 55.3906 40.9252 56.5039 44.4361C56.5039 44.6074 56.6751 44.8643 56.4182 44.8643C54.2774 44.2648 53.1642 46.7482 52.051 48.1183C51.9653 48.1183 51.8797 48.1183 51.8797 48.0327C51.6228 46.9195 51.3659 45.8062 51.3659 44.5217C52.3935 43.3229 53.8492 42.2953 54.6199 40.9252C54.9625 40.3257 54.7056 39.6407 54.5343 39.0413C54.1918 38.6987 53.9349 38.2706 53.4211 38.3562C52.3079 38.6131 51.4515 39.4694 50.5952 40.1545C50.5096 40.2401 50.3383 40.1545 50.2527 40.0688C50.167 39.3838 49.8245 38.6987 49.9958 37.928C51.5372 36.5579 53.5067 35.2734 54.4487 33.3895L53.8492 32.6188C53.2498 32.1906 52.3935 32.3619 51.7941 32.6188C50.3383 33.5608 49.0538 34.8452 47.7693 36.1297C46.9986 36.9861 45.8854 37.7568 45.6285 38.87C45.4573 39.1269 45.7998 39.6407 45.3716 39.6407C44.0015 38.4418 41.8607 37.8424 40.148 38.6131C38.1785 39.3838 37.1509 41.6102 36.7227 43.4942C36.5515 43.7511 36.6371 44.1792 36.2946 44.2648C35.1814 43.066 33.7256 42.4666 32.0986 42.5522C30.129 42.5522 28.5877 44.3505 27.817 45.8919C25.8474 49.5741 25.5049 55.3115 27.56 59.0793C28.502 61.2201 30.5572 63.361 33.0405 63.361C35.1814 63.361 36.894 61.5627 37.7503 59.6788C38.1785 58.6512 38.521 56.9385 37.4934 56.0822C37.1509 55.654 36.5515 55.5684 35.9521 55.654C34.325 56.0822 34.5819 57.8805 33.4687 58.8224C32.9549 58.9081 32.3555 58.9081 32.0129 58.3943C31.071 57.0241 30.5572 55.3971 30.4716 53.6845C30.4716 51.8005 30.3859 49.7453 31.1566 48.1183C31.4135 47.6902 31.7561 47.0907 32.4411 47.262C33.3831 47.7758 34.2394 48.889 35.5239 48.4609C35.8664 48.4609 36.1233 48.0327 36.4659 48.1183C37.0653 52.3143 38.0929 57.4523 42.8027 58.8224C44.6866 59.2506 46.3992 58.223 47.3412 56.596C47.7693 55.9965 47.855 55.1402 48.3688 54.6264C48.7969 55.2258 48.8826 56.0822 49.6533 56.4247C50.167 56.596 50.6808 56.4247 51.109 56.1678C53.1642 54.7977 55.1337 52.5712 56.7607 50.2591ZM44.5153 54.1126L43.9159 54.7977C43.659 55.0546 43.0595 55.0546 42.717 54.8833C41.0044 53.7701 40.6618 51.7149 40.2337 49.7453C39.9768 47.4333 40.0624 44.9499 41.1756 42.9804C41.4325 42.7235 41.7751 42.5522 42.032 42.4666C43.5734 42.6378 44.1728 44.4361 44.6866 45.635C45.6285 48.3752 45.7998 51.6293 44.5153 54.1126Z" fill="#003333"/>
<path d="M53.5926 63.104C53.4213 63.104 53.25 63.2753 53.25 63.4465C53.5069 64.6454 53.9351 66.1012 53.5926 67.3856C53.4213 67.6425 53.3356 68.1563 52.8218 68.1563C52.6506 68.0707 52.4793 67.8994 52.3937 67.7282C52.1368 66.7862 52.3937 65.7586 52.4793 64.731C52.4793 64.3029 52.565 63.7891 52.1368 63.5322C51.8799 63.4465 51.623 63.6178 51.5373 63.7891C51.1948 64.731 51.2805 65.8443 51.1948 66.9575C51.3661 67.8994 51.4517 69.0983 52.4793 69.3552C52.9075 69.6121 53.5069 69.3552 53.9351 69.1839C54.4489 69.0127 54.6201 68.4132 55.0483 68.0707C55.3908 66.6149 55.819 64.6454 54.7058 63.3609C54.3632 63.1896 54.0207 63.104 53.5926 63.104Z" fill="#003333"/>
<path d="M49.2253 64.8167C48.4546 64.6454 47.7695 64.8167 47.2557 65.3305C46.9988 67.0431 47.1701 68.8414 47.0845 70.6397L47.1701 70.9822C47.427 71.2391 47.6839 71.496 48.112 71.496C49.1396 71.5816 49.8247 70.8966 50.5098 70.2115L50.7667 69.6121C51.0236 68.8414 51.3661 67.7282 50.9379 66.8719C50.7667 65.8443 49.996 65.1592 49.2253 64.8167ZM49.4822 68.3276C49.3965 69.0127 49.054 69.7834 48.4546 70.1259C48.1977 69.869 48.369 69.4408 48.369 69.0983V66.3581C48.6259 66.2724 48.8828 66.1868 49.1396 66.2724C49.7391 66.7006 49.4822 67.6425 49.4822 68.3276Z" fill="#003333"/>
<path d="M44.0014 66.7862C43.2307 67.5569 42.6313 68.4132 42.6313 69.4408C42.5457 70.2971 43.4876 70.6396 44.0014 71.0678C44.0871 71.496 43.8302 71.9241 43.5733 72.2667C43.4876 72.3523 43.2308 72.3523 43.2308 72.181C43.0595 71.5816 42.3744 71.6672 42.0319 71.4103L41.9463 68.6701C41.6894 68.3276 41.775 67.4712 41.0043 67.7281C40.7474 67.7281 40.4905 67.8994 40.4049 68.1563C40.2336 69.1839 40.4049 70.2971 40.4049 71.3247C40.3192 71.8385 40.5761 72.4379 40.2336 72.7805L40.148 72.6948L39.2916 69.7833C38.9491 69.2695 38.521 68.4988 37.7503 68.6701C37.4077 68.8414 37.2364 69.1839 37.0652 69.5264C36.7227 71.1534 36.8939 72.9517 36.5514 74.5788C36.2945 74.9213 36.1232 75.3495 35.6951 75.5207C35.4382 75.0069 35.6094 74.3219 35.5238 73.7224C35.3525 72.6092 35.8663 71.4103 35.3525 70.554C35.1813 70.2971 34.8387 70.2115 34.5818 70.2971C34.3249 70.3828 34.1537 70.554 34.068 70.7253C33.8968 72.3523 33.8968 73.8937 33.8968 75.6063C33.383 75.8632 32.9548 76.2058 32.441 76.4627C32.0985 76.2914 32.3554 76.0345 32.3554 75.7776C32.7835 75.4351 33.383 75.1782 33.5542 74.5788C33.6399 74.2362 33.5542 73.8081 33.2117 73.7224C32.7835 73.4655 32.5267 74.1506 32.0985 73.8937C32.5267 73.123 33.9824 73.0374 33.5542 71.8385C33.4686 71.4103 32.9548 71.2391 32.6123 71.2391L30.8996 72.4379C30.6427 73.8081 30.8996 75.2638 30.8996 76.7196C30.7284 77.0621 30.3858 76.8052 30.1289 76.8052C29.5295 76.5483 30.3002 76.2058 30.3002 75.8632C30.5571 75.0926 30.3858 74.065 29.872 73.4655C29.3582 73.0374 28.7588 73.2086 28.245 73.3799C27.8169 73.6368 27.2174 73.8081 27.3031 74.4931C27.4743 76.2058 26.9605 77.8328 26.7036 79.5455C26.9605 79.888 27.2174 80.4018 27.7312 80.3161C28.3306 79.8024 28.245 79.0317 28.5019 78.3466C28.6732 78.0897 28.4163 77.5759 28.7588 77.4046L29.4439 78.0041C30.3858 78.6035 31.5847 78.4322 32.6123 78.1753L34.068 76.8908C34.4962 76.5483 34.7531 77.1477 35.1813 77.1477C35.8663 76.9765 36.5514 76.6339 36.8939 75.9489H37.4933C38.264 75.5207 37.7503 74.5788 38.0928 73.9793C38.4353 73.9793 38.6922 73.6368 38.9491 73.8081C39.1204 74.2362 39.206 74.9213 39.8054 74.9213C40.0623 74.9213 40.4049 74.75 40.5761 74.4931L41.2612 74.6644C41.5181 74.5788 41.775 74.4931 41.8606 74.3219C42.0319 73.9793 41.8606 73.5512 42.1175 73.2943C42.46 73.5512 42.717 73.8937 43.1451 73.8081C43.9158 73.8081 44.6865 73.3799 45.1147 72.6092C45.3716 71.9241 45.6285 70.8965 45.1147 70.2115C45.029 69.6121 44.1727 69.7833 44.1727 69.1839C44.2584 68.8414 44.344 68.4132 44.6865 68.3276C44.9434 68.5845 45.029 68.927 45.3716 68.927C45.7997 68.927 45.7141 68.4132 45.8854 68.2419C45.8854 67.6425 45.5428 67.3 45.2003 66.8718C44.8578 66.7862 44.4296 66.6149 44.0014 66.7862ZM28.9301 75.9489C28.5875 75.7776 28.9301 75.3495 28.7588 75.0926C28.8445 75.0069 28.9301 74.9213 29.0157 75.0069C29.187 75.1782 29.187 75.692 28.9301 75.9489ZM38.3497 72.5236C38.1784 72.6092 38.1784 72.4379 38.1784 72.3523C38.2641 72.0098 38.1784 71.6672 38.3497 71.4103C38.5209 71.6672 38.7778 72.2667 38.3497 72.5236Z" fill="#003333"/>
<path d="M24.991 78.5181C24.5629 78.1756 24.1347 78.5181 23.7066 78.5181C23.364 78.09 23.9635 77.8331 23.8778 77.4049C24.1347 76.6342 24.7342 77.3193 25.248 77.2337C25.3336 77.148 25.3336 77.0624 25.4192 77.0624C25.4192 76.5486 25.1623 76.0348 24.7342 75.6923C24.4773 75.4354 24.0491 75.521 23.7066 75.6066C22.7646 76.2917 22.0796 77.5762 22.3365 78.775C22.5933 79.2032 23.0215 79.5457 23.364 79.6314C23.5353 79.8026 23.8778 79.6314 24.0491 79.8026C24.0491 80.1452 23.7922 80.4877 23.5353 80.659C22.7646 79.4601 21.9083 81.0871 21.1376 81.2584C20.8807 81.2584 20.8807 81.6866 20.6238 81.4297C20.3669 80.3164 21.9083 80.659 22.0795 79.717C22.0795 79.3745 21.9083 79.1176 21.5657 78.8607C21.2232 78.775 20.7951 79.2032 20.5382 78.8607C20.8807 78.1756 22.2508 78.0043 21.9939 76.9768C21.9083 76.6342 21.5657 76.5486 21.3089 76.463C20.4525 76.7199 19.7675 77.2337 18.9968 77.7474C19.0824 78.9463 19.168 80.2308 19.168 81.5153L18.0548 82.4573C17.9692 82.4573 17.7979 82.6285 17.7979 82.4573C17.8835 81.0015 17.7123 79.5457 17.6267 78.1756C17.541 77.9187 17.1985 77.9187 16.9416 77.8331C16.5134 77.8331 16.2565 78.0044 16.1709 78.4325L16.5134 83.3992C16.5991 83.6561 16.856 83.913 17.1129 83.9986C17.541 84.1699 17.9692 83.913 18.3973 83.7417C18.7399 83.2279 19.4249 83.3136 19.4249 82.6285C19.5962 82.5429 19.7675 82.8854 19.9387 82.9711C20.9663 83.3992 21.6514 82.4572 22.4221 81.9435L22.5933 81.6009C22.7646 81.6009 23.0215 81.6866 23.1071 81.7722C23.7922 81.9435 24.5629 81.7722 25.0767 81.2584C25.6761 80.7446 25.933 80.0595 25.933 79.2888C25.5905 79.0319 25.3336 78.775 24.991 78.5181Z" fill="#003333"/>
<path d="M17.0276 58.2235C17.6271 59.2511 18.569 60.45 19.7679 60.7069C20.9667 60.7925 22.2512 60.3644 22.9363 59.3368L23.5357 57.7954C24.2208 54.7126 24.0495 51.116 23.1076 48.2045C22.8507 47.5195 22.3369 46.4919 21.4805 46.4062C21.138 46.4062 20.7955 46.5775 20.4529 46.8344C19.6822 47.6907 20.0248 48.8896 20.2817 49.9172C20.8811 51.9724 21.0524 54.5413 20.7098 56.7678C20.6242 56.9391 20.453 57.2816 20.1961 57.2816C19.9392 57.196 19.8535 56.9391 19.6823 56.7678C18.9116 54.7982 19.511 52.4005 19.2541 50.2597C19.2541 49.3178 18.9116 48.3758 18.0552 47.9476C17.5414 47.7764 16.942 47.9476 16.5995 48.3758C15.6575 49.9172 15.8288 51.8867 15.6575 53.7707C15.0581 53.1712 14.4587 52.4005 13.7736 51.8867C12.3178 50.9448 10.2627 50.0885 8.63564 51.2017C8.55001 51.2017 8.37872 51.2017 8.29309 51.2873C7.17986 53.1712 8.20746 55.4833 8.37873 57.4529L8.29309 62.3339L8.63564 63.3615C8.89254 63.7897 9.3207 64.1322 9.83449 64.2178C11.8897 64.646 13.7736 63.7897 15.2293 62.2483C16.1713 61.0494 16.6851 59.7649 16.942 58.3092C16.8564 58.3092 16.942 58.2235 17.0276 58.2235ZM13.0885 57.7954C12.8316 58.7373 11.9753 59.6793 11.119 60.1075C10.9477 60.1075 10.8621 60.0218 10.7765 59.9362C10.8621 57.881 10.7764 55.8258 10.4339 53.9419C11.119 53.8563 11.804 54.1132 12.2322 54.7126C13.0885 55.3977 13.4311 56.6822 13.0885 57.7954Z" fill="#003333"/>
<path d="M10.5192 46.0632C10.7761 46.4913 11.033 47.0051 11.4612 47.1764C11.8893 47.262 12.2319 47.0908 12.5744 46.8339C13.1738 46.4057 13.3451 45.5494 14.0302 45.2925C14.6296 45.635 15.4003 46.1488 15.9997 45.7206C16.9416 44.5218 17.798 43.2373 18.1405 41.7815C18.3118 40.9252 18.483 39.812 17.798 39.1269C17.3698 38.6131 16.171 38.7844 16.5135 37.8424C16.7704 37.1574 17.2842 36.301 18.0549 36.2154C18.1405 36.0441 18.0549 35.8729 18.0549 35.7016C17.7124 35.1878 17.4555 34.3315 16.5991 34.5027C16.171 34.5027 15.8284 34.9309 15.4859 35.2734C14.8009 36.4723 14.0301 37.7568 13.8589 39.1269C13.8589 39.6407 13.7733 40.2401 14.1158 40.6683C14.544 41.1821 15.229 41.0108 15.7428 40.9252V41.0965C15.4859 41.7815 15.4003 42.6379 14.8865 43.066C14.544 43.066 14.2871 42.8091 14.1158 42.5522C13.4307 42.2097 12.9169 42.9804 12.4031 43.3229C12.1462 42.9804 12.4031 42.4666 12.3175 42.0384C12.5744 41.1821 13.7732 40.497 13.4307 39.5551C13.3451 38.7844 12.66 39.4694 12.4031 39.0413C12.3175 38.0993 12.7457 37.243 13.5164 36.6436C13.602 36.1298 13.7733 35.4447 13.3451 35.1022C12.3175 34.7596 11.6324 35.7016 11.033 36.3867C9.49163 38.3562 10.1767 41.3534 10.0911 43.8367L10.0054 44.008C9.06346 43.9223 8.6353 44.7787 7.95024 45.2068C7.60771 43.3229 8.03589 41.439 8.12152 39.6407C8.20715 38.87 8.29278 38.0137 7.60772 37.4999C7.26519 37.3286 6.92265 37.3286 6.58012 37.4999C6.15196 37.7568 5.9807 38.2706 5.89507 38.6987C5.63817 40.8396 5.63818 43.1516 5.63818 45.2925C5.72382 46.6626 5.63817 48.3752 7.09392 48.9747C7.60771 49.0603 8.03588 48.889 8.37841 48.5465C9.23473 47.7758 9.83416 46.8339 10.5192 46.0632Z" fill="#003333"/>
<mask id="mask5_1023_6330" style="mask-type:luminance" maskUnits="userSpaceOnUse" x="2" y="1" width="88" height="88">
<path d="M89.3869 1.53418H2.0415V88.8796H89.3869V1.53418Z" fill="white"/>
</mask>
<g mask="url(#mask5_1023_6330)">
<path d="M23.4497 88.366C23.4497 88.366 51.2803 69.955 79.1965 65.4165" stroke="#E5007D" stroke-width="0.6903"/>
</g>
<path d="M24.3062 88.2808C24.3062 88.6233 23.9636 88.9658 23.6211 88.9658C23.2786 88.9658 22.936 88.7089 22.936 88.2808C22.936 87.9382 23.2786 87.5957 23.6211 87.5957C23.9636 87.5957 24.3062 87.9382 24.3062 88.2808Z" fill="#E5007D"/>
<path d="M79.6245 65.502C79.6245 65.8445 79.282 66.187 78.9394 66.187C78.5969 66.187 78.2544 65.9301 78.2544 65.502C78.2544 65.1594 78.5969 64.8169 78.9394 64.8169C79.282 64.8169 79.6245 65.1594 79.6245 65.502Z" fill="#E5007D"/>
</svg>
