<svg width="188" height="61" viewBox="0 0 188 61" fill="none" xmlns="http://www.w3.org/2000/svg">
<g clip-path="url(#clip0_1023_6397)">
<path fill-rule="evenodd" clip-rule="evenodd" d="M32.8104 19.3283C32.836 19.5038 32.8291 19.7902 32.9238 20.0423C33.0921 20.5268 33.2683 20.582 33.7692 20.4472C34.3228 20.2937 34.878 20.1671 35.4477 20.0236C35.6964 20.4331 35.6877 20.8253 35.4846 21.186C34.8878 22.2533 32.8627 23.3728 31.5286 22.0602C30.8468 21.3925 30.58 20.5129 30.714 19.5516C30.8903 18.2852 30.9005 18.2825 29.5979 18.4454C29.3499 18.4743 29.1011 18.558 28.8491 18.5897C28.5728 18.6211 28.2893 18.6426 28.0118 18.6284C27.5868 18.6076 27.2047 18.4649 27.0906 17.9975C26.9739 17.5135 27.1302 17.0617 27.513 16.7714C27.8509 16.5145 28.2477 16.314 28.6454 16.1725C29.8312 15.7598 31.0627 15.7006 32.2988 15.7557C34.2799 15.843 36.2522 15.9998 38.0796 16.8826C38.3112 16.9902 38.538 17.1078 38.7593 17.2352C39.0978 17.4263 39.4122 17.6455 39.2587 18.1101C39.1389 18.4649 38.5247 18.81 38.1533 18.7496C37.3917 18.6309 36.6315 18.4976 35.8693 18.3823C35.5289 18.3329 35.1856 18.3049 34.8417 18.2986C34.6774 18.2958 34.4891 18.3167 34.349 18.3971C33.8575 18.6721 33.3889 18.9722 32.8104 19.3283Z" fill="#00ACDD"/>
<path d="M43.103 45.3334C42.43 46.3866 41.8884 47.348 41.2366 48.2395C40.3839 49.4127 39.4615 50.291 38.5369 51.414C37.2451 52.9834 34.6756 54.196 32.6945 54.9504C30.6096 55.7388 28.4221 56.2067 26.1985 56.1054C23.397 55.9815 20.8721 55.1013 18.7068 53.2904C16.4437 51.4045 14.6236 49.1929 12.847 46.9366C11.4446 45.1492 10.4262 43.1476 9.48498 41.1136C9.13983 40.3668 9.18409 39.7854 9.05188 38.9348C8.97615 38.4689 8.49417 37.9232 8.31994 37.4612C8.20921 37.1629 8.14237 36.8445 8.09534 36.5275C8.0122 35.9762 8.02497 35.4072 7.8861 34.8655C7.58503 33.6575 7.10101 32.4761 6.89196 31.2548C6.53201 29.1256 6.80012 26.9824 7.16415 24.8741C7.49319 22.9823 7.60447 21.187 7.97257 19.3026C8.429 16.9516 9.20335 14.6968 10.1184 12.4693C10.9229 10.5159 12.2898 8.91625 13.6385 7.322C15.4874 5.14727 18.1335 4.19405 20.9163 3.59468C22.1069 3.33731 23.3544 3.18696 24.5772 3.19177C26.5482 3.20381 28.5111 3.53432 30.352 4.18128C31.9146 4.73103 33.5216 4.81287 34.9409 5.63684C36.0959 6.30842 37.249 6.78855 38.3384 7.57697C38.7104 7.85175 39.712 8.02692 40.1706 8.09043C41.4497 8.26744 41.3646 8.4913 40.8104 7.38977C40.5878 6.95668 40.2928 6.46933 39.8797 6.21788C37.3913 4.68474 34.9578 3.03161 31.945 2.45501C31.7439 2.41483 31.5474 2.32373 31.3699 2.22041C30.9918 1.99451 30.6525 1.70696 30.2596 1.51457C29.8923 1.33348 29.3159 1.00834 29.1094 1.1411C28.5141 1.51457 28.421 0.756887 28.0194 0.836692C27.892 0.862245 27.6862 0.768367 27.6124 0.82873C27.2576 1.12777 26.9937 0.946679 26.6786 0.756887C26.4507 0.622089 26.1651 0.56654 25.9104 0.46396C24.9899 0.106042 24.046 0.298981 23.1014 0.336569C21.5187 0.392858 19.9239 0.46933 18.4107 0.886316C15.4429 1.70677 12.7673 3.11123 10.3654 4.94211C8.57416 6.31102 7.17952 8.00173 5.89524 9.7991C3.96992 12.5028 2.75118 15.4727 1.89443 18.5999C1.12009 21.4377 0.835121 24.3218 0.734578 27.2371C0.644033 29.6942 0.933627 32.1176 1.26155 34.5518C1.85018 38.8692 3.30759 42.8982 5.4701 46.7329C6.89215 49.2624 8.63712 51.5758 10.6228 53.7292C11.8751 55.0807 13.3419 56.2004 14.8817 57.2675C18.1621 59.5296 21.8351 60.4319 25.8178 60.2212C29.4438 60.0296 32.6477 58.6801 35.476 56.5837C36.21 56.0393 37.2317 56.0623 37.8337 55.3809C38.2051 54.9559 39.0713 53.7633 39.3609 53.2824C39.6914 52.7401 40.024 52.197 40.3115 51.6347C40.7267 50.845 41.0813 50.2806 41.499 49.4922C41.9206 48.6971 42.4442 47.9455 42.8155 47.1343C43.056 46.6112 43.2995 46.0394 43.103 45.3334Z" fill="#ED7D20"/>
<path d="M26.622 37.1704C26.2467 35.8604 25.0794 32.3536 24.5719 31.0812C23.2297 27.6897 23.3639 27.197 22.684 23.6801C22.3005 21.6714 21.96 19.6483 21.7784 17.6184C21.6704 16.4089 21.9044 15.17 21.9983 13.9461C22.0024 13.8803 22.1252 13.82 22.2483 13.7054C22.3677 13.8507 22.4696 13.9727 22.5995 14.129C22.7464 13.9044 22.8671 13.6931 22.9984 13.4887C23.7929 12.2283 24.9874 11.4514 26.654 11.2255C28.0337 11.0403 29.4067 10.8755 30.813 10.9975C31.6007 11.0646 32.265 11.3416 33.032 11.7887C32.7311 12.0474 32.5165 12.3652 32.2154 12.4496C31.5275 12.6399 30.8017 12.7392 30.087 12.8257C28.9547 12.9597 27.8109 13.0623 26.6713 13.1723C26.1704 13.2178 25.8775 13.4739 25.6268 13.8313C24.8002 15.0152 24.7846 16.2928 25.0583 17.578C25.4042 19.2017 25.8334 20.8093 26.2302 22.4222C26.7731 24.6238 27.2377 26.84 27.8833 29.0175C28.8125 32.1242 30.0333 34.3137 31.5827 37.2458L29.9053 38.1166H27.8445L26.622 37.1704Z" fill="#009D9A"/>
<path d="M27.845 32.2947C27.7539 32.1539 27.6211 32.0291 27.4669 31.8536L27.845 32.2947ZM27.4669 31.8536C26.3144 32.7265 27.0284 33.5906 27.2282 34.4305C26.6222 34.4277 26.1026 34.9104 25.536 34.4533M24.0131 29.5205C23.8012 30.3988 24.0318 31.1705 24.6372 31.8884C24.7378 30.9994 24.6232 30.2084 24.0131 29.5205ZM27.1049 31.2883C27.2343 30.9941 27.3878 30.7406 27.44 30.4691C27.4602 30.3504 27.2699 30.2003 27.1806 30.0642C27.0325 30.156 26.7818 30.2312 26.7601 30.3451C26.6974 30.6804 26.6335 31.0544 27.1049 31.2883ZM25.551 31.3159C25.6355 31.2816 25.7153 31.2455 25.8017 31.2087C25.551 30.6047 25.3016 30.0007 25.0496 29.3972C24.9713 29.4207 24.8887 29.4441 24.8104 29.4669C25.2479 30.0301 24.8778 30.8224 25.551 31.3159ZM26.1985 29.9349C26.9842 29.3254 26.4726 28.948 26.2595 28.4346C25.7849 28.9695 26.155 29.3732 26.1985 29.9349ZM26.0887 27.9694C26.1624 27.9211 26.2515 27.8782 26.2415 27.8608C26.2087 27.7922 26.155 27.7321 26.1061 27.6704C26.0632 27.7011 25.98 27.7387 25.9854 27.7602C26.0028 27.8298 26.0524 27.8935 26.0887 27.9694Z" fill="#183F88"/>
<path fill-rule="evenodd" clip-rule="evenodd" d="M25.5362 34.4533C26.1028 34.9104 26.6224 34.4277 27.2284 34.4305C27.0286 33.5906 26.3146 32.7257 27.4671 31.8536M27.4671 31.8536C27.6211 32.0293 27.7537 32.1539 27.845 32.2946L27.4671 31.8536ZM27.4093 32.9335C27.4487 34.1616 27.4682 34.2259 28.0676 34.6947C28.2492 34.025 27.5756 33.5395 27.4093 32.9335ZM24.0131 29.5205C24.6232 30.2084 24.7378 30.9994 24.6372 31.8884C24.0318 31.1705 23.8012 30.3988 24.0131 29.5205ZM27.1049 31.2883C26.6337 31.0544 26.6974 30.6802 26.7603 30.3451C26.7818 30.2312 27.0325 30.156 27.1808 30.0642C27.2699 30.2003 27.4604 30.3504 27.4402 30.4691C27.3878 30.7406 27.2343 30.9941 27.1049 31.2883ZM25.551 31.3159C24.878 30.8224 25.2479 30.0301 24.8102 29.467C24.8887 29.4443 24.9711 29.4207 25.0494 29.3974C25.3016 30.0009 25.5508 30.6049 25.8015 31.2089C25.7151 31.2455 25.6355 31.2816 25.551 31.3159ZM26.1985 29.9349C26.155 29.3732 25.7849 28.9695 26.2595 28.4346C26.4728 28.948 26.9842 29.3254 26.1985 29.9349Z" fill="#183F88"/>
<path fill-rule="evenodd" clip-rule="evenodd" d="M18.8419 57.1538C18.9947 57.1699 19.1422 57.182 19.2891 57.2097L19.2789 57.3792C19.1354 57.3901 18.986 57.3871 18.8384 57.3871C18.8419 57.3095 18.8419 57.229 18.8419 57.1538Z" fill="#FFD75F"/>
<path d="M11.9668 7.85371C11.8415 7.75668 11.7476 7.65003 11.7126 7.66207C11.6041 7.71502 11.5089 7.8089 11.4097 7.88259C11.466 7.94629 11.5445 8.07035 11.5846 8.05683C11.702 8.03017 11.8041 7.94833 11.9668 7.85371Z" fill="#FFD75F"/>
<path fill-rule="evenodd" clip-rule="evenodd" d="M10.4473 51.1434C10.7254 51.0019 10.9955 50.8658 11.3629 50.6807C11.8576 51.3893 12.333 52.0355 12.7533 52.7154C12.8297 52.8367 12.6674 53.0833 12.5716 53.4401C11.774 52.5732 11.1129 51.8566 10.4567 51.1347C10.4626 51.1321 10.4473 51.1434 10.4473 51.1434Z" fill="#FFD75F"/>
<path fill-rule="evenodd" clip-rule="evenodd" d="M10.1357 49.8409C10.2959 49.8974 10.6059 49.9596 10.6024 50.0059C10.5875 50.3825 10.5133 50.758 10.4516 51.1415C10.4477 51.1436 10.4631 51.1321 10.457 51.1347C10.357 50.6955 10.2605 50.2551 10.1613 49.8126L10.1357 49.8409ZM11.9666 7.85371C11.8037 7.94833 11.7018 8.03017 11.5845 8.05683C11.5443 8.07016 11.4658 7.9461 11.4095 7.88259C11.5087 7.8089 11.6039 7.71502 11.7124 7.66207C11.7474 7.65003 11.8413 7.75668 11.9666 7.85371Z" fill="#FFD75F"/>
<path d="M11.2357 49.8408C11.0768 49.5459 10.8333 49.2663 10.7865 48.9539C10.5969 47.7646 9.76548 46.9903 8.97576 46.0806C8.95836 46.252 8.91947 46.3305 8.9428 46.3809C9.45292 47.4221 9.96175 48.4666 10.488 49.4988C10.6396 49.7918 10.9064 49.9399 11.2644 49.8125C11.3582 50.2551 11.4508 50.6954 11.544 51.1412C12.1781 51.8565 12.8183 52.5731 13.5926 53.44C13.6878 53.0834 13.84 52.8366 13.7663 52.7153C13.3608 52.0356 12.9001 51.3892 12.4214 50.6813C12.1301 50.8344 11.8376 50.985 11.5438 51.1333C11.6034 50.758 11.6747 50.3823 11.6878 50.0056C11.6915 49.9595 11.3945 49.8973 11.2357 49.8408Z" fill="#FFD75F"/>
<path d="M21.8476 58.2758L21.8744 58.2488C21.6533 58.5345 21.4139 58.6056 21.074 58.3943C20.4403 57.9981 19.8191 57.5611 19.1359 57.2687C18.3121 56.9175 17.7007 56.3476 17.0952 55.7484C16.2977 54.9616 15.4866 54.1886 14.6623 53.43C14.5403 53.3179 14.1724 53.2463 14.1254 53.3079C13.9985 53.4688 13.9356 53.7164 13.941 53.9236C13.9517 54.0617 14.1172 54.2032 14.2331 54.3191C14.6703 54.7516 15.1067 55.1834 15.5598 55.5956C16.1049 56.0972 16.633 56.6281 17.2365 57.0612C17.9062 57.5452 18.7918 57.7194 19.3347 58.4106C19.4314 58.528 19.6278 58.5775 19.7806 58.6552C21.1488 59.319 22.5793 59.7783 24.0965 59.9947C24.8594 60.1032 25.2086 59.939 25.6371 59.3202C25.7845 59.1043 26.0669 58.9172 26.3303 58.8387C27.2341 58.564 28.1485 58.3394 29.0648 58.0999C29.0589 58.0303 29.0533 57.9659 29.0502 57.895C28.4623 57.7422 28.0203 57.2354 27.281 57.4097C26.2881 57.6528 25.2758 57.4987 24.3065 57.281C22.3382 56.8371 20.4544 56.2224 18.8965 54.8677C17.8427 53.9514 16.7325 53.0976 15.8396 52.0162C15.3093 51.3634 14.7436 50.7358 14.2267 50.0694C13.0162 48.4903 11.8188 46.9012 10.6347 45.3023C10.4784 45.0932 10.4403 44.8021 10.3318 44.5568C10.0113 43.8208 9.68944 43.0846 9.34485 42.358C9.21542 42.0784 9.01249 41.8512 8.68049 42.004C8.83603 42.7259 8.97619 43.3977 9.12506 44.0682C9.15043 44.1587 9.23505 44.2304 9.2806 44.3163C9.82294 45.2654 10.4479 46.1866 10.868 47.1807C11.208 47.9825 11.6886 48.6361 12.2913 49.2342C12.4395 49.3805 12.5963 49.5097 12.7304 49.6632C14.1215 51.2352 15.4722 52.8395 16.9015 54.3771C17.9432 55.4958 19.1399 56.4613 20.4861 57.2389C20.9816 57.5283 21.3965 57.9285 21.8476 58.2758ZM5.75492 30.602C5.82466 30.5967 5.8942 30.5891 5.96342 30.5791C6.0747 29.4864 6.15784 28.389 6.29523 27.301C6.40503 26.4416 7.0031 25.5245 7.17345 24.6717C7.4986 23.0769 7.41139 21.5463 7.74264 19.95C7.76412 19.83 7.77616 19.6356 7.7032 19.5834C7.11198 19.1288 7.45046 18.5576 7.57118 18.0964C7.90244 16.8434 8.33424 15.6106 8.74567 14.3765C8.87435 13.9884 8.84751 13.5566 9.27727 13.2577C9.53668 13.0786 9.64667 12.1354 9.57427 11.7788C9.38448 12.1354 9.25653 12.4384 9.07674 12.7092C8.41978 13.6699 8.07112 14.7346 7.75283 15.8372C7.46916 16.8054 7.37139 17.8586 6.68611 18.7205C6.43669 19.037 6.25246 19.5364 6.31337 19.9091C6.42188 20.6118 6.27042 21.1788 5.91379 21.7748C5.73141 22.0744 5.69253 22.466 5.63753 22.8274C5.52088 23.6198 5.42904 24.4197 5.33998 25.2147C5.27832 25.7684 5.23536 26.3216 5.19111 26.8773C5.23406 26.8873 5.27832 26.896 5.31979 26.9082C5.43984 26.7386 5.55694 26.567 5.67105 26.3933C5.65846 27.8696 5.49625 29.2437 5.75492 30.602ZM7.54563 42.1782C7.3057 41.6126 7.06524 41.0472 6.82424 40.4821C6.6053 39.9618 6.38946 39.4402 6.17672 38.9173C6.14969 40.0603 6.4528 41.1035 6.90201 42.1125C6.92071 42.1676 7.14068 42.1393 7.54563 42.1782ZM7.68635 41.1124C8.05112 41.0628 8.25887 41.0346 8.47477 41.0065C8.24221 40.259 8.0315 39.5872 7.78282 38.7842C7.15883 39.655 8.20129 40.3158 7.68635 41.1124ZM5.13074 35.2331C5.22869 35.2244 5.32516 35.2191 5.42311 35.2129L5.28776 34.0157C5.21258 34.0244 5.14093 34.0305 5.06982 34.0364C5.08853 34.4353 5.11 34.8323 5.13074 35.2331ZM7.44231 36.4874C7.32103 36.4439 7.19956 36.403 7.07902 36.3595C6.98255 36.5943 6.89201 36.8248 6.7948 37.0607C6.91811 37.099 7.13198 37.1853 7.14198 37.1686C7.25992 36.9487 7.34454 36.7187 7.44231 36.4874ZM5.9849 32.0943C6.04396 31.9387 6.11358 31.8274 6.11358 31.7162C6.11358 31.6564 5.98897 31.5988 5.92065 31.5378C5.85362 31.6565 5.76992 31.7724 5.73419 31.9006C5.72345 31.93 5.86158 32.0017 5.9849 32.0943ZM8.52829 45.346C8.52569 45.3961 8.52569 45.4458 8.51958 45.4987C8.67512 45.5008 8.82862 45.5089 8.98156 45.5154C8.98434 45.4706 8.98693 45.4215 8.99101 45.3732C8.83603 45.3639 8.68382 45.3565 8.52829 45.346Z" fill="#FFD75F"/>
<path fill-rule="evenodd" clip-rule="evenodd" d="M21.8476 58.2758C21.3965 57.9285 20.9816 57.5283 20.4861 57.2387C19.1399 56.4611 17.9432 55.4956 16.9015 54.3769C15.4722 52.8395 14.1215 51.235 12.7304 49.663C12.5963 49.5095 12.4395 49.3801 12.2913 49.234C11.6886 48.6361 11.208 47.9823 10.868 47.1805C10.4477 46.1864 9.82294 45.2652 9.2806 44.3161C9.23505 44.2302 9.15043 44.1585 9.12506 44.068C8.97619 43.3975 8.83603 42.7257 8.68049 42.0038C9.01249 41.851 9.21561 42.0782 9.34485 42.3578C9.68944 43.0844 10.0113 43.8206 10.3318 44.5566C10.4403 44.8019 10.4784 45.093 10.6347 45.3021C11.8189 46.901 13.0162 48.4901 14.2267 50.0693C14.7436 50.7357 15.3093 51.3632 15.8396 52.0161C16.7325 53.0974 17.8427 53.9512 18.8965 54.8676C20.4544 56.2222 22.3382 56.8369 24.3065 57.2808C25.2758 57.4987 26.2881 57.6528 27.281 57.4095C28.0205 57.2352 28.4623 57.742 29.0502 57.8948C29.0535 57.9659 29.0589 58.0301 29.0648 58.0997C28.1485 58.3392 27.2341 58.5638 26.3303 58.8385C26.0669 58.9171 25.7847 59.1041 25.6371 59.32C25.2086 59.9388 24.8594 60.103 24.0965 59.9945C22.5795 59.7781 21.1489 59.3189 19.7806 58.6551C19.6277 58.5773 19.4314 58.5277 19.3347 58.4104C18.7918 57.7192 17.9062 57.545 17.2365 57.061C16.633 56.6279 16.1049 56.097 15.5598 55.5954C15.1067 55.1833 14.6703 54.7515 14.2331 54.3189C14.1172 54.203 13.9515 54.0615 13.941 53.9234C13.9356 53.7162 13.9985 53.4687 14.1254 53.3078C14.1722 53.2461 14.5403 53.3177 14.6623 53.4298C15.4866 54.1884 16.2977 54.9614 17.0952 55.7482C17.7007 56.3474 18.3121 56.9171 19.1359 57.2686C19.8191 57.5609 20.4403 57.9979 21.074 58.3942C21.4137 58.6054 21.6531 58.5343 21.8744 58.2486C22.0366 58.5638 22.2579 58.73 22.6775 58.5591C22.4443 58.1794 22.1479 58.2147 21.8476 58.2758ZM24.4198 58.8135C24.4124 58.7674 24.395 58.7171 24.385 58.6741H23.3091V58.8135H24.4198ZM5.75492 30.602C5.49625 29.2439 5.65846 27.8696 5.67123 26.3933C5.55702 26.5669 5.43991 26.7386 5.31998 26.9082C5.27832 26.8962 5.23425 26.8875 5.19129 26.8773C5.23554 26.3216 5.2785 25.7684 5.34016 25.2147C5.42922 24.4197 5.52106 23.6198 5.63772 22.8274C5.69253 22.466 5.73159 22.0746 5.91398 21.7748C6.2706 21.1788 6.42206 20.6118 6.31356 19.9091C6.25246 19.5364 6.43688 19.037 6.68629 18.7205C7.37158 17.8584 7.46934 16.8052 7.75301 15.8372C8.07149 14.7344 8.41997 13.6699 9.07692 12.7092C9.25653 12.4384 9.38466 12.1354 9.57445 11.7788C9.64685 12.1354 9.53687 13.0786 9.27745 13.2577C8.84769 13.5567 8.87454 13.9884 8.74585 14.3765C8.33424 15.6107 7.90244 16.8436 7.57137 18.0964C7.45064 18.5576 7.11216 19.1288 7.70339 19.5834C7.77653 19.6356 7.76449 19.83 7.74283 19.95C7.41157 21.5461 7.49878 23.0767 7.17364 24.6717C7.00329 25.5243 6.4054 26.4416 6.29541 27.301C6.15784 28.389 6.07489 29.4864 5.9636 30.5791C5.89509 30.5887 5.82732 30.5967 5.75492 30.602ZM11.2615 49.8126C10.9069 49.94 10.6401 49.7919 10.4884 49.499C9.96218 48.4665 9.45336 47.422 8.94323 46.381C8.9199 46.3308 8.9586 46.2523 8.97619 46.0827C9.76591 46.9904 10.5971 47.7647 10.7869 48.954C10.8337 49.2664 11.0772 49.546 11.2361 49.841L11.2615 49.8126ZM7.54563 42.1782C7.14068 42.1393 6.92071 42.1675 6.90201 42.1126C6.4528 41.1037 6.14988 40.0605 6.17672 38.9175C6.38946 39.4404 6.6053 39.962 6.82424 40.4823C7.03884 40.985 7.25196 41.4866 7.54563 42.1782ZM7.68635 41.1124C8.2011 40.3158 7.15864 39.655 7.78282 38.7842C8.0315 39.5872 8.24203 40.259 8.47477 41.0065C8.25887 41.0346 8.05112 41.0628 7.68635 41.1124ZM5.13074 35.2331C5.11 34.8323 5.08853 34.4353 5.06982 34.0364C5.14258 34.0307 5.21523 34.0238 5.28776 34.0157C5.33275 34.4125 5.3783 34.8141 5.42311 35.2129C5.32516 35.2189 5.22869 35.2244 5.13074 35.2331ZM7.44231 36.4874C7.34454 36.7189 7.25992 36.9487 7.14198 37.1686C7.13198 37.1853 6.91811 37.099 6.7948 37.0607C6.89201 36.8248 6.98255 36.5941 7.07902 36.3595C7.19956 36.4028 7.32103 36.4439 7.44231 36.4874ZM5.9849 32.0943C5.86158 32.0017 5.72345 31.93 5.73419 31.9006C5.76974 31.7724 5.85362 31.6565 5.92065 31.5378C5.98897 31.5988 6.11358 31.6565 6.11358 31.7162C6.11358 31.8274 6.04396 31.9387 5.9849 32.0943ZM8.52829 45.346C8.68382 45.3567 8.83603 45.3641 8.99101 45.3734C8.98693 45.4217 8.98434 45.4706 8.98156 45.5156C8.82862 45.5089 8.67531 45.5009 8.51958 45.4989C8.52569 45.4458 8.52569 45.3961 8.52829 45.346Z" fill="#FFD75F"/>
<path fill-rule="evenodd" clip-rule="evenodd" d="M26.0884 27.9694C26.0521 27.8937 26.0025 27.83 25.9851 27.7602C25.9797 27.7387 26.0629 27.7011 26.1058 27.6704C26.1549 27.7321 26.2084 27.7922 26.2412 27.8608C26.2512 27.8782 26.1619 27.9209 26.0884 27.9694ZM27.409 32.9335C27.5753 33.5395 28.2489 34.025 28.0673 34.6947C27.4679 34.2261 27.4484 34.1616 27.409 32.9335Z" fill="#183F88"/>
<path d="M28.3094 41.3018C28.247 41.751 28.0809 42.1204 27.4587 42.0835C26.7212 42.0413 25.9717 42.1324 25.2592 41.7254C25.1472 41.6584 24.9809 41.5719 24.8791 41.5975C23.9673 41.8085 20.7762 40.3928 19.8686 40.3472C19.3162 40.3191 18.7657 40.3163 18.2227 40.301C18.4491 40.6298 18.6795 40.9558 18.9139 41.279C19.0257 41.4371 19.1244 41.6671 19.2785 41.7267C19.8947 41.9626 22.304 43.4241 22.4979 43.9168C22.6915 44.4082 23.1643 44.4845 23.5644 44.8534C24.1336 45.375 24.9039 45.6523 25.6158 45.9595C26.7896 46.465 27.7537 47.1997 28.7284 47.9493C28.8623 48.0572 29.0024 48.1573 29.148 48.2489C29.6924 48.6016 30.2395 48.948 30.7543 49.2752C30.9553 49.0782 31.158 48.8829 31.3623 48.6892C31.5092 48.541 31.7438 48.4277 31.8028 48.2487C32.0034 47.6567 31.8445 47.7299 32.0034 47.1223C32.0811 46.8333 32.187 46.6102 32.3446 46.3708C32.9232 45.4986 32.8962 44.3817 32.8205 43.3689L31.1916 40.0049L28.3094 41.3018Z" fill="#009D9A"/>
<path d="M55.5478 16.3929C55.3702 16.3929 55.2086 16.4679 55.0993 16.6008C54.9055 16.8528 54.9464 17.2217 55.1919 17.4187C56.0272 18.0836 57.3559 18.8802 58.9474 18.8927C59.9489 18.8927 60.899 18.6011 61.6263 18.0703C62.4032 17.5125 62.8491 16.7154 62.8491 15.8807C62.8491 15.4543 62.7304 15.0373 62.5178 14.7075C62.2249 14.2302 61.7718 13.8536 61.0839 13.5169C60.5516 13.2649 59.9006 13.0664 59.0386 12.8961C58.1643 12.7405 57.4659 12.4911 57.0367 12.1969C56.8182 12.0421 56.6639 11.8905 56.5734 11.7457C56.4782 11.5909 56.4375 11.4313 56.4375 11.2146C56.4375 10.9271 56.5521 10.4993 57.0931 10.0951C57.569 9.74314 58.2321 9.54131 58.9153 9.54131C59.8874 9.54131 60.6449 9.99441 61.4682 10.5421C61.7291 10.7171 62.0997 10.634 62.262 10.3745C62.3042 10.3158 62.3342 10.2491 62.3501 10.1785C62.3661 10.1079 62.3675 10.0349 62.3545 9.96367C62.341 9.88587 62.3119 9.8116 62.2691 9.74527C62.2262 9.67894 62.1705 9.62192 62.1051 9.5776C61.3354 9.07563 60.2952 8.40164 58.9153 8.40164C57.9821 8.40164 57.0931 8.6705 56.4086 9.16192C55.6959 9.69074 55.2817 10.4403 55.2817 11.2146C55.2817 11.6229 55.3917 12.0138 55.5994 12.3476C55.885 12.8022 56.3327 13.1749 56.9267 13.4551C57.4322 13.6951 58.0395 13.88 58.832 14.0315C59.7826 14.2026 60.5468 14.4661 61.0093 14.7723C61.2486 14.9338 61.413 15.1001 61.5309 15.2952C61.6463 15.4822 61.6959 15.6593 61.6959 15.8805C61.6959 16.2062 61.5698 16.6882 60.9604 17.1369C60.4435 17.5177 59.7102 17.736 58.9459 17.736C57.7868 17.736 56.6008 17.0832 55.9198 16.524C55.8147 16.4384 55.6832 16.3921 55.5478 16.3929ZM70.1308 8.40164C68.7767 8.40164 67.4761 8.96749 66.5698 9.95441C65.6297 10.9526 65.1177 12.2651 65.1177 13.6556C65.1177 15.056 65.6299 16.366 66.5657 17.3481C67.492 18.3402 68.7926 18.9089 70.1308 18.9089C71.418 18.9089 72.7171 18.3263 73.6061 17.3507C74.5608 16.3499 75.0791 15.0393 75.0791 13.6556C75.0791 12.2826 74.5554 10.9687 73.6074 9.957C73.1699 9.46785 72.6341 9.0765 72.035 8.80849C71.4359 8.54048 70.7871 8.40184 70.1308 8.40164ZM70.1308 17.5874C69.1454 17.5874 68.2216 17.1757 67.5296 16.429C66.8392 15.7291 66.445 14.7162 66.445 13.6556C66.445 12.5983 66.8392 11.5794 67.5296 10.8582C68.2121 10.1253 69.1372 9.72185 70.1308 9.72185C71.0827 9.72185 71.9885 10.1253 72.6729 10.8608C73.3647 11.6022 73.7615 12.6219 73.7615 13.6556C73.7615 14.6948 73.3647 15.7063 72.6729 16.4318C71.977 17.177 71.072 17.5874 70.1308 17.5874ZM78.8573 8.70068C78.5107 8.70068 78.2305 8.9836 78.2305 9.33226V18.2758C78.2305 18.6306 78.5053 18.9087 78.8573 18.9087H83.8189C84.1554 18.9087 84.4477 18.613 84.4477 18.2758C84.4477 17.9332 84.1555 17.6316 83.8189 17.6316H79.5048V9.33226C79.5048 8.99027 79.2093 8.70068 78.8573 8.70068ZM87.746 8.70068C87.3827 8.70068 87.1104 8.97157 87.1104 9.33226V18.2758C87.1104 18.6372 87.3826 18.9087 87.746 18.9087C88.1001 18.9087 88.3869 18.6257 88.3869 18.2758V9.33226C88.3869 8.9836 88.0999 8.70068 87.746 8.70068ZM92.5941 8.70068C92.236 8.70068 91.964 8.97157 91.964 9.33226V18.2758C91.964 18.6306 92.2416 18.9087 92.5941 18.9087H94.3854C97.1897 18.9087 99.4736 16.6112 99.4736 13.7882C99.4736 10.9826 97.1895 8.70049 94.3854 8.70049L92.5941 8.70068ZM93.4457 17.6316H93.2418V9.97848H94.3854C96.4851 9.97848 98.1933 11.6881 98.1933 13.7884C98.1933 15.929 96.5172 17.617 94.3854 17.6316H93.4457ZM103.43 16.409H107.73L108.529 18.5074C108.615 18.7528 108.842 18.9089 109.106 18.9089C109.19 18.9089 109.271 18.8968 109.319 18.8766C109.655 18.75 109.821 18.3839 109.703 18.0406L106.185 9.11785C106.086 8.87251 105.853 8.7129 105.602 8.7129H105.543C105.293 8.7129 105.057 8.87917 104.958 9.11988L101.438 18.0488C101.323 18.3834 101.492 18.7507 101.82 18.8753C101.892 18.8981 101.957 18.9089 102.037 18.9089C102.167 18.9086 102.294 18.8699 102.401 18.7976C102.509 18.7253 102.593 18.6226 102.642 18.5026L103.43 16.409ZM107.268 15.1445H103.882L105.571 10.7856L107.268 15.1445ZM112.943 8.70068C112.566 8.70068 112.296 8.97157 112.296 9.33226V18.2758C112.296 18.6306 112.572 18.9087 112.927 18.9087C113.284 18.9087 113.572 18.6257 113.572 18.2758V14.7838H115.563C115.733 14.8153 116.17 14.9455 116.528 15.1814C116.777 15.351 116.954 15.5226 117.044 15.6928C117.166 15.8818 117.236 16.1192 117.256 16.4295C117.256 17.2133 117.348 17.7488 117.551 18.1773C117.653 18.3589 117.803 18.5206 117.966 18.6239C118.145 18.7385 118.344 18.7552 118.448 18.7552C118.579 18.7552 118.676 18.7337 118.735 18.7204C119.071 18.605 119.245 18.253 119.132 17.9192C119.101 17.8277 119.049 17.7448 118.98 17.6776C118.911 17.6103 118.827 17.5605 118.735 17.5324L118.621 17.4976L118.597 17.3802C118.542 17.118 118.517 16.8002 118.53 16.4344C118.53 15.7424 118.28 15.2289 118.066 14.9192C117.938 14.7234 117.775 14.5564 117.579 14.409L117.373 14.2554L117.57 14.0904C118.291 13.4925 118.686 12.6637 118.686 11.7573C118.686 10.0727 117.318 8.70031 115.638 8.70031H112.943V8.70068ZM115.638 13.5101H113.572V9.97848H115.638C116.616 9.97848 117.412 10.7763 117.412 11.7577C117.412 12.7237 116.616 13.5101 115.638 13.5101ZM122.715 8.70068C122.357 8.70068 122.087 8.97157 122.087 9.33226V18.2758C122.087 18.6372 122.357 18.9087 122.715 18.9087C123.074 18.9087 123.364 18.6257 123.364 18.2758V9.33226C123.364 8.9836 123.074 8.70068 122.715 8.70068ZM126.751 8.70068C126.391 8.70068 126.121 8.97157 126.121 9.33226C126.121 9.68889 126.403 9.97848 126.751 9.97848H129.349V18.276C129.349 18.4436 129.416 18.6043 129.534 18.7229C129.653 18.8415 129.813 18.9084 129.981 18.9089C130.341 18.9089 130.613 18.6374 130.613 18.276V9.97848H133.225C133.57 9.97848 133.859 9.68278 133.859 9.33226C133.859 8.97749 133.581 8.70068 133.225 8.70068H126.751ZM137.439 18.9089H142.184C142.52 18.9089 142.812 18.6132 142.812 18.276C142.812 17.9334 142.52 17.6318 142.184 17.6318H137.871V14.4385H141.608C141.954 14.4385 142.236 14.1463 142.236 13.7882C142.236 13.4536 141.943 13.1588 141.608 13.1588H137.871V9.97848H142.184C142.52 9.97848 142.812 9.67685 142.812 9.33226C142.812 8.99027 142.525 8.70068 142.184 8.70068H137.269C136.866 8.70068 136.596 8.97157 136.596 9.33226V18.2758C136.596 18.6022 136.83 18.8618 137.14 18.9033L137.439 18.9089ZM141.75 4.6958C141.586 4.6958 141.554 4.73876 141.415 4.9654L141.368 5.04113L140.337 6.59575C140.285 6.67148 140.249 6.76869 140.249 6.81683C140.249 6.87998 140.361 6.93015 140.502 6.93015C140.866 6.93015 141.111 6.8759 141.436 6.57612L142.613 5.39831C142.747 5.27703 142.812 5.17445 142.812 5.08464C142.774 4.97077 142.21 4.6958 141.75 4.6958ZM145.65 16.3929C145.474 16.3929 145.309 16.4686 145.2 16.6008C145.016 16.8487 145.055 17.2261 145.289 17.4192C146.126 18.0836 147.456 18.88 149.048 18.8927C150.054 18.8927 151.009 18.6011 151.734 18.0703C152.507 17.5118 152.952 16.7141 152.952 15.8807C152.952 15.4563 152.835 15.0395 152.622 14.706C152.33 14.2302 151.875 13.8536 151.188 13.5169C150.666 13.2683 149.998 13.0651 149.146 12.8961C148.267 12.7405 147.568 12.4904 147.144 12.1969C146.934 12.0542 146.776 11.9019 146.679 11.7457C146.583 11.5909 146.539 11.4313 146.539 11.2146C146.539 10.9263 146.654 10.4973 147.198 10.0937C147.673 9.74295 148.336 9.54131 149.017 9.54131C149.99 9.54131 150.749 9.99441 151.568 10.5421C151.829 10.7145 152.202 10.634 152.359 10.3764C152.45 10.2497 152.477 10.1083 152.455 9.96478C152.441 9.88651 152.412 9.81177 152.369 9.74497C152.326 9.67817 152.27 9.62069 152.205 9.57594C151.424 9.06915 150.393 8.40145 149.017 8.40145C148.087 8.40145 147.198 8.67031 146.516 9.16173C145.796 9.68944 145.383 10.4382 145.383 11.2144C145.383 11.6174 145.495 12.0095 145.702 12.3482C145.986 12.8007 146.431 13.1729 147.027 13.4551C147.521 13.6904 148.147 13.88 148.929 14.0315C149.882 14.2026 150.645 14.4646 151.117 14.7716C151.354 14.9338 151.521 15.1056 151.632 15.2973C151.747 15.4863 151.798 15.6633 151.798 15.8805C151.798 16.207 151.67 16.6897 151.065 17.1369C150.547 17.5177 149.809 17.736 149.044 17.736C147.9 17.736 146.739 17.1098 146.023 16.524C145.917 16.4387 145.786 16.3924 145.65 16.3929ZM56.7371 27.4073L62.2884 34.6106C62.3155 34.6488 62.3286 34.6608 62.3408 34.6743C62.4803 34.8365 62.6586 34.9223 62.8289 34.9223C63.1733 34.9223 63.4583 34.6332 63.4583 34.2934V25.4871C63.4583 25.1586 63.1633 24.869 62.8289 24.869C62.491 24.869 62.2134 25.1466 62.2134 25.4871V32.3285L56.6204 25.0775C56.4227 24.8067 56.0251 24.7476 55.7368 24.9394C55.5807 25.0568 55.4828 25.264 55.4935 25.461L55.4956 34.2934C55.4956 34.6462 55.7739 34.9223 56.1292 34.9223C56.4577 34.9223 56.7373 34.6332 56.7373 34.2934V27.4073H56.7371ZM71.2866 24.4134C69.9312 24.4134 68.6345 24.9826 67.7255 25.9734C66.7869 26.9662 66.272 28.2781 66.272 29.6705C66.272 31.0785 66.787 32.3924 67.7215 33.3658C68.6478 34.3566 69.9479 34.9224 71.2866 34.9224C72.5772 34.9224 73.8757 34.342 74.7606 33.3686C75.7138 32.3711 76.2349 31.0598 76.2349 29.6707C76.2349 28.3005 75.714 26.9877 74.7632 25.9754C73.8896 24.9959 72.5912 24.4134 71.2866 24.4134ZM71.2866 33.603C70.3058 33.603 69.38 33.1919 68.6821 32.4472C67.9916 31.7447 67.5941 30.7309 67.5941 29.6703C67.5941 28.6125 67.9896 27.5933 68.6849 26.8762C69.38 26.1307 70.2804 25.7351 71.2866 25.7351C72.2398 25.7351 73.141 26.14 73.8294 26.8788C74.5206 27.6169 74.9154 28.6345 74.9154 29.6703C74.9154 30.7094 74.5191 31.7225 73.8279 32.4477C73.1315 33.1921 72.2285 33.603 71.2866 33.603Z" fill="#183F88"/>
<path d="M79.5945 24.7178C79.2359 24.7178 78.957 24.9933 78.957 25.3473V30.7439C78.957 33.048 80.8307 34.9224 83.1382 34.9224C85.4416 34.9224 87.3147 33.048 87.3147 30.7439V25.3473C87.3147 24.9933 87.0399 24.7178 86.6846 24.7178C86.3254 24.7178 86.0384 24.9933 86.0384 25.3473V30.7439C86.0384 32.3468 84.7385 33.6507 83.1382 33.6507C81.5387 33.6507 80.2354 32.3468 80.2354 30.7439V25.3473C80.2354 24.9994 79.9486 24.7178 79.5945 24.7178Z" fill="#183F88"/>
<path d="M94.5618 34.9102L94.6053 34.9189C94.6201 34.9222 94.6636 34.9222 94.6797 34.9222C94.7186 34.9222 94.7521 34.9222 94.7816 34.9143L94.8399 34.9063C94.8567 34.9002 94.8741 34.8943 94.8941 34.8897L94.909 34.8782L94.9538 34.8728C94.9962 34.8434 95.0201 34.8232 95.0497 34.8098C95.063 34.7991 95.0739 34.7891 95.0893 34.7797C95.1356 34.7173 95.165 34.6891 95.1837 34.6684L95.2489 34.5591L98.9984 25.6952C99.0601 25.5451 99.0562 25.3693 98.9905 25.2125C98.9253 25.0611 98.8081 24.9444 98.6579 24.8874C98.3233 24.7366 97.9595 24.9096 97.8306 25.2153L94.6797 32.6796L91.5409 25.2153C91.4081 24.9063 91.0381 24.7487 90.7363 24.8829C90.5673 24.9479 90.4447 25.0679 90.3784 25.2234C90.3479 25.2976 90.3323 25.377 90.3325 25.4572C90.3327 25.5373 90.3488 25.6166 90.3797 25.6906L94.0868 34.5197C94.0983 34.5338 94.1055 34.5465 94.1163 34.5604H94.1498L94.1981 34.6965L94.2551 34.7643C94.2705 34.773 94.2814 34.783 94.294 34.7924L94.3175 34.8019C94.3477 34.8193 94.3805 34.8421 94.4099 34.8635L94.4127 34.8648H94.5534L94.5618 34.9102Z" fill="#183F88"/>
<path d="M102.703 34.9223H107.45C107.784 34.9223 108.08 34.6288 108.08 34.2935C108.08 33.9448 107.792 33.6506 107.45 33.6506H103.136V30.4534H106.872C107.218 30.4534 107.505 30.1631 107.505 29.8057C107.505 29.4685 107.208 29.1741 106.872 29.1741H103.136V25.9938H107.45C107.792 25.9938 108.08 25.6981 108.08 25.3468C108.08 25.0056 107.792 24.7173 107.45 24.7173H102.491C102.137 24.7173 101.859 24.9928 101.859 25.3468V34.2931C101.86 34.4461 101.916 34.5936 102.017 34.7084C102.118 34.8231 102.257 34.8971 102.409 34.9168L102.703 34.9223Z" fill="#183F88"/>
<path d="M111.814 24.7178C111.731 24.7174 111.649 24.7334 111.573 24.7649C111.496 24.7964 111.426 24.8427 111.367 24.9012C111.309 24.9597 111.262 25.0292 111.23 25.1058C111.198 25.1823 111.182 25.2644 111.182 25.3473V34.2936C111.182 34.6464 111.459 34.9224 111.814 34.9224H116.776C117.108 34.9224 117.401 34.629 117.401 34.2936C117.401 33.9511 117.108 33.6508 116.776 33.6508H112.459V25.3473C112.459 25.0059 112.164 24.7178 111.814 24.7178Z" fill="#183F88"/>
<path d="M120.351 24.7178C119.996 24.7178 119.715 24.9994 119.715 25.3473V34.2936C119.715 34.6408 119.996 34.9224 120.351 34.9224H125.305C125.642 34.9224 125.936 34.629 125.936 34.2936C125.936 33.945 125.647 33.6507 125.305 33.6507H120.996V25.3473C120.995 25.0059 120.7 24.7178 120.351 24.7178Z" fill="#183F88"/>
<path d="M129.094 34.9223H133.843C134.175 34.9223 134.469 34.6288 134.469 34.2935C134.469 33.9448 134.182 33.6506 133.843 33.6506H129.527V30.4534H133.262C133.609 30.4534 133.892 30.1631 133.892 29.8057C133.892 29.4685 133.599 29.1741 133.262 29.1741H129.527V25.9938H133.843C134.182 25.9938 134.469 25.6981 134.469 25.3468C134.469 25.0056 134.182 24.7173 133.843 24.7173H128.883C128.519 24.7173 128.25 24.9869 128.25 25.3468V34.2931C128.25 34.6116 128.473 34.867 128.778 34.9145L129.094 34.9223Z" fill="#183F88"/>
<path d="M137.307 32.4078C137.13 32.4078 136.968 32.4842 136.861 32.6157C136.669 32.8677 136.708 33.2392 136.952 33.4389C137.791 34.1007 139.122 34.8943 140.706 34.9064C141.717 34.9064 142.668 34.6142 143.389 34.0857C144.164 33.5262 144.609 32.7288 144.609 31.8977C144.609 31.4768 144.49 31.0578 144.275 30.7178C143.98 30.2453 143.512 29.859 142.841 29.5326C142.31 29.2806 141.642 29.0767 140.8 28.9112C139.943 28.7645 139.227 28.5097 138.803 28.2146C138.583 28.0644 138.423 27.9089 138.333 27.7633C138.235 27.6017 138.198 27.4482 138.198 27.2297C138.198 26.9407 138.312 26.5104 138.856 26.111C139.332 25.7582 139.994 25.5545 140.673 25.5545C141.644 25.5545 142.402 26.0091 143.229 26.5581C143.488 26.7338 143.854 26.6513 144.022 26.3898C144.198 26.1358 144.124 25.7717 143.864 25.5914L143.821 25.564C143.069 25.0785 142.037 24.4136 140.673 24.4136C139.743 24.4136 138.851 24.6871 138.169 25.1805C137.453 25.7129 137.043 26.4611 137.043 27.2299C137.043 27.6369 137.151 28.0283 137.36 28.3648C137.645 28.8178 138.086 29.1906 138.681 29.4696C139.188 29.7083 139.813 29.896 140.587 30.0468C141.529 30.2151 142.292 30.4771 142.77 30.7861C143.006 30.9424 143.166 31.1066 143.289 31.3064C143.406 31.5108 143.454 31.6806 143.454 31.8977C143.454 32.2248 143.327 32.7076 142.717 33.1527C142.205 33.5336 141.471 33.7533 140.704 33.7533C139.56 33.7546 138.396 33.1258 137.682 32.54C137.576 32.4541 137.443 32.4074 137.307 32.4078Z" fill="#183F88"/>
<path d="M53.9128 56.5229C53.9277 56.5283 53.9425 56.5338 53.9578 56.5363C54.0343 56.559 54.1126 56.5813 54.1837 56.6248C54.2889 56.6792 54.3722 56.7603 54.4406 56.8246C54.4659 56.8501 54.4994 56.8829 54.5191 56.8971C55.4006 56.8779 55.8552 55.5697 55.9811 54.7948C56.1165 53.9675 56.2566 53.0222 56.3975 52.0616C56.9084 48.6191 57.2684 46.321 57.6022 45.7746C57.9422 45.208 58.8841 45.208 59.6409 45.208C60.2504 45.208 60.4741 45.3823 60.6204 45.5706H60.9135C61.0918 45.5706 61.5134 45.1262 61.5134 44.8821C61.5134 44.6555 61.3269 43.8563 60.7311 43.8563C60.6794 43.8617 60.4241 43.9328 60.2586 43.9798C59.9058 44.0791 59.7677 44.1152 59.6845 44.1152C59.5794 44.1152 59.5162 44.1011 59.4694 44.0917C59.4509 44.0862 59.4317 44.0833 59.4124 44.083C59.3666 44.085 59.2098 44.1359 59.1013 44.17C58.8835 44.2393 58.7421 44.2815 58.6428 44.2815C58.439 44.2815 58.1158 44.1648 58.1158 43.8497C58.1158 43.1792 58.6911 41.8055 59.2555 40.5499C59.6657 39.6691 60.3374 39.051 61.3069 38.6574L61.421 38.6111L61.5136 38.6888C61.6463 38.8003 61.7287 38.9301 61.7884 39.0275C62.2442 38.8847 62.4694 38.3217 62.4694 38.0126C62.4694 37.611 62.1141 37.0029 61.5812 37.0029C59.7369 37.0029 58.6702 38.8284 58.1046 40.3608C57.7231 41.3798 57.6092 41.9886 57.4837 42.6335C57.4013 43.0746 57.3141 43.5305 57.1384 44.1204C57.0458 44.4609 55.7426 44.5555 55.7306 44.5555C55.6541 44.5555 55.5134 44.5389 55.3699 44.5227C55.2586 44.5087 55.146 44.4931 55.0883 44.4931C54.7927 44.4931 54.1128 44.5522 54.1128 45.0951C54.1128 45.5221 54.4172 45.738 55.0151 45.738C55.0814 45.738 55.3075 45.7098 55.4878 45.6857C55.7393 45.6535 55.8956 45.6341 55.9719 45.6341C56.1046 45.6341 56.2681 45.6717 56.482 45.7513L56.6133 45.8009V46.1675C56.6133 46.8721 55.6889 50.6109 54.8857 53.7886L54.7235 54.4391L54.6539 54.4824C54.31 54.7044 54.121 54.8252 53.9051 55.012C53.7314 55.2259 53.5825 55.586 53.5825 55.8452C53.5959 55.9432 53.813 56.342 53.8954 56.4922L53.9128 56.5229Z" fill="#183F88"/>
<path d="M66.0506 43.5684C65.0378 43.5684 64.0946 44.5458 62.3816 46.3217C62.0529 46.6634 61.7226 47.0034 61.3907 47.342C61.152 47.5779 59.8716 49.8137 59.8716 50.2312C59.8716 50.9854 60.8076 51.1496 61.1688 51.1496C62.0048 51.1496 63.3456 49.9576 64.9504 47.7936L65.1783 47.4812L65.3029 47.8486C65.4659 48.328 65.5611 48.5805 66.094 49.558C66.2676 49.8811 67.1024 50.4362 67.294 50.4375H67.8217C68.1656 50.3986 70.3336 49.4447 70.3336 48.8801C70.3336 48.7757 70.2397 48.4491 70.0988 48.4491C70.0733 48.4491 70.0311 48.4578 69.9903 48.4818C69.887 48.534 69.7959 48.5939 69.6987 48.6575C69.3689 48.8755 68.9566 49.1449 68.2822 49.1449C67.3149 49.1449 66.7135 48.4531 66.7135 47.3375C66.7135 47.1761 66.8233 46.7396 67.0037 46.0423C67.1251 45.5737 67.2894 44.9334 67.2894 44.8047C67.2896 44.1509 66.5983 43.5684 66.0506 43.5684ZM61.726 49.5369L61.7769 49.1347C61.9552 48.0902 63.9455 45.634 64.8056 45.634H65.0108V45.9116C65.0108 46.3078 64.6567 46.8676 63.7485 47.908C62.8616 48.9251 62.5224 49.108 62.0913 49.3386L61.726 49.5369Z" fill="#183F88"/>
<path d="M73.4511 43.2471C72.6507 43.2471 71.3086 44.6904 71.0687 45.5968C71.007 45.8288 70.8648 46.0419 70.7381 46.2304C70.6598 46.3476 70.5759 46.4691 70.5558 46.5456C70.2923 47.4123 70.0142 48.6223 70.0142 49.4161C70.0142 50.1396 70.3836 50.9856 71.4173 50.9856C72.2794 50.9856 73.875 50.521 75.0543 49.7453C75.7923 49.2534 75.9438 48.9612 75.9438 48.6708C75.9417 48.6236 75.9359 48.5765 75.9264 48.5301C74.3549 49.3996 73.0666 49.8272 72.0234 49.8272C71.5018 49.8272 71.1866 49.4624 71.1866 48.8538C71.1866 46.7448 72.5261 45.7418 73.5048 45.0098C73.9768 44.6573 74.3844 44.3516 74.3844 44.0794C74.3844 43.5106 73.8272 43.2471 73.4511 43.2471Z" fill="#183F88"/>
<path d="M78.4186 45.0535C78.176 45.8734 77.5726 45.9645 77.1308 46.031C76.6455 46.1039 76.3833 46.1436 76.3833 46.8381C76.3833 47.0942 76.4879 47.2497 76.6033 47.4168C76.701 47.5623 76.8058 47.7143 76.8058 47.9148C76.8058 48.1602 76.7401 48.35 76.677 48.5336C76.6114 48.7288 76.5483 48.913 76.5483 49.1847C76.5483 49.8194 76.9169 51.2105 78.0103 51.2118C78.3843 51.175 80.8535 49.6894 80.8535 49.0506C80.8387 48.9347 80.602 48.5942 80.4921 48.5679C80.325 48.5685 80.0221 48.7953 79.7312 49.0143C79.317 49.3261 78.845 49.6794 78.3777 49.6794C78.064 49.6794 77.8118 49.3563 77.8118 48.958C77.8118 48.6551 78.1477 47.8613 78.4401 47.8158C79.2854 47.6669 81.7839 45.6283 81.7839 44.5188C81.7839 43.8015 81.1175 43.4771 80.4995 43.4771C80.2763 43.5102 79.1428 44.4166 78.4186 45.0535Z" fill="#183F88"/>
<path d="M93.0599 43.5684C92.0469 43.5684 91.1037 44.5449 89.3921 46.3195C89.063 46.6618 88.7323 47.0026 88.4 47.3418C88.2048 47.5342 86.8848 49.7887 86.8848 50.2311C86.8848 50.9852 87.818 51.1495 88.1792 51.1495C89.0112 51.1495 90.3512 49.9574 91.9562 47.7934L92.1847 47.4823L92.3113 47.8471C92.4776 48.3298 92.5602 48.5711 93.0983 49.558C93.2766 49.8818 94.1113 50.4375 94.3018 50.4375H94.8319C95.1752 50.3973 97.3414 49.4426 97.3414 48.8801C97.3414 48.7757 97.2453 48.4491 97.1065 48.4491C97.0772 48.4491 97.0368 48.4591 97.0015 48.4792C96.8933 48.5355 96.7984 48.5979 96.6965 48.6637C96.368 48.8783 95.957 49.1451 95.2898 49.1451C94.3218 49.1451 93.7211 48.4533 93.7211 47.3377C93.7211 47.1762 93.8311 46.7398 94.0107 46.0425C94.1328 45.5739 94.299 44.9336 94.299 44.8049C94.2994 44.1509 93.6063 43.5684 93.0599 43.5684ZM88.7312 49.5369L88.7808 49.1347C88.961 48.0902 90.9548 45.634 91.8169 45.634H92.0173V45.9116C92.0173 46.3045 91.666 46.8648 90.7558 47.908C89.8635 48.9251 89.5263 49.108 89.0978 49.3386L88.7312 49.5369Z" fill="#183F88"/>
<path d="M101.779 47.7532H101.904L101.93 47.9256C101.951 48.0637 101.989 48.197 102.021 48.3165C102.063 48.4685 102.097 48.6013 102.097 48.7153C102.097 49.3536 102.39 51.8488 103.215 51.8488C103.442 51.8488 104.288 51.7153 104.288 51.0652C104.288 50.8104 104.189 50.7058 104.024 50.5316C103.925 50.4284 103.815 50.3103 103.709 50.1449C103.614 49.9659 103.573 49.8183 103.573 49.6556C103.573 49.5461 103.591 49.4417 103.607 49.3371C103.618 49.2721 103.626 49.2051 103.63 49.1373C103.614 49.1099 103.598 49.081 103.581 49.0536L103.499 48.9451L103.511 48.8814C103.511 48.268 103.511 47.6325 103.486 47.1364C103.469 47.0231 103.469 46.8903 103.469 46.7483V46.5332C103.469 45.6342 103.362 45.2057 102.744 45.2057C102.473 45.2057 102.016 45.362 101.957 45.4759C101.405 46.3475 100.382 47.249 98.7372 48.3257L98.583 48.4263L98.363 48.1528V47.9297C98.363 47.7976 98.4682 47.5155 98.7794 46.743C99.024 46.1343 99.3901 45.2146 99.3901 45.0028C99.3901 44.6375 99.0194 44.3271 98.7155 44.3271C98.5969 44.3271 98.1586 44.4397 98.0453 44.6047C97.9595 44.7817 96.8721 47.9178 96.8721 49.2506C96.8721 49.8928 97.3802 50.3944 98.0271 50.3944C98.8161 50.3944 100.813 48.4563 101.441 47.7201L101.586 47.5477L101.779 47.7532Z" fill="#183F88"/>
<path d="M115.342 40.433C112.402 40.445 109.999 42.8034 109.986 45.6875C109.998 48.5837 112.399 50.9408 115.342 50.9408C116.593 50.9408 117.764 50.5473 118.723 49.8011C119 49.5833 119.05 49.1643 118.833 48.8679C118.629 48.6231 118.167 48.5542 117.906 48.7459C117.186 49.3237 116.32 49.62 115.342 49.62C114.284 49.62 113.266 49.2117 112.477 48.4698C111.731 47.7417 111.306 46.7281 111.306 45.6877C111.306 44.6506 111.707 43.6885 112.47 42.9069C113.273 42.1587 114.29 41.7512 115.342 41.7512C116.32 41.7512 117.209 42.0561 117.915 42.6335C118.164 42.8251 118.622 42.7683 118.84 42.4966C119.047 42.2111 118.997 41.798 118.716 41.5654C117.767 40.8257 116.6 40.433 115.342 40.433ZM123.585 46.4678H128.758V50.3092C128.758 50.6691 129.029 50.9408 129.391 50.9408C129.754 50.9408 130.038 50.6638 130.038 50.3092V41.3655C130.038 41.0107 129.754 40.732 129.391 40.732C129.029 40.732 128.758 41.0042 128.758 41.3655V45.2076H123.585V41.3655C123.585 41.0107 123.302 40.732 122.937 40.732C122.578 40.732 122.309 41.0042 122.309 41.3655V50.3092C122.309 50.6638 122.585 50.9408 122.937 50.9408C123.302 50.9408 123.585 50.6638 123.585 50.3092V46.4678ZM138.436 40.433C137.085 40.433 135.784 40.9996 134.874 41.9871C133.941 42.9819 133.429 44.2944 133.429 45.6875C133.429 47.0912 133.941 48.4028 134.874 49.3813C135.803 50.3727 137.101 50.9406 138.436 50.9406C139.724 50.9406 141.025 50.3601 141.911 49.3839C142.868 48.377 143.391 47.065 143.391 45.6873C143.391 44.3197 142.868 43.0064 141.914 41.988C141.04 41.0135 139.743 40.433 138.436 40.433ZM138.436 49.6198C137.451 49.6198 136.527 49.2089 135.831 48.46C135.144 47.7562 134.748 46.7439 134.748 45.6873C134.748 44.6362 135.143 43.6178 135.831 42.8931C136.519 42.157 137.444 41.7508 138.436 41.7508C139.386 41.7508 140.292 42.1563 140.983 42.8938C141.67 43.6346 142.066 44.6523 142.066 45.6873C142.066 46.7278 141.67 47.7401 140.982 48.4635C140.285 49.2089 139.38 49.6198 138.436 49.6198ZM138.362 37.805L139.284 38.6027C139.654 38.9097 139.899 38.9648 140.273 38.9648C140.361 38.9648 140.508 38.9367 140.508 38.8643C140.508 38.8395 140.48 38.7758 140.364 38.6177L139.37 37.3667C139.201 37.1508 139.018 37.0088 138.648 37.0088H138.104C137.75 37.0088 137.578 37.1362 137.384 37.3708L136.383 38.6238C136.273 38.776 136.248 38.8397 136.246 38.8652C136.246 38.9623 136.432 38.9652 136.452 38.9652C136.824 38.9652 137.08 38.9089 137.442 38.6019L138.362 37.805ZM154.226 43.3008V50.3092C154.226 50.6638 154.5 50.9408 154.852 50.9408C155.197 50.9408 155.502 50.6458 155.502 50.3092V41.3655C155.502 41.0296 155.206 40.7454 154.842 40.732C154.628 40.732 154.445 40.8265 154.321 40.9983L151.141 45.412L147.958 40.9983C147.833 40.8131 147.618 40.732 147.456 40.732H147.407C147.066 40.732 146.78 41.0216 146.78 41.3655V50.3092C146.78 50.6525 147.066 50.9408 147.407 50.9408C147.764 50.9408 148.057 50.6571 148.057 50.3092V43.2956L150.59 46.8426C150.711 47.0096 150.909 47.1068 151.123 47.1068C151.364 47.1068 151.543 47.0137 151.672 46.8394L154.226 43.3008ZM160.473 48.4374H164.777L165.567 50.5403C165.656 50.7815 165.889 50.9406 166.152 50.9406C166.239 50.9406 166.318 50.9298 166.362 50.9124C166.7 50.7838 166.868 50.4149 166.748 50.0698L163.228 41.1529C163.129 40.9076 162.906 40.748 162.653 40.748L162.607 40.7493C162.477 40.7499 162.35 40.7887 162.243 40.861C162.135 40.9332 162.051 41.0357 162.001 41.1555L158.482 50.079C158.372 50.4142 158.537 50.7836 158.868 50.911C158.929 50.9297 158.999 50.9404 159.083 50.9404C159.346 50.9404 159.579 50.7815 159.685 50.5342L160.473 48.4374ZM164.311 47.1798H160.925L162.616 42.8188L164.311 47.1798ZM174.158 40.433C171.186 40.433 168.768 42.7968 168.768 45.7029C168.768 48.5909 171.186 50.9408 174.158 50.9408C175.363 50.9408 176.512 50.5466 177.474 49.8011C177.579 49.7302 177.643 49.6522 177.686 49.5598V49.5384L177.714 49.4713C177.724 49.4337 177.732 49.4023 177.741 49.3708C177.753 49.3239 177.761 49.2925 177.761 49.2515V45.8968C177.761 45.5375 177.462 45.2546 177.084 45.2546H174.065C173.698 45.2546 173.404 45.5375 173.404 45.8968C173.404 46.2508 173.711 46.5604 174.065 46.5604H176.441V48.9564L176.338 49.014C175.649 49.411 174.894 49.62 174.158 49.62C173.04 49.62 172.019 49.2051 171.283 48.4515C170.515 47.708 170.089 46.7318 170.089 45.7029C170.089 44.6504 170.515 43.6617 171.288 42.9168C172.019 42.1667 173.04 41.751 174.158 41.751C175.056 41.751 175.95 42.0567 176.676 42.6124C176.958 42.8403 177.405 42.7807 177.621 42.5126C177.675 42.4413 177.714 42.3601 177.737 42.2735C177.759 42.187 177.764 42.0969 177.752 42.0084C177.74 41.9223 177.711 41.8395 177.667 41.7647C177.622 41.6899 177.564 41.6246 177.494 41.5725C176.566 40.8372 175.382 40.433 174.158 40.433ZM182.082 50.9406H186.828C187.162 50.9406 187.454 50.6456 187.454 50.309C187.454 49.9639 187.162 49.662 186.828 49.662H182.515V46.4678H186.251C186.595 46.4678 186.881 46.1728 186.881 45.8229C186.881 45.4877 186.588 45.1935 186.251 45.1935H182.515V42.0097H186.828C187.167 42.0097 187.454 41.7152 187.454 41.3655C187.454 41.0216 187.167 40.732 186.828 40.732H181.913C181.509 40.732 181.243 41.0042 181.243 41.3655V50.3092C181.243 50.6364 181.475 50.8978 181.791 50.9367L182.082 50.9406Z" fill="#183F88"/>
</g>
<defs>
<clipPath id="clip0_1023_6397">
<rect width="186.736" height="60" fill="white" transform="translate(0.717773 0.25)"/>
</clipPath>
</defs>
</svg>
